ISO-10303-21;
HEADER;
/* Generated by software containing ST-Developer
 * from STEP Tools, Inc. (www.steptools.com) 
 */

FILE_DESCRIPTION(
/* description */ (''),
/* implementation_level */ '2;1');

FILE_NAME(
/* name */ 'Lid.step',
/* time_stamp */ '2026-07-30T20:26:14-07:00',
/* author */ (''),
/* organization */ (''),
/* preprocessor_version */ 'ST-DEVELOPER v20.1',
/* originating_system */ 'Autodesk Translation Framework v15.8.0.0',
/* authorisation */ '');

FILE_SCHEMA (('AUTOMOTIVE_DESIGN { 1 0 10303 214 3 1 1 }'));
ENDSEC;

DATA;
#10=MECHANICAL_DESIGN_GEOMETRIC_PRESENTATION_REPRESENTATION('',(#13),#941);
#11=SHAPE_REPRESENTATION_RELATIONSHIP('SRR','None',#948,#12);
#12=ADVANCED_BREP_SHAPE_REPRESENTATION('',(#14),#940);
#13=STYLED_ITEM('',(#958),#14);
#14=MANIFOLD_SOLID_BREP('Body1',#545);
#15=SPHERICAL_SURFACE('',#584,1.5);
#16=SPHERICAL_SURFACE('',#590,1.5);
#17=SPHERICAL_SURFACE('',#596,1.5);
#18=SPHERICAL_SURFACE('',#603,1.5);
#19=FACE_BOUND('',#91,.T.);
#20=FACE_BOUND('',#92,.T.);
#21=FACE_BOUND('',#94,.T.);
#22=FACE_BOUND('',#95,.T.);
#23=FACE_BOUND('',#114,.T.);
#24=PLANE('',#562);
#25=PLANE('',#563);
#26=PLANE('',#567);
#27=PLANE('',#568);
#28=PLANE('',#572);
#29=PLANE('',#573);
#30=PLANE('',#577);
#31=PLANE('',#578);
#32=PLANE('',#579);
#33=PLANE('',#580);
#34=PLANE('',#581);
#35=PLANE('',#582);
#36=PLANE('',#583);
#37=PLANE('',#612);
#38=PLANE('',#613);
#39=PLANE('',#614);
#40=PLANE('',#615);
#41=PLANE('',#616);
#42=PLANE('',#617);
#43=FACE_OUTER_BOUND('',#78,.T.);
#44=FACE_OUTER_BOUND('',#79,.T.);
#45=FACE_OUTER_BOUND('',#80,.T.);
#46=FACE_OUTER_BOUND('',#81,.T.);
#47=FACE_OUTER_BOUND('',#82,.T.);
#48=FACE_OUTER_BOUND('',#83,.T.);
#49=FACE_OUTER_BOUND('',#84,.T.);
#50=FACE_OUTER_BOUND('',#85,.T.);
#51=FACE_OUTER_BOUND('',#86,.T.);
#52=FACE_OUTER_BOUND('',#87,.T.);
#53=FACE_OUTER_BOUND('',#88,.T.);
#54=FACE_OUTER_BOUND('',#89,.T.);
#55=FACE_OUTER_BOUND('',#90,.T.);
#56=FACE_OUTER_BOUND('',#93,.T.);
#57=FACE_OUTER_BOUND('',#96,.T.);
#58=FACE_OUTER_BOUND('',#97,.T.);
#59=FACE_OUTER_BOUND('',#98,.T.);
#60=FACE_OUTER_BOUND('',#99,.T.);
#61=FACE_OUTER_BOUND('',#100,.T.);
#62=FACE_OUTER_BOUND('',#101,.T.);
#63=FACE_OUTER_BOUND('',#102,.T.);
#64=FACE_OUTER_BOUND('',#103,.T.);
#65=FACE_OUTER_BOUND('',#104,.T.);
#66=FACE_OUTER_BOUND('',#105,.T.);
#67=FACE_OUTER_BOUND('',#106,.T.);
#68=FACE_OUTER_BOUND('',#107,.T.);
#69=FACE_OUTER_BOUND('',#108,.T.);
#70=FACE_OUTER_BOUND('',#109,.T.);
#71=FACE_OUTER_BOUND('',#110,.T.);
#72=FACE_OUTER_BOUND('',#111,.T.);
#73=FACE_OUTER_BOUND('',#112,.T.);
#74=FACE_OUTER_BOUND('',#113,.T.);
#75=FACE_OUTER_BOUND('',#115,.T.);
#76=FACE_OUTER_BOUND('',#116,.T.);
#77=FACE_OUTER_BOUND('',#117,.T.);
#78=EDGE_LOOP('',(#354,#355,#356,#357));
#79=EDGE_LOOP('',(#358,#359));
#80=EDGE_LOOP('',(#360,#361));
#81=EDGE_LOOP('',(#362,#363,#364,#365));
#82=EDGE_LOOP('',(#366,#367));
#83=EDGE_LOOP('',(#368,#369));
#84=EDGE_LOOP('',(#370,#371,#372,#373));
#85=EDGE_LOOP('',(#374,#375));
#86=EDGE_LOOP('',(#376,#377));
#87=EDGE_LOOP('',(#378,#379,#380,#381));
#88=EDGE_LOOP('',(#382,#383));
#89=EDGE_LOOP('',(#384,#385));
#90=EDGE_LOOP('',(#386,#387,#388,#389));
#91=EDGE_LOOP('',(#390,#391,#392,#393));
#92=EDGE_LOOP('',(#394,#395,#396,#397));
#93=EDGE_LOOP('',(#398,#399,#400,#401));
#94=EDGE_LOOP('',(#402,#403,#404,#405));
#95=EDGE_LOOP('',(#406,#407,#408,#409));
#96=EDGE_LOOP('',(#410,#411,#412,#413));
#97=EDGE_LOOP('',(#414,#415,#416,#417));
#98=EDGE_LOOP('',(#418,#419,#420,#421));
#99=EDGE_LOOP('',(#422,#423,#424));
#100=EDGE_LOOP('',(#425,#426,#427,#428));
#101=EDGE_LOOP('',(#429,#430,#431));
#102=EDGE_LOOP('',(#432,#433,#434,#435));
#103=EDGE_LOOP('',(#436,#437,#438));
#104=EDGE_LOOP('',(#439,#440,#441,#442));
#105=EDGE_LOOP('',(#443,#444,#445,#446));
#106=EDGE_LOOP('',(#447,#448,#449));
#107=EDGE_LOOP('',(#450,#451,#452,#453));
#108=EDGE_LOOP('',(#454,#455,#456,#457));
#109=EDGE_LOOP('',(#458,#459,#460,#461));
#110=EDGE_LOOP('',(#462,#463,#464,#465));
#111=EDGE_LOOP('',(#466,#467,#468,#469));
#112=EDGE_LOOP('',(#470,#471,#472,#473));
#113=EDGE_LOOP('',(#474,#475,#476,#477,#478,#479,#480,#481));
#114=EDGE_LOOP('',(#482,#483,#484,#485));
#115=EDGE_LOOP('',(#486,#487,#488,#489));
#116=EDGE_LOOP('',(#490,#491,#492,#493));
#117=EDGE_LOOP('',(#494,#495,#496,#497));
#118=LINE('',#792,#166);
#119=LINE('',#795,#167);
#120=LINE('',#797,#168);
#121=LINE('',#799,#169);
#122=LINE('',#805,#170);
#123=LINE('',#808,#171);
#124=LINE('',#810,#172);
#125=LINE('',#812,#173);
#126=LINE('',#818,#174);
#127=LINE('',#821,#175);
#128=LINE('',#823,#176);
#129=LINE('',#825,#177);
#130=LINE('',#831,#178);
#131=LINE('',#834,#179);
#132=LINE('',#836,#180);
#133=LINE('',#838,#181);
#134=LINE('',#842,#182);
#135=LINE('',#844,#183);
#136=LINE('',#846,#184);
#137=LINE('',#847,#185);
#138=LINE('',#851,#186);
#139=LINE('',#853,#187);
#140=LINE('',#855,#188);
#141=LINE('',#856,#189);
#142=LINE('',#858,#190);
#143=LINE('',#859,#191);
#144=LINE('',#861,#192);
#145=LINE('',#862,#193);
#146=LINE('',#875,#194);
#147=LINE('',#876,#195);
#148=LINE('',#888,#196);
#149=LINE('',#889,#197);
#150=LINE('',#901,#198);
#151=LINE('',#902,#199);
#152=LINE('',#904,#200);
#153=LINE('',#905,#201);
#154=LINE('',#917,#202);
#155=LINE('',#918,#203);
#156=LINE('',#920,#204);
#157=LINE('',#921,#205);
#158=LINE('',#923,#206);
#159=LINE('',#924,#207);
#160=LINE('',#926,#208);
#161=LINE('',#927,#209);
#162=LINE('',#929,#210);
#163=LINE('',#931,#211);
#164=LINE('',#933,#212);
#165=LINE('',#934,#213);
#166=VECTOR('',#624,10.);
#167=VECTOR('',#627,10.);
#168=VECTOR('',#630,10.);
#169=VECTOR('',#633,10.);
#170=VECTOR('',#638,10.);
#171=VECTOR('',#641,10.);
#172=VECTOR('',#644,10.);
#173=VECTOR('',#647,10.);
#174=VECTOR('',#652,10.);
#175=VECTOR('',#655,10.);
#176=VECTOR('',#658,10.);
#177=VECTOR('',#661,10.);
#178=VECTOR('',#666,10.);
#179=VECTOR('',#669,10.);
#180=VECTOR('',#672,10.);
#181=VECTOR('',#675,10.);
#182=VECTOR('',#678,10.);
#183=VECTOR('',#679,10.);
#184=VECTOR('',#680,10.);
#185=VECTOR('',#681,10.);
#186=VECTOR('',#684,10.);
#187=VECTOR('',#685,10.);
#188=VECTOR('',#686,10.);
#189=VECTOR('',#687,10.);
#190=VECTOR('',#690,10.);
#191=VECTOR('',#691,10.);
#192=VECTOR('',#694,10.);
#193=VECTOR('',#695,10.);
#194=VECTOR('',#710,10.);
#195=VECTOR('',#711,10.);
#196=VECTOR('',#724,10.);
#197=VECTOR('',#725,10.);
#198=VECTOR('',#738,10.);
#199=VECTOR('',#739,10.);
#200=VECTOR('',#742,10.);
#201=VECTOR('',#743,10.);
#202=VECTOR('',#756,10.);
#203=VECTOR('',#757,10.);
#204=VECTOR('',#760,10.);
#205=VECTOR('',#761,10.);
#206=VECTOR('',#764,10.);
#207=VECTOR('',#765,10.);
#208=VECTOR('',#768,10.);
#209=VECTOR('',#769,10.);
#210=VECTOR('',#772,10.);
#211=VECTOR('',#775,10.);
#212=VECTOR('',#778,10.);
#213=VECTOR('',#779,10.);
#214=CIRCLE('',#560,0.750000000000002);
#215=CIRCLE('',#561,0.750000000000002);
#216=CIRCLE('',#565,0.750000000000002);
#217=CIRCLE('',#566,0.750000000000002);
#218=CIRCLE('',#570,0.750000000000002);
#219=CIRCLE('',#571,0.750000000000002);
#220=CIRCLE('',#575,0.750000000000002);
#221=CIRCLE('',#576,0.750000000000002);
#222=CIRCLE('',#585,1.50000000000002);
#223=CIRCLE('',#586,1.5);
#224=CIRCLE('',#587,1.5);
#225=CIRCLE('',#589,1.5);
#226=CIRCLE('',#591,1.5);
#227=CIRCLE('',#592,1.5);
#228=CIRCLE('',#593,1.5);
#229=CIRCLE('',#595,1.5);
#230=CIRCLE('',#597,1.5);
#231=CIRCLE('',#598,1.5);
#232=CIRCLE('',#599,1.5);
#233=CIRCLE('',#601,1.5);
#234=CIRCLE('',#604,1.5);
#235=CIRCLE('',#605,1.5);
#236=CIRCLE('',#606,1.5);
#237=CIRCLE('',#608,1.5);
#238=VERTEX_POINT('',#788);
#239=VERTEX_POINT('',#789);
#240=VERTEX_POINT('',#791);
#241=VERTEX_POINT('',#793);
#242=VERTEX_POINT('',#801);
#243=VERTEX_POINT('',#802);
#244=VERTEX_POINT('',#804);
#245=VERTEX_POINT('',#806);
#246=VERTEX_POINT('',#814);
#247=VERTEX_POINT('',#815);
#248=VERTEX_POINT('',#817);
#249=VERTEX_POINT('',#819);
#250=VERTEX_POINT('',#827);
#251=VERTEX_POINT('',#828);
#252=VERTEX_POINT('',#830);
#253=VERTEX_POINT('',#832);
#254=VERTEX_POINT('',#840);
#255=VERTEX_POINT('',#841);
#256=VERTEX_POINT('',#843);
#257=VERTEX_POINT('',#845);
#258=VERTEX_POINT('',#849);
#259=VERTEX_POINT('',#850);
#260=VERTEX_POINT('',#852);
#261=VERTEX_POINT('',#854);
#262=VERTEX_POINT('',#865);
#263=VERTEX_POINT('',#866);
#264=VERTEX_POINT('',#868);
#265=VERTEX_POINT('',#872);
#266=VERTEX_POINT('',#873);
#267=VERTEX_POINT('',#878);
#268=VERTEX_POINT('',#879);
#269=VERTEX_POINT('',#881);
#270=VERTEX_POINT('',#885);
#271=VERTEX_POINT('',#886);
#272=VERTEX_POINT('',#891);
#273=VERTEX_POINT('',#892);
#274=VERTEX_POINT('',#894);
#275=VERTEX_POINT('',#898);
#276=VERTEX_POINT('',#899);
#277=VERTEX_POINT('',#907);
#278=VERTEX_POINT('',#908);
#279=VERTEX_POINT('',#910);
#280=VERTEX_POINT('',#914);
#281=VERTEX_POINT('',#915);
#282=EDGE_CURVE('',#238,#239,#214,.T.);
#283=EDGE_CURVE('',#240,#238,#118,.T.);
#284=EDGE_CURVE('',#240,#241,#215,.T.);
#285=EDGE_CURVE('',#239,#241,#119,.T.);
#286=EDGE_CURVE('',#241,#240,#120,.T.);
#287=EDGE_CURVE('',#238,#239,#121,.T.);
#288=EDGE_CURVE('',#242,#243,#216,.T.);
#289=EDGE_CURVE('',#244,#242,#122,.T.);
#290=EDGE_CURVE('',#244,#245,#217,.T.);
#291=EDGE_CURVE('',#243,#245,#123,.T.);
#292=EDGE_CURVE('',#245,#244,#124,.T.);
#293=EDGE_CURVE('',#242,#243,#125,.T.);
#294=EDGE_CURVE('',#246,#247,#218,.T.);
#295=EDGE_CURVE('',#248,#246,#126,.T.);
#296=EDGE_CURVE('',#248,#249,#219,.T.);
#297=EDGE_CURVE('',#247,#249,#127,.T.);
#298=EDGE_CURVE('',#249,#248,#128,.T.);
#299=EDGE_CURVE('',#246,#247,#129,.T.);
#300=EDGE_CURVE('',#250,#251,#220,.T.);
#301=EDGE_CURVE('',#252,#250,#130,.T.);
#302=EDGE_CURVE('',#252,#253,#221,.T.);
#303=EDGE_CURVE('',#251,#253,#131,.T.);
#304=EDGE_CURVE('',#253,#252,#132,.T.);
#305=EDGE_CURVE('',#250,#251,#133,.T.);
#306=EDGE_CURVE('',#254,#255,#134,.T.);
#307=EDGE_CURVE('',#254,#256,#135,.F.);
#308=EDGE_CURVE('',#256,#257,#136,.T.);
#309=EDGE_CURVE('',#255,#257,#137,.T.);
#310=EDGE_CURVE('',#258,#259,#138,.F.);
#311=EDGE_CURVE('',#260,#258,#139,.T.);
#312=EDGE_CURVE('',#260,#261,#140,.T.);
#313=EDGE_CURVE('',#261,#259,#141,.T.);
#314=EDGE_CURVE('',#258,#255,#142,.T.);
#315=EDGE_CURVE('',#259,#254,#143,.T.);
#316=EDGE_CURVE('',#256,#261,#144,.F.);
#317=EDGE_CURVE('',#257,#260,#145,.T.);
#318=EDGE_CURVE('',#262,#263,#222,.F.);
#319=EDGE_CURVE('',#264,#262,#223,.F.);
#320=EDGE_CURVE('',#263,#264,#224,.F.);
#321=EDGE_CURVE('',#265,#266,#225,.T.);
#322=EDGE_CURVE('',#266,#264,#146,.T.);
#323=EDGE_CURVE('',#262,#265,#147,.T.);
#324=EDGE_CURVE('',#267,#268,#226,.F.);
#325=EDGE_CURVE('',#269,#267,#227,.F.);
#326=EDGE_CURVE('',#268,#269,#228,.F.);
#327=EDGE_CURVE('',#270,#271,#229,.T.);
#328=EDGE_CURVE('',#271,#269,#148,.T.);
#329=EDGE_CURVE('',#267,#270,#149,.T.);
#330=EDGE_CURVE('',#272,#273,#230,.F.);
#331=EDGE_CURVE('',#274,#272,#231,.F.);
#332=EDGE_CURVE('',#273,#274,#232,.F.);
#333=EDGE_CURVE('',#275,#276,#233,.T.);
#334=EDGE_CURVE('',#276,#274,#150,.T.);
#335=EDGE_CURVE('',#272,#275,#151,.T.);
#336=EDGE_CURVE('',#263,#273,#152,.T.);
#337=EDGE_CURVE('',#274,#262,#153,.T.);
#338=EDGE_CURVE('',#277,#278,#234,.F.);
#339=EDGE_CURVE('',#279,#277,#235,.F.);
#340=EDGE_CURVE('',#278,#279,#236,.F.);
#341=EDGE_CURVE('',#280,#281,#237,.T.);
#342=EDGE_CURVE('',#281,#279,#154,.T.);
#343=EDGE_CURVE('',#277,#280,#155,.T.);
#344=EDGE_CURVE('',#273,#278,#156,.T.);
#345=EDGE_CURVE('',#279,#272,#157,.T.);
#346=EDGE_CURVE('',#278,#268,#158,.T.);
#347=EDGE_CURVE('',#269,#277,#159,.T.);
#348=EDGE_CURVE('',#268,#263,#160,.T.);
#349=EDGE_CURVE('',#264,#267,#161,.T.);
#350=EDGE_CURVE('',#265,#276,#162,.T.);
#351=EDGE_CURVE('',#275,#281,#163,.T.);
#352=EDGE_CURVE('',#280,#271,#164,.T.);
#353=EDGE_CURVE('',#270,#266,#165,.T.);
#354=ORIENTED_EDGE('',*,*,#282,.F.);
#355=ORIENTED_EDGE('',*,*,#283,.F.);
#356=ORIENTED_EDGE('',*,*,#284,.T.);
#357=ORIENTED_EDGE('',*,*,#285,.F.);
#358=ORIENTED_EDGE('',*,*,#284,.F.);
#359=ORIENTED_EDGE('',*,*,#286,.F.);
#360=ORIENTED_EDGE('',*,*,#282,.T.);
#361=ORIENTED_EDGE('',*,*,#287,.F.);
#362=ORIENTED_EDGE('',*,*,#288,.F.);
#363=ORIENTED_EDGE('',*,*,#289,.F.);
#364=ORIENTED_EDGE('',*,*,#290,.T.);
#365=ORIENTED_EDGE('',*,*,#291,.F.);
#366=ORIENTED_EDGE('',*,*,#292,.F.);
#367=ORIENTED_EDGE('',*,*,#290,.F.);
#368=ORIENTED_EDGE('',*,*,#293,.F.);
#369=ORIENTED_EDGE('',*,*,#288,.T.);
#370=ORIENTED_EDGE('',*,*,#294,.F.);
#371=ORIENTED_EDGE('',*,*,#295,.F.);
#372=ORIENTED_EDGE('',*,*,#296,.T.);
#373=ORIENTED_EDGE('',*,*,#297,.F.);
#374=ORIENTED_EDGE('',*,*,#298,.F.);
#375=ORIENTED_EDGE('',*,*,#296,.F.);
#376=ORIENTED_EDGE('',*,*,#299,.F.);
#377=ORIENTED_EDGE('',*,*,#294,.T.);
#378=ORIENTED_EDGE('',*,*,#300,.F.);
#379=ORIENTED_EDGE('',*,*,#301,.F.);
#380=ORIENTED_EDGE('',*,*,#302,.T.);
#381=ORIENTED_EDGE('',*,*,#303,.F.);
#382=ORIENTED_EDGE('',*,*,#302,.F.);
#383=ORIENTED_EDGE('',*,*,#304,.F.);
#384=ORIENTED_EDGE('',*,*,#300,.T.);
#385=ORIENTED_EDGE('',*,*,#305,.F.);
#386=ORIENTED_EDGE('',*,*,#306,.F.);
#387=ORIENTED_EDGE('',*,*,#307,.T.);
#388=ORIENTED_EDGE('',*,*,#308,.T.);
#389=ORIENTED_EDGE('',*,*,#309,.F.);
#390=ORIENTED_EDGE('',*,*,#291,.T.);
#391=ORIENTED_EDGE('',*,*,#292,.T.);
#392=ORIENTED_EDGE('',*,*,#289,.T.);
#393=ORIENTED_EDGE('',*,*,#293,.T.);
#394=ORIENTED_EDGE('',*,*,#297,.T.);
#395=ORIENTED_EDGE('',*,*,#298,.T.);
#396=ORIENTED_EDGE('',*,*,#295,.T.);
#397=ORIENTED_EDGE('',*,*,#299,.T.);
#398=ORIENTED_EDGE('',*,*,#310,.F.);
#399=ORIENTED_EDGE('',*,*,#311,.F.);
#400=ORIENTED_EDGE('',*,*,#312,.T.);
#401=ORIENTED_EDGE('',*,*,#313,.T.);
#402=ORIENTED_EDGE('',*,*,#283,.T.);
#403=ORIENTED_EDGE('',*,*,#287,.T.);
#404=ORIENTED_EDGE('',*,*,#285,.T.);
#405=ORIENTED_EDGE('',*,*,#286,.T.);
#406=ORIENTED_EDGE('',*,*,#301,.T.);
#407=ORIENTED_EDGE('',*,*,#305,.T.);
#408=ORIENTED_EDGE('',*,*,#303,.T.);
#409=ORIENTED_EDGE('',*,*,#304,.T.);
#410=ORIENTED_EDGE('',*,*,#306,.T.);
#411=ORIENTED_EDGE('',*,*,#314,.F.);
#412=ORIENTED_EDGE('',*,*,#310,.T.);
#413=ORIENTED_EDGE('',*,*,#315,.T.);
#414=ORIENTED_EDGE('',*,*,#308,.F.);
#415=ORIENTED_EDGE('',*,*,#316,.T.);
#416=ORIENTED_EDGE('',*,*,#312,.F.);
#417=ORIENTED_EDGE('',*,*,#317,.F.);
#418=ORIENTED_EDGE('',*,*,#315,.F.);
#419=ORIENTED_EDGE('',*,*,#313,.F.);
#420=ORIENTED_EDGE('',*,*,#316,.F.);
#421=ORIENTED_EDGE('',*,*,#307,.F.);
#422=ORIENTED_EDGE('',*,*,#318,.F.);
#423=ORIENTED_EDGE('',*,*,#319,.F.);
#424=ORIENTED_EDGE('',*,*,#320,.F.);
#425=ORIENTED_EDGE('',*,*,#321,.T.);
#426=ORIENTED_EDGE('',*,*,#322,.T.);
#427=ORIENTED_EDGE('',*,*,#319,.T.);
#428=ORIENTED_EDGE('',*,*,#323,.T.);
#429=ORIENTED_EDGE('',*,*,#324,.F.);
#430=ORIENTED_EDGE('',*,*,#325,.F.);
#431=ORIENTED_EDGE('',*,*,#326,.F.);
#432=ORIENTED_EDGE('',*,*,#327,.T.);
#433=ORIENTED_EDGE('',*,*,#328,.T.);
#434=ORIENTED_EDGE('',*,*,#325,.T.);
#435=ORIENTED_EDGE('',*,*,#329,.T.);
#436=ORIENTED_EDGE('',*,*,#330,.F.);
#437=ORIENTED_EDGE('',*,*,#331,.F.);
#438=ORIENTED_EDGE('',*,*,#332,.F.);
#439=ORIENTED_EDGE('',*,*,#333,.T.);
#440=ORIENTED_EDGE('',*,*,#334,.T.);
#441=ORIENTED_EDGE('',*,*,#331,.T.);
#442=ORIENTED_EDGE('',*,*,#335,.T.);
#443=ORIENTED_EDGE('',*,*,#318,.T.);
#444=ORIENTED_EDGE('',*,*,#336,.T.);
#445=ORIENTED_EDGE('',*,*,#332,.T.);
#446=ORIENTED_EDGE('',*,*,#337,.T.);
#447=ORIENTED_EDGE('',*,*,#338,.F.);
#448=ORIENTED_EDGE('',*,*,#339,.F.);
#449=ORIENTED_EDGE('',*,*,#340,.F.);
#450=ORIENTED_EDGE('',*,*,#341,.T.);
#451=ORIENTED_EDGE('',*,*,#342,.T.);
#452=ORIENTED_EDGE('',*,*,#339,.T.);
#453=ORIENTED_EDGE('',*,*,#343,.T.);
#454=ORIENTED_EDGE('',*,*,#330,.T.);
#455=ORIENTED_EDGE('',*,*,#344,.T.);
#456=ORIENTED_EDGE('',*,*,#340,.T.);
#457=ORIENTED_EDGE('',*,*,#345,.T.);
#458=ORIENTED_EDGE('',*,*,#338,.T.);
#459=ORIENTED_EDGE('',*,*,#346,.T.);
#460=ORIENTED_EDGE('',*,*,#326,.T.);
#461=ORIENTED_EDGE('',*,*,#347,.T.);
#462=ORIENTED_EDGE('',*,*,#324,.T.);
#463=ORIENTED_EDGE('',*,*,#348,.T.);
#464=ORIENTED_EDGE('',*,*,#320,.T.);
#465=ORIENTED_EDGE('',*,*,#349,.T.);
#466=ORIENTED_EDGE('',*,*,#323,.F.);
#467=ORIENTED_EDGE('',*,*,#337,.F.);
#468=ORIENTED_EDGE('',*,*,#334,.F.);
#469=ORIENTED_EDGE('',*,*,#350,.F.);
#470=ORIENTED_EDGE('',*,*,#335,.F.);
#471=ORIENTED_EDGE('',*,*,#345,.F.);
#472=ORIENTED_EDGE('',*,*,#342,.F.);
#473=ORIENTED_EDGE('',*,*,#351,.F.);
#474=ORIENTED_EDGE('',*,*,#321,.F.);
#475=ORIENTED_EDGE('',*,*,#350,.T.);
#476=ORIENTED_EDGE('',*,*,#333,.F.);
#477=ORIENTED_EDGE('',*,*,#351,.T.);
#478=ORIENTED_EDGE('',*,*,#341,.F.);
#479=ORIENTED_EDGE('',*,*,#352,.T.);
#480=ORIENTED_EDGE('',*,*,#327,.F.);
#481=ORIENTED_EDGE('',*,*,#353,.T.);
#482=ORIENTED_EDGE('',*,*,#311,.T.);
#483=ORIENTED_EDGE('',*,*,#314,.T.);
#484=ORIENTED_EDGE('',*,*,#309,.T.);
#485=ORIENTED_EDGE('',*,*,#317,.T.);
#486=ORIENTED_EDGE('',*,*,#336,.F.);
#487=ORIENTED_EDGE('',*,*,#348,.F.);
#488=ORIENTED_EDGE('',*,*,#346,.F.);
#489=ORIENTED_EDGE('',*,*,#344,.F.);
#490=ORIENTED_EDGE('',*,*,#328,.F.);
#491=ORIENTED_EDGE('',*,*,#352,.F.);
#492=ORIENTED_EDGE('',*,*,#343,.F.);
#493=ORIENTED_EDGE('',*,*,#347,.F.);
#494=ORIENTED_EDGE('',*,*,#322,.F.);
#495=ORIENTED_EDGE('',*,*,#353,.F.);
#496=ORIENTED_EDGE('',*,*,#329,.F.);
#497=ORIENTED_EDGE('',*,*,#349,.F.);
#498=CYLINDRICAL_SURFACE('',#559,0.750000000000002);
#499=CYLINDRICAL_SURFACE('',#564,0.750000000000002);
#500=CYLINDRICAL_SURFACE('',#569,0.750000000000002);
#501=CYLINDRICAL_SURFACE('',#574,0.750000000000002);
#502=CYLINDRICAL_SURFACE('',#588,1.5);
#503=CYLINDRICAL_SURFACE('',#594,1.5);
#504=CYLINDRICAL_SURFACE('',#600,1.5);
#505=CYLINDRICAL_SURFACE('',#602,1.5);
#506=CYLINDRICAL_SURFACE('',#607,1.5);
#507=CYLINDRICAL_SURFACE('',#609,1.5);
#508=CYLINDRICAL_SURFACE('',#610,1.5);
#509=CYLINDRICAL_SURFACE('',#611,1.5);
#510=ADVANCED_FACE('',(#43),#498,.F.);
#511=ADVANCED_FACE('',(#44),#24,.F.);
#512=ADVANCED_FACE('',(#45),#25,.T.);
#513=ADVANCED_FACE('',(#46),#499,.F.);
#514=ADVANCED_FACE('',(#47),#26,.F.);
#515=ADVANCED_FACE('',(#48),#27,.T.);
#516=ADVANCED_FACE('',(#49),#500,.F.);
#517=ADVANCED_FACE('',(#50),#28,.F.);
#518=ADVANCED_FACE('',(#51),#29,.T.);
#519=ADVANCED_FACE('',(#52),#501,.F.);
#520=ADVANCED_FACE('',(#53),#30,.F.);
#521=ADVANCED_FACE('',(#54),#31,.T.);
#522=ADVANCED_FACE('',(#55,#19,#20),#32,.F.);
#523=ADVANCED_FACE('',(#56,#21,#22),#33,.F.);
#524=ADVANCED_FACE('',(#57),#34,.F.);
#525=ADVANCED_FACE('',(#58),#35,.F.);
#526=ADVANCED_FACE('',(#59),#36,.F.);
#527=ADVANCED_FACE('',(#60),#15,.T.);
#528=ADVANCED_FACE('',(#61),#502,.T.);
#529=ADVANCED_FACE('',(#62),#16,.T.);
#530=ADVANCED_FACE('',(#63),#503,.T.);
#531=ADVANCED_FACE('',(#64),#17,.T.);
#532=ADVANCED_FACE('',(#65),#504,.T.);
#533=ADVANCED_FACE('',(#66),#505,.T.);
#534=ADVANCED_FACE('',(#67),#18,.T.);
#535=ADVANCED_FACE('',(#68),#506,.T.);
#536=ADVANCED_FACE('',(#69),#507,.T.);
#537=ADVANCED_FACE('',(#70),#508,.T.);
#538=ADVANCED_FACE('',(#71),#509,.T.);
#539=ADVANCED_FACE('',(#72),#37,.T.);
#540=ADVANCED_FACE('',(#73),#38,.T.);
#541=ADVANCED_FACE('',(#74,#23),#39,.F.);
#542=ADVANCED_FACE('',(#75),#40,.T.);
#543=ADVANCED_FACE('',(#76),#41,.T.);
#544=ADVANCED_FACE('',(#77),#42,.T.);
#545=CLOSED_SHELL('',(#510,#511,#512,#513,#514,#515,#516,#517,#518,#519,
#520,#521,#522,#523,#524,#525,#526,#527,#528,#529,#530,#531,#532,#533,#534,
#535,#536,#537,#538,#539,#540,#541,#542,#543,#544));
#546=DERIVED_UNIT_ELEMENT(#548,1.);
#547=DERIVED_UNIT_ELEMENT(#943,-3.);
#548=(
MASS_UNIT()
NAMED_UNIT(*)
SI_UNIT(.KILO.,.GRAM.)
);
#549=DERIVED_UNIT((#546,#547));
#550=MEASURE_REPRESENTATION_ITEM('density measure',
POSITIVE_RATIO_MEASURE(7850.),#549);
#551=PROPERTY_DEFINITION_REPRESENTATION(#556,#553);
#552=PROPERTY_DEFINITION_REPRESENTATION(#557,#554);
#553=REPRESENTATION('material name',(#555),#940);
#554=REPRESENTATION('density',(#550),#940);
#555=DESCRIPTIVE_REPRESENTATION_ITEM('Steel','Steel');
#556=PROPERTY_DEFINITION('material property','material name',#950);
#557=PROPERTY_DEFINITION('material property','density of part',#950);
#558=AXIS2_PLACEMENT_3D('',#786,#618,#619);
#559=AXIS2_PLACEMENT_3D('',#787,#620,#621);
#560=AXIS2_PLACEMENT_3D('',#790,#622,#623);
#561=AXIS2_PLACEMENT_3D('',#794,#625,#626);
#562=AXIS2_PLACEMENT_3D('',#796,#628,#629);
#563=AXIS2_PLACEMENT_3D('',#798,#631,#632);
#564=AXIS2_PLACEMENT_3D('',#800,#634,#635);
#565=AXIS2_PLACEMENT_3D('',#803,#636,#637);
#566=AXIS2_PLACEMENT_3D('',#807,#639,#640);
#567=AXIS2_PLACEMENT_3D('',#809,#642,#643);
#568=AXIS2_PLACEMENT_3D('',#811,#645,#646);
#569=AXIS2_PLACEMENT_3D('',#813,#648,#649);
#570=AXIS2_PLACEMENT_3D('',#816,#650,#651);
#571=AXIS2_PLACEMENT_3D('',#820,#653,#654);
#572=AXIS2_PLACEMENT_3D('',#822,#656,#657);
#573=AXIS2_PLACEMENT_3D('',#824,#659,#660);
#574=AXIS2_PLACEMENT_3D('',#826,#662,#663);
#575=AXIS2_PLACEMENT_3D('',#829,#664,#665);
#576=AXIS2_PLACEMENT_3D('',#833,#667,#668);
#577=AXIS2_PLACEMENT_3D('',#835,#670,#671);
#578=AXIS2_PLACEMENT_3D('',#837,#673,#674);
#579=AXIS2_PLACEMENT_3D('',#839,#676,#677);
#580=AXIS2_PLACEMENT_3D('',#848,#682,#683);
#581=AXIS2_PLACEMENT_3D('',#857,#688,#689);
#582=AXIS2_PLACEMENT_3D('',#860,#692,#693);
#583=AXIS2_PLACEMENT_3D('',#863,#696,#697);
#584=AXIS2_PLACEMENT_3D('',#864,#698,#699);
#585=AXIS2_PLACEMENT_3D('',#867,#700,#701);
#586=AXIS2_PLACEMENT_3D('',#869,#702,#703);
#587=AXIS2_PLACEMENT_3D('',#870,#704,#705);
#588=AXIS2_PLACEMENT_3D('',#871,#706,#707);
#589=AXIS2_PLACEMENT_3D('',#874,#708,#709);
#590=AXIS2_PLACEMENT_3D('',#877,#712,#713);
#591=AXIS2_PLACEMENT_3D('',#880,#714,#715);
#592=AXIS2_PLACEMENT_3D('',#882,#716,#717);
#593=AXIS2_PLACEMENT_3D('',#883,#718,#719);
#594=AXIS2_PLACEMENT_3D('',#884,#720,#721);
#595=AXIS2_PLACEMENT_3D('',#887,#722,#723);
#596=AXIS2_PLACEMENT_3D('',#890,#726,#727);
#597=AXIS2_PLACEMENT_3D('',#893,#728,#729);
#598=AXIS2_PLACEMENT_3D('',#895,#730,#731);
#599=AXIS2_PLACEMENT_3D('',#896,#732,#733);
#600=AXIS2_PLACEMENT_3D('',#897,#734,#735);
#601=AXIS2_PLACEMENT_3D('',#900,#736,#737);
#602=AXIS2_PLACEMENT_3D('',#903,#740,#741);
#603=AXIS2_PLACEMENT_3D('',#906,#744,#745);
#604=AXIS2_PLACEMENT_3D('',#909,#746,#747);
#605=AXIS2_PLACEMENT_3D('',#911,#748,#749);
#606=AXIS2_PLACEMENT_3D('',#912,#750,#751);
#607=AXIS2_PLACEMENT_3D('',#913,#752,#753);
#608=AXIS2_PLACEMENT_3D('',#916,#754,#755);
#609=AXIS2_PLACEMENT_3D('',#919,#758,#759);
#610=AXIS2_PLACEMENT_3D('',#922,#762,#763);
#611=AXIS2_PLACEMENT_3D('',#925,#766,#767);
#612=AXIS2_PLACEMENT_3D('',#928,#770,#771);
#613=AXIS2_PLACEMENT_3D('',#930,#773,#774);
#614=AXIS2_PLACEMENT_3D('',#932,#776,#777);
#615=AXIS2_PLACEMENT_3D('',#935,#780,#781);
#616=AXIS2_PLACEMENT_3D('',#936,#782,#783);
#617=AXIS2_PLACEMENT_3D('',#937,#784,#785);
#618=DIRECTION('axis',(0.,0.,1.));
#619=DIRECTION('refdir',(1.,0.,0.));
#620=DIRECTION('center_axis',(1.,0.,0.));
#621=DIRECTION('ref_axis',(0.,0.,-1.));
#622=DIRECTION('center_axis',(1.,0.,0.));
#623=DIRECTION('ref_axis',(0.,0.,-1.));
#624=DIRECTION('',(-1.,0.,0.));
#625=DIRECTION('center_axis',(1.,0.,0.));
#626=DIRECTION('ref_axis',(0.,0.,-1.));
#627=DIRECTION('',(1.,0.,0.));
#628=DIRECTION('center_axis',(1.,0.,0.));
#629=DIRECTION('ref_axis',(0.,0.,-1.));
#630=DIRECTION('',(0.,-1.,0.));
#631=DIRECTION('center_axis',(1.,0.,0.));
#632=DIRECTION('ref_axis',(0.,0.,-1.));
#633=DIRECTION('',(0.,1.,0.));
#634=DIRECTION('center_axis',(1.,0.,0.));
#635=DIRECTION('ref_axis',(0.,1.22464679914735E-16,1.));
#636=DIRECTION('center_axis',(1.,0.,0.));
#637=DIRECTION('ref_axis',(0.,0.,-1.));
#638=DIRECTION('',(-1.,0.,0.));
#639=DIRECTION('center_axis',(1.,0.,0.));
#640=DIRECTION('ref_axis',(0.,0.,-1.));
#641=DIRECTION('',(1.,0.,0.));
#642=DIRECTION('center_axis',(1.,0.,0.));
#643=DIRECTION('ref_axis',(0.,0.,-1.));
#644=DIRECTION('',(0.,1.,0.));
#645=DIRECTION('center_axis',(1.,0.,0.));
#646=DIRECTION('ref_axis',(0.,0.,-1.));
#647=DIRECTION('',(0.,-1.,0.));
#648=DIRECTION('center_axis',(1.,0.,0.));
#649=DIRECTION('ref_axis',(0.,1.22464679914735E-16,1.));
#650=DIRECTION('center_axis',(1.,0.,0.));
#651=DIRECTION('ref_axis',(0.,0.,-1.));
#652=DIRECTION('',(-1.,0.,0.));
#653=DIRECTION('center_axis',(1.,0.,0.));
#654=DIRECTION('ref_axis',(0.,0.,-1.));
#655=DIRECTION('',(1.,0.,0.));
#656=DIRECTION('center_axis',(1.,0.,0.));
#657=DIRECTION('ref_axis',(0.,0.,-1.));
#658=DIRECTION('',(0.,1.,0.));
#659=DIRECTION('center_axis',(1.,0.,0.));
#660=DIRECTION('ref_axis',(0.,0.,-1.));
#661=DIRECTION('',(0.,-1.,0.));
#662=DIRECTION('center_axis',(1.,0.,0.));
#663=DIRECTION('ref_axis',(0.,0.,-1.));
#664=DIRECTION('center_axis',(1.,0.,0.));
#665=DIRECTION('ref_axis',(0.,0.,-1.));
#666=DIRECTION('',(-1.,0.,0.));
#667=DIRECTION('center_axis',(1.,0.,0.));
#668=DIRECTION('ref_axis',(0.,0.,-1.));
#669=DIRECTION('',(1.,0.,0.));
#670=DIRECTION('center_axis',(1.,0.,0.));
#671=DIRECTION('ref_axis',(0.,0.,-1.));
#672=DIRECTION('',(0.,-1.,0.));
#673=DIRECTION('center_axis',(1.,0.,0.));
#674=DIRECTION('ref_axis',(0.,0.,-1.));
#675=DIRECTION('',(0.,1.,0.));
#676=DIRECTION('center_axis',(0.,0.,1.));
#677=DIRECTION('ref_axis',(1.,0.,0.));
#678=DIRECTION('',(0.,-1.,0.));
#679=DIRECTION('',(-1.,0.,0.));
#680=DIRECTION('',(0.,-1.,0.));
#681=DIRECTION('',(1.,0.,0.));
#682=DIRECTION('center_axis',(0.,0.,-1.));
#683=DIRECTION('ref_axis',(-1.,0.,0.));
#684=DIRECTION('',(0.,-1.,0.));
#685=DIRECTION('',(-1.,0.,0.));
#686=DIRECTION('',(0.,1.,0.));
#687=DIRECTION('',(-1.,0.,0.));
#688=DIRECTION('center_axis',(-1.,0.,2.64732762950857E-16));
#689=DIRECTION('ref_axis',(2.64732762950857E-16,0.,1.));
#690=DIRECTION('',(2.64732762950857E-16,0.,1.));
#691=DIRECTION('',(2.64732762950857E-16,0.,1.));
#692=DIRECTION('center_axis',(1.,0.,-5.29465525901714E-16));
#693=DIRECTION('ref_axis',(-5.29465525901714E-16,0.,-1.));
#694=DIRECTION('',(5.29465525901714E-16,0.,1.));
#695=DIRECTION('',(-5.29465525901714E-16,0.,-1.));
#696=DIRECTION('center_axis',(0.,1.,0.));
#697=DIRECTION('ref_axis',(0.,0.,1.));
#698=DIRECTION('center_axis',(0.40824829046386,-0.816496580927727,-0.408248290463865));
#699=DIRECTION('ref_axis',(0.577350269189623,0.577350269189626,-0.577350269189628));
#700=DIRECTION('center_axis',(0.,0.,-1.));
#701=DIRECTION('ref_axis',(1.,0.,0.));
#702=DIRECTION('center_axis',(0.,1.,0.));
#703=DIRECTION('ref_axis',(0.,0.,-1.));
#704=DIRECTION('center_axis',(1.,0.,1.1842378929335E-14));
#705=DIRECTION('ref_axis',(0.,1.,0.));
#706=DIRECTION('center_axis',(0.,1.,0.));
#707=DIRECTION('ref_axis',(0.707106781186552,0.,-0.707106781186543));
#708=DIRECTION('center_axis',(0.,1.,0.));
#709=DIRECTION('ref_axis',(0.707106781186552,0.,-0.707106781186543));
#710=DIRECTION('',(0.,1.,0.));
#711=DIRECTION('',(0.,-1.,0.));
#712=DIRECTION('center_axis',(0.408248290463863,-0.408248290463862,-0.816496580927726));
#713=DIRECTION('ref_axis',(-0.577350269189626,0.577350269189626,-0.577350269189626));
#714=DIRECTION('center_axis',(-1.,0.,0.));
#715=DIRECTION('ref_axis',(0.,0.,-1.));
#716=DIRECTION('center_axis',(0.,1.,0.));
#717=DIRECTION('ref_axis',(-1.,0.,0.));
#718=DIRECTION('center_axis',(0.,0.,-1.));
#719=DIRECTION('ref_axis',(0.,1.,0.));
#720=DIRECTION('center_axis',(0.,1.,0.));
#721=DIRECTION('ref_axis',(-0.707106781186548,0.,-0.707106781186548));
#722=DIRECTION('center_axis',(0.,1.,0.));
#723=DIRECTION('ref_axis',(-0.707106781186548,0.,-0.707106781186548));
#724=DIRECTION('',(0.,1.,0.));
#725=DIRECTION('',(0.,-1.,0.));
#726=DIRECTION('center_axis',(-0.816496580927728,0.408248290463862,0.40824829046386));
#727=DIRECTION('ref_axis',(0.577350269189622,0.577350269189629,0.577350269189627));
#728=DIRECTION('center_axis',(1.,0.,0.));
#729=DIRECTION('ref_axis',(0.,0.,1.));
#730=DIRECTION('center_axis',(0.,1.,0.));
#731=DIRECTION('ref_axis',(1.,0.,0.));
#732=DIRECTION('center_axis',(0.,0.,1.));
#733=DIRECTION('ref_axis',(0.,1.,0.));
#734=DIRECTION('center_axis',(0.,1.,0.));
#735=DIRECTION('ref_axis',(0.707106781186554,0.,0.707106781186541));
#736=DIRECTION('center_axis',(0.,1.,0.));
#737=DIRECTION('ref_axis',(0.707106781186554,0.,0.707106781186541));
#738=DIRECTION('',(0.,1.,0.));
#739=DIRECTION('',(0.,-1.,0.));
#740=DIRECTION('center_axis',(-5.29465525901714E-16,0.,-1.));
#741=DIRECTION('ref_axis',(0.707106781186552,0.707106781186543,0.));
#742=DIRECTION('',(5.29465525901714E-16,0.,1.));
#743=DIRECTION('',(-5.29465525901714E-16,0.,-1.));
#744=DIRECTION('center_axis',(-0.408248290463864,0.408248290463859,-0.816496580927728));
#745=DIRECTION('ref_axis',(-0.577350269189628,0.577350269189626,0.577350269189623));
#746=DIRECTION('center_axis',(0.,0.,1.));
#747=DIRECTION('ref_axis',(-1.,0.,0.));
#748=DIRECTION('center_axis',(0.,1.,0.));
#749=DIRECTION('ref_axis',(0.,0.,1.));
#750=DIRECTION('center_axis',(-1.,0.,0.));
#751=DIRECTION('ref_axis',(0.,1.,0.));
#752=DIRECTION('center_axis',(0.,1.,0.));
#753=DIRECTION('ref_axis',(-0.70710678118655,0.,0.707106781186545));
#754=DIRECTION('center_axis',(0.,1.,0.));
#755=DIRECTION('ref_axis',(-0.70710678118655,0.,0.707106781186545));
#756=DIRECTION('',(0.,1.,0.));
#757=DIRECTION('',(0.,-1.,0.));
#758=DIRECTION('center_axis',(1.,0.,0.));
#759=DIRECTION('ref_axis',(0.,0.70710678118655,0.707106781186545));
#760=DIRECTION('',(-1.,0.,0.));
#761=DIRECTION('',(1.,0.,0.));
#762=DIRECTION('center_axis',(2.64732762950857E-16,0.,1.));
#763=DIRECTION('ref_axis',(-0.707106781186548,0.707106781186548,0.));
#764=DIRECTION('',(-2.64732762950857E-16,0.,-1.));
#765=DIRECTION('',(2.64732762950857E-16,0.,1.));
#766=DIRECTION('center_axis',(-1.,0.,0.));
#767=DIRECTION('ref_axis',(0.,0.707106781186548,-0.707106781186548));
#768=DIRECTION('',(1.,0.,0.));
#769=DIRECTION('',(-1.,0.,0.));
#770=DIRECTION('center_axis',(1.,0.,-5.29465525901714E-16));
#771=DIRECTION('ref_axis',(-5.29465525901714E-16,0.,-1.));
#772=DIRECTION('',(5.29465525901714E-16,0.,1.));
#773=DIRECTION('center_axis',(0.,0.,1.));
#774=DIRECTION('ref_axis',(1.,0.,0.));
#775=DIRECTION('',(-1.,0.,0.));
#776=DIRECTION('center_axis',(0.,1.,0.));
#777=DIRECTION('ref_axis',(1.,0.,0.));
#778=DIRECTION('',(-2.64732762950857E-16,0.,-1.));
#779=DIRECTION('',(1.,0.,0.));
#780=DIRECTION('center_axis',(0.,1.,0.));
#781=DIRECTION('ref_axis',(0.,0.,1.));
#782=DIRECTION('center_axis',(-1.,0.,2.64732762950857E-16));
#783=DIRECTION('ref_axis',(2.64732762950857E-16,0.,1.));
#784=DIRECTION('center_axis',(0.,0.,-1.));
#785=DIRECTION('ref_axis',(-1.,0.,0.));
#786=CARTESIAN_POINT('',(0.,0.,0.));
#787=CARTESIAN_POINT('Origin',(74.8105807439183,4.5,-32.05));
#788=CARTESIAN_POINT('',(74.8105807439183,3.75,-32.05));
#789=CARTESIAN_POINT('',(74.8105807439183,5.25,-32.05));
#790=CARTESIAN_POINT('Origin',(74.8105807439183,4.5,-32.05));
#791=CARTESIAN_POINT('',(86.8105807439183,3.75,-32.05));
#792=CARTESIAN_POINT('',(74.8105807439183,3.75,-32.05));
#793=CARTESIAN_POINT('',(86.8105807439183,5.25,-32.05));
#794=CARTESIAN_POINT('Origin',(86.8105807439183,4.5,-32.05));
#795=CARTESIAN_POINT('',(74.8105807439183,5.25,-32.05));
#796=CARTESIAN_POINT('Origin',(86.8105807439183,4.5,-32.425));
#797=CARTESIAN_POINT('',(86.8105807439183,2.25,-32.05));
#798=CARTESIAN_POINT('Origin',(74.8105807439183,4.5,-32.425));
#799=CARTESIAN_POINT('',(74.8105807439183,2.25,-32.05));
#800=CARTESIAN_POINT('Origin',(74.8105807439183,4.5,32.05));
#801=CARTESIAN_POINT('',(74.8105807439183,5.25,32.05));
#802=CARTESIAN_POINT('',(74.8105807439183,3.75,32.05));
#803=CARTESIAN_POINT('Origin',(74.8105807439183,4.5,32.05));
#804=CARTESIAN_POINT('',(86.8105807439183,5.25,32.05));
#805=CARTESIAN_POINT('',(74.8105807439183,5.25,32.05));
#806=CARTESIAN_POINT('',(86.8105807439183,3.75,32.05));
#807=CARTESIAN_POINT('Origin',(86.8105807439183,4.5,32.05));
#808=CARTESIAN_POINT('',(74.8105807439183,3.75,32.05));
#809=CARTESIAN_POINT('Origin',(86.8105807439183,4.5,32.425));
#810=CARTESIAN_POINT('',(86.8105807439183,2.25,32.05));
#811=CARTESIAN_POINT('Origin',(74.8105807439183,4.5,32.425));
#812=CARTESIAN_POINT('',(74.8105807439183,2.25,32.05));
#813=CARTESIAN_POINT('Origin',(-10.1894192560817,4.5,32.05));
#814=CARTESIAN_POINT('',(-10.1894192560817,5.25,32.05));
#815=CARTESIAN_POINT('',(-10.1894192560817,3.75,32.05));
#816=CARTESIAN_POINT('Origin',(-10.1894192560817,4.5,32.05));
#817=CARTESIAN_POINT('',(-0.189419256081687,5.25,32.05));
#818=CARTESIAN_POINT('',(-10.1894192560817,5.25,32.05));
#819=CARTESIAN_POINT('',(-0.189419256081687,3.75,32.05));
#820=CARTESIAN_POINT('Origin',(-0.189419256081687,4.5,32.05));
#821=CARTESIAN_POINT('',(-10.1894192560817,3.75,32.05));
#822=CARTESIAN_POINT('Origin',(-0.189419256081687,4.5,32.425));
#823=CARTESIAN_POINT('',(-0.189419256081687,2.25,32.05));
#824=CARTESIAN_POINT('Origin',(-10.1894192560817,4.5,32.425));
#825=CARTESIAN_POINT('',(-10.1894192560817,2.25,32.05));
#826=CARTESIAN_POINT('Origin',(-10.1894192560817,4.5,-32.05));
#827=CARTESIAN_POINT('',(-10.1894192560817,3.75,-32.05));
#828=CARTESIAN_POINT('',(-10.1894192560817,5.25,-32.05));
#829=CARTESIAN_POINT('Origin',(-10.1894192560817,4.5,-32.05));
#830=CARTESIAN_POINT('',(-0.189419256081669,3.75,-32.05));
#831=CARTESIAN_POINT('',(-10.1894192560817,3.75,-32.05));
#832=CARTESIAN_POINT('',(-0.189419256081669,5.25,-32.05));
#833=CARTESIAN_POINT('Origin',(-0.189419256081669,4.5,-32.05));
#834=CARTESIAN_POINT('',(-10.1894192560817,5.25,-32.05));
#835=CARTESIAN_POINT('Origin',(-0.189419256081669,4.5,-32.425));
#836=CARTESIAN_POINT('',(-0.18941925608166,2.25,-32.05));
#837=CARTESIAN_POINT('Origin',(-10.1894192560817,4.5,-32.425));
#838=CARTESIAN_POINT('',(-10.1894192560817,2.25,-32.05));
#839=CARTESIAN_POINT('Origin',(-41.6894192560817,0.,32.05));
#840=CARTESIAN_POINT('',(-40.1894192560817,12.5,32.05));
#841=CARTESIAN_POINT('',(-40.1894192560817,0.,32.05));
#842=CARTESIAN_POINT('',(-40.1894192560817,0.,32.05));
#843=CARTESIAN_POINT('',(116.810580743918,12.5,32.05));
#844=CARTESIAN_POINT('',(-1.68941925608165,12.5,32.05));
#845=CARTESIAN_POINT('',(116.810580743918,0.,32.05));
#846=CARTESIAN_POINT('',(116.810580743918,0.,32.05));
#847=CARTESIAN_POINT('',(-1.68941925608165,0.,32.05));
#848=CARTESIAN_POINT('Origin',(118.310580743918,0.,-32.05));
#849=CARTESIAN_POINT('',(-40.1894192560817,0.,-32.05));
#850=CARTESIAN_POINT('',(-40.1894192560817,12.5,-32.05));
#851=CARTESIAN_POINT('',(-40.1894192560817,0.,-32.05));
#852=CARTESIAN_POINT('',(116.810580743918,0.,-32.05));
#853=CARTESIAN_POINT('',(78.3105807439183,0.,-32.05));
#854=CARTESIAN_POINT('',(116.810580743918,12.5,-32.05));
#855=CARTESIAN_POINT('',(116.810580743918,0.,-32.05));
#856=CARTESIAN_POINT('',(78.3105807439183,12.5,-32.05));
#857=CARTESIAN_POINT('Origin',(-40.1894192560817,0.,-33.55));
#858=CARTESIAN_POINT('',(-40.1894192560817,0.,-16.775));
#859=CARTESIAN_POINT('',(-40.1894192560817,12.5,-16.775));
#860=CARTESIAN_POINT('Origin',(116.810580743918,0.,33.55));
#861=CARTESIAN_POINT('',(116.810580743918,12.5,16.775));
#862=CARTESIAN_POINT('',(116.810580743918,0.,16.775));
#863=CARTESIAN_POINT('Origin',(38.3105807439184,12.5,0.));
#864=CARTESIAN_POINT('Origin',(116.810580743918,12.5,-32.05));
#865=CARTESIAN_POINT('',(118.310580743918,12.5,-32.05));
#866=CARTESIAN_POINT('',(116.810580743918,14.,-32.05));
#867=CARTESIAN_POINT('Origin',(116.810580743918,12.5,-32.05));
#868=CARTESIAN_POINT('',(116.810580743918,12.5,-33.55));
#869=CARTESIAN_POINT('Origin',(116.810580743918,12.5,-32.05));
#870=CARTESIAN_POINT('Origin',(116.810580743918,12.5,-32.05));
#871=CARTESIAN_POINT('Origin',(116.810580743918,0.,-32.05));
#872=CARTESIAN_POINT('',(118.310580743918,0.,-32.05));
#873=CARTESIAN_POINT('',(116.810580743918,0.,-33.55));
#874=CARTESIAN_POINT('Origin',(116.810580743918,0.,-32.05));
#875=CARTESIAN_POINT('',(116.810580743918,0.,-33.55));
#876=CARTESIAN_POINT('',(118.310580743918,0.,-32.05));
#877=CARTESIAN_POINT('Origin',(-40.1894192560817,12.5,-32.05));
#878=CARTESIAN_POINT('',(-40.1894192560817,12.5,-33.55));
#879=CARTESIAN_POINT('',(-40.1894192560817,14.,-32.05));
#880=CARTESIAN_POINT('Origin',(-40.1894192560817,12.5,-32.05));
#881=CARTESIAN_POINT('',(-41.6894192560817,12.5,-32.05));
#882=CARTESIAN_POINT('Origin',(-40.1894192560817,12.5,-32.05));
#883=CARTESIAN_POINT('Origin',(-40.1894192560817,12.5,-32.05));
#884=CARTESIAN_POINT('Origin',(-40.1894192560817,0.,-32.05));
#885=CARTESIAN_POINT('',(-40.1894192560817,0.,-33.55));
#886=CARTESIAN_POINT('',(-41.6894192560817,0.,-32.05));
#887=CARTESIAN_POINT('Origin',(-40.1894192560817,0.,-32.05));
#888=CARTESIAN_POINT('',(-41.6894192560817,0.,-32.05));
#889=CARTESIAN_POINT('',(-40.1894192560817,0.,-33.55));
#890=CARTESIAN_POINT('Origin',(116.810580743918,12.5,32.05));
#891=CARTESIAN_POINT('',(116.810580743918,12.5,33.55));
#892=CARTESIAN_POINT('',(116.810580743918,14.,32.05));
#893=CARTESIAN_POINT('Origin',(116.810580743918,12.5,32.05));
#894=CARTESIAN_POINT('',(118.310580743918,12.5,32.05));
#895=CARTESIAN_POINT('Origin',(116.810580743918,12.5,32.05));
#896=CARTESIAN_POINT('Origin',(116.810580743918,12.5,32.05));
#897=CARTESIAN_POINT('Origin',(116.810580743918,0.,32.05));
#898=CARTESIAN_POINT('',(116.810580743918,0.,33.55));
#899=CARTESIAN_POINT('',(118.310580743918,0.,32.05));
#900=CARTESIAN_POINT('Origin',(116.810580743918,0.,32.05));
#901=CARTESIAN_POINT('',(118.310580743918,0.,32.05));
#902=CARTESIAN_POINT('',(116.810580743918,0.,33.55));
#903=CARTESIAN_POINT('Origin',(116.810580743918,12.5,16.775));
#904=CARTESIAN_POINT('',(116.810580743918,14.,16.775));
#905=CARTESIAN_POINT('',(118.310580743918,12.5,16.775));
#906=CARTESIAN_POINT('Origin',(-40.1894192560817,12.5,32.05));
#907=CARTESIAN_POINT('',(-41.6894192560817,12.5,32.05));
#908=CARTESIAN_POINT('',(-40.1894192560817,14.,32.05));
#909=CARTESIAN_POINT('Origin',(-40.1894192560817,12.5,32.05));
#910=CARTESIAN_POINT('',(-40.1894192560817,12.5,33.55));
#911=CARTESIAN_POINT('Origin',(-40.1894192560817,12.5,32.05));
#912=CARTESIAN_POINT('Origin',(-40.1894192560817,12.5,32.05));
#913=CARTESIAN_POINT('Origin',(-40.1894192560817,0.,32.05));
#914=CARTESIAN_POINT('',(-41.6894192560817,0.,32.05));
#915=CARTESIAN_POINT('',(-40.1894192560817,0.,33.55));
#916=CARTESIAN_POINT('Origin',(-40.1894192560817,0.,32.05));
#917=CARTESIAN_POINT('',(-40.1894192560817,0.,33.55));
#918=CARTESIAN_POINT('',(-41.6894192560817,0.,32.05));
#919=CARTESIAN_POINT('Origin',(-1.68941925608165,12.5,32.05));
#920=CARTESIAN_POINT('',(-1.68941925608165,14.,32.05));
#921=CARTESIAN_POINT('',(-1.68941925608165,12.5,33.55));
#922=CARTESIAN_POINT('Origin',(-40.1894192560817,12.5,-16.775));
#923=CARTESIAN_POINT('',(-40.1894192560817,14.,-16.775));
#924=CARTESIAN_POINT('',(-41.6894192560817,12.5,-16.775));
#925=CARTESIAN_POINT('Origin',(78.3105807439183,12.5,-32.05));
#926=CARTESIAN_POINT('',(78.3105807439183,14.,-32.05));
#927=CARTESIAN_POINT('',(78.3105807439183,12.5,-33.55));
#928=CARTESIAN_POINT('Origin',(118.310580743918,0.,33.55));
#929=CARTESIAN_POINT('',(118.310580743918,0.,-33.55));
#930=CARTESIAN_POINT('Origin',(-41.6894192560817,0.,33.55));
#931=CARTESIAN_POINT('',(118.310580743918,0.,33.55));
#932=CARTESIAN_POINT('Origin',(38.3105807439184,0.,0.));
#933=CARTESIAN_POINT('',(-41.6894192560817,0.,33.55));
#934=CARTESIAN_POINT('',(-41.6894192560817,0.,-33.55));
#935=CARTESIAN_POINT('Origin',(38.3105807439184,14.,0.));
#936=CARTESIAN_POINT('Origin',(-41.6894192560817,0.,-33.55));
#937=CARTESIAN_POINT('Origin',(118.310580743918,0.,-33.55));
#938=UNCERTAINTY_MEASURE_WITH_UNIT(LENGTH_MEASURE(0.01),#942,
'DISTANCE_ACCURACY_VALUE',
'Maximum model space distance between geometric entities at asserted c
onnectivities');
#939=UNCERTAINTY_MEASURE_WITH_UNIT(LENGTH_MEASURE(0.01),#942,
'DISTANCE_ACCURACY_VALUE',
'Maximum model space distance between geometric entities at asserted c
onnectivities');
#940=(
GEOMETRIC_REPRESENTATION_CONTEXT(3)
GLOBAL_UNCERTAINTY_ASSIGNED_CONTEXT((#938))
GLOBAL_UNIT_ASSIGNED_CONTEXT((#942,#944,#945))
REPRESENTATION_CONTEXT('','3D')
);
#941=(
GEOMETRIC_REPRESENTATION_CONTEXT(3)
GLOBAL_UNCERTAINTY_ASSIGNED_CONTEXT((#939))
GLOBAL_UNIT_ASSIGNED_CONTEXT((#942,#944,#945))
REPRESENTATION_CONTEXT('','3D')
);
#942=(
LENGTH_UNIT()
NAMED_UNIT(*)
SI_UNIT(.MILLI.,.METRE.)
);
#943=(
LENGTH_UNIT()
NAMED_UNIT(*)
SI_UNIT($,.METRE.)
);
#944=(
NAMED_UNIT(*)
PLANE_ANGLE_UNIT()
SI_UNIT($,.RADIAN.)
);
#945=(
NAMED_UNIT(*)
SI_UNIT($,.STERADIAN.)
SOLID_ANGLE_UNIT()
);
#946=SHAPE_DEFINITION_REPRESENTATION(#947,#948);
#947=PRODUCT_DEFINITION_SHAPE('',$,#950);
#948=SHAPE_REPRESENTATION('',(#558),#940);
#949=PRODUCT_DEFINITION_CONTEXT('part definition',#954,'design');
#950=PRODUCT_DEFINITION('2026-07-30-20-26-14-629','Lid',#951,#949);
#951=PRODUCT_DEFINITION_FORMATION('',$,#956);
#952=PRODUCT_RELATED_PRODUCT_CATEGORY('Lid','Lid',(#956));
#953=APPLICATION_PROTOCOL_DEFINITION('international standard',
'automotive_design',2009,#954);
#954=APPLICATION_CONTEXT(
'Core Data for Automotive Mechanical Design Process');
#955=PRODUCT_CONTEXT('part definition',#954,'mechanical');
#956=PRODUCT('2026-07-30-20-26-14-629','Lid',$,(#955));
#957=PRESENTATION_STYLE_ASSIGNMENT((#959));
#958=PRESENTATION_STYLE_ASSIGNMENT((#960));
#959=SURFACE_STYLE_USAGE(.BOTH.,#961);
#960=SURFACE_STYLE_USAGE(.BOTH.,#962);
#961=SURFACE_SIDE_STYLE('',(#963));
#962=SURFACE_SIDE_STYLE('',(#964));
#963=SURFACE_STYLE_FILL_AREA(#965);
#964=SURFACE_STYLE_FILL_AREA(#966);
#965=FILL_AREA_STYLE('Steel - Satin',(#967));
#966=FILL_AREA_STYLE('Glass - Window',(#968));
#967=FILL_AREA_STYLE_COLOUR('Steel - Satin',#969);
#968=FILL_AREA_STYLE_COLOUR('Glass - Window',#970);
#969=COLOUR_RGB('Steel - Satin',0.627450980392157,0.627450980392157,0.627450980392157);
#970=COLOUR_RGB('Glass - Window',0.423529411764706,0.768627450980392,0.854901960784314);
ENDSEC;
END-ISO-10303-21;
