ISO-10303-21;
HEADER;
/* Generated by software containing ST-Developer
 * from STEP Tools, Inc. (www.steptools.com) 
 */

FILE_DESCRIPTION(
/* description */ (''),
/* implementation_level */ '2;1');

FILE_NAME(
/* name */ 'Vent Square.step',
/* time_stamp */ '2026-07-30T20:26:29-07:00',
/* author */ (''),
/* organization */ (''),
/* preprocessor_version */ 'ST-DEVELOPER v20.1',
/* originating_system */ 'Autodesk Translation Framework v15.8.0.0',
/* authorisation */ '');

FILE_SCHEMA (('AUTOMOTIVE_DESIGN { 1 0 10303 214 3 1 1 }'));
ENDSEC;

DATA;
#10=MECHANICAL_DESIGN_GEOMETRIC_PRESENTATION_REPRESENTATION('',(#13),#1790);
#11=SHAPE_REPRESENTATION_RELATIONSHIP('SRR','None',#1797,#12);
#12=ADVANCED_BREP_SHAPE_REPRESENTATION('',(#14),#1789);
#13=STYLED_ITEM('',(#1806),#14);
#14=MANIFOLD_SOLID_BREP('Body1',#1142);
#15=FACE_BOUND('',#139,.T.);
#16=FACE_BOUND('',#145,.T.);
#17=FACE_BOUND('',#146,.T.);
#18=FACE_BOUND('',#147,.T.);
#19=FACE_BOUND('',#148,.T.);
#20=FACE_BOUND('',#149,.T.);
#21=FACE_BOUND('',#150,.T.);
#22=FACE_BOUND('',#151,.T.);
#23=FACE_BOUND('',#152,.T.);
#24=FACE_BOUND('',#153,.T.);
#25=FACE_BOUND('',#155,.T.);
#26=FACE_BOUND('',#156,.T.);
#27=FACE_BOUND('',#157,.T.);
#28=FACE_BOUND('',#158,.T.);
#29=FACE_BOUND('',#159,.T.);
#30=FACE_BOUND('',#160,.T.);
#31=FACE_BOUND('',#161,.T.);
#32=FACE_BOUND('',#162,.T.);
#33=FACE_BOUND('',#163,.T.);
#34=FACE_BOUND('',#164,.T.);
#35=FACE_OUTER_BOUND('',#90,.T.);
#36=FACE_OUTER_BOUND('',#91,.T.);
#37=FACE_OUTER_BOUND('',#92,.T.);
#38=FACE_OUTER_BOUND('',#93,.T.);
#39=FACE_OUTER_BOUND('',#94,.T.);
#40=FACE_OUTER_BOUND('',#95,.T.);
#41=FACE_OUTER_BOUND('',#96,.T.);
#42=FACE_OUTER_BOUND('',#97,.T.);
#43=FACE_OUTER_BOUND('',#98,.T.);
#44=FACE_OUTER_BOUND('',#99,.T.);
#45=FACE_OUTER_BOUND('',#100,.T.);
#46=FACE_OUTER_BOUND('',#101,.T.);
#47=FACE_OUTER_BOUND('',#102,.T.);
#48=FACE_OUTER_BOUND('',#103,.T.);
#49=FACE_OUTER_BOUND('',#104,.T.);
#50=FACE_OUTER_BOUND('',#105,.T.);
#51=FACE_OUTER_BOUND('',#106,.T.);
#52=FACE_OUTER_BOUND('',#107,.T.);
#53=FACE_OUTER_BOUND('',#108,.T.);
#54=FACE_OUTER_BOUND('',#109,.T.);
#55=FACE_OUTER_BOUND('',#110,.T.);
#56=FACE_OUTER_BOUND('',#111,.T.);
#57=FACE_OUTER_BOUND('',#112,.T.);
#58=FACE_OUTER_BOUND('',#113,.T.);
#59=FACE_OUTER_BOUND('',#114,.T.);
#60=FACE_OUTER_BOUND('',#115,.T.);
#61=FACE_OUTER_BOUND('',#116,.T.);
#62=FACE_OUTER_BOUND('',#117,.T.);
#63=FACE_OUTER_BOUND('',#118,.T.);
#64=FACE_OUTER_BOUND('',#119,.T.);
#65=FACE_OUTER_BOUND('',#120,.T.);
#66=FACE_OUTER_BOUND('',#121,.T.);
#67=FACE_OUTER_BOUND('',#122,.T.);
#68=FACE_OUTER_BOUND('',#123,.T.);
#69=FACE_OUTER_BOUND('',#124,.T.);
#70=FACE_OUTER_BOUND('',#125,.T.);
#71=FACE_OUTER_BOUND('',#126,.T.);
#72=FACE_OUTER_BOUND('',#127,.T.);
#73=FACE_OUTER_BOUND('',#128,.T.);
#74=FACE_OUTER_BOUND('',#129,.T.);
#75=FACE_OUTER_BOUND('',#130,.T.);
#76=FACE_OUTER_BOUND('',#131,.T.);
#77=FACE_OUTER_BOUND('',#132,.T.);
#78=FACE_OUTER_BOUND('',#133,.T.);
#79=FACE_OUTER_BOUND('',#134,.T.);
#80=FACE_OUTER_BOUND('',#135,.T.);
#81=FACE_OUTER_BOUND('',#136,.T.);
#82=FACE_OUTER_BOUND('',#137,.T.);
#83=FACE_OUTER_BOUND('',#138,.T.);
#84=FACE_OUTER_BOUND('',#140,.T.);
#85=FACE_OUTER_BOUND('',#141,.T.);
#86=FACE_OUTER_BOUND('',#142,.T.);
#87=FACE_OUTER_BOUND('',#143,.T.);
#88=FACE_OUTER_BOUND('',#144,.T.);
#89=FACE_OUTER_BOUND('',#154,.T.);
#90=EDGE_LOOP('',(#726,#727,#728));
#91=EDGE_LOOP('',(#729,#730,#731,#732));
#92=EDGE_LOOP('',(#733,#734,#735,#736));
#93=EDGE_LOOP('',(#737,#738,#739,#740));
#94=EDGE_LOOP('',(#741,#742,#743));
#95=EDGE_LOOP('',(#744,#745,#746,#747,#748,#749,#750,#751));
#96=EDGE_LOOP('',(#752,#753,#754,#755,#756));
#97=EDGE_LOOP('',(#757,#758,#759));
#98=EDGE_LOOP('',(#760,#761,#762,#763));
#99=EDGE_LOOP('',(#764,#765,#766,#767));
#100=EDGE_LOOP('',(#768,#769,#770,#771,#772));
#101=EDGE_LOOP('',(#773,#774,#775));
#102=EDGE_LOOP('',(#776,#777,#778,#779));
#103=EDGE_LOOP('',(#780,#781,#782,#783));
#104=EDGE_LOOP('',(#784,#785,#786,#787));
#105=EDGE_LOOP('',(#788,#789,#790,#791));
#106=EDGE_LOOP('',(#792,#793,#794,#795));
#107=EDGE_LOOP('',(#796,#797,#798,#799));
#108=EDGE_LOOP('',(#800,#801,#802,#803));
#109=EDGE_LOOP('',(#804,#805,#806,#807));
#110=EDGE_LOOP('',(#808,#809,#810,#811));
#111=EDGE_LOOP('',(#812,#813,#814,#815));
#112=EDGE_LOOP('',(#816,#817,#818,#819));
#113=EDGE_LOOP('',(#820,#821,#822,#823));
#114=EDGE_LOOP('',(#824,#825,#826,#827));
#115=EDGE_LOOP('',(#828,#829,#830,#831));
#116=EDGE_LOOP('',(#832,#833,#834,#835));
#117=EDGE_LOOP('',(#836,#837,#838,#839));
#118=EDGE_LOOP('',(#840,#841,#842,#843));
#119=EDGE_LOOP('',(#844,#845,#846,#847));
#120=EDGE_LOOP('',(#848,#849,#850,#851));
#121=EDGE_LOOP('',(#852,#853,#854,#855));
#122=EDGE_LOOP('',(#856,#857,#858,#859));
#123=EDGE_LOOP('',(#860,#861,#862,#863));
#124=EDGE_LOOP('',(#864,#865,#866,#867));
#125=EDGE_LOOP('',(#868,#869,#870,#871));
#126=EDGE_LOOP('',(#872,#873,#874,#875));
#127=EDGE_LOOP('',(#876,#877,#878,#879));
#128=EDGE_LOOP('',(#880,#881,#882,#883));
#129=EDGE_LOOP('',(#884,#885,#886,#887));
#130=EDGE_LOOP('',(#888,#889,#890,#891));
#131=EDGE_LOOP('',(#892,#893,#894,#895));
#132=EDGE_LOOP('',(#896,#897,#898,#899));
#133=EDGE_LOOP('',(#900,#901,#902,#903));
#134=EDGE_LOOP('',(#904,#905,#906,#907));
#135=EDGE_LOOP('',(#908,#909,#910,#911));
#136=EDGE_LOOP('',(#912,#913,#914,#915));
#137=EDGE_LOOP('',(#916,#917,#918,#919));
#138=EDGE_LOOP('',(#920,#921,#922,#923));
#139=EDGE_LOOP('',(#924,#925,#926,#927));
#140=EDGE_LOOP('',(#928,#929,#930,#931));
#141=EDGE_LOOP('',(#932,#933,#934,#935));
#142=EDGE_LOOP('',(#936,#937,#938,#939));
#143=EDGE_LOOP('',(#940,#941,#942,#943));
#144=EDGE_LOOP('',(#944,#945,#946,#947,#948,#949,#950,#951));
#145=EDGE_LOOP('',(#952,#953,#954,#955));
#146=EDGE_LOOP('',(#956,#957,#958,#959));
#147=EDGE_LOOP('',(#960,#961,#962,#963));
#148=EDGE_LOOP('',(#964,#965,#966,#967));
#149=EDGE_LOOP('',(#968,#969,#970,#971));
#150=EDGE_LOOP('',(#972,#973,#974,#975));
#151=EDGE_LOOP('',(#976,#977,#978,#979));
#152=EDGE_LOOP('',(#980,#981,#982,#983));
#153=EDGE_LOOP('',(#984,#985,#986,#987));
#154=EDGE_LOOP('',(#988,#989,#990,#991));
#155=EDGE_LOOP('',(#992,#993,#994,#995));
#156=EDGE_LOOP('',(#996,#997,#998,#999));
#157=EDGE_LOOP('',(#1000,#1001,#1002,#1003));
#158=EDGE_LOOP('',(#1004,#1005,#1006,#1007));
#159=EDGE_LOOP('',(#1008,#1009,#1010,#1011));
#160=EDGE_LOOP('',(#1012,#1013,#1014,#1015));
#161=EDGE_LOOP('',(#1016,#1017,#1018,#1019));
#162=EDGE_LOOP('',(#1020,#1021,#1022,#1023));
#163=EDGE_LOOP('',(#1024,#1025,#1026,#1027));
#164=EDGE_LOOP('',(#1028,#1029,#1030,#1031));
#165=LINE('',#1480,#318);
#166=LINE('',#1482,#319);
#167=LINE('',#1483,#320);
#168=LINE('',#1487,#321);
#169=LINE('',#1489,#322);
#170=LINE('',#1491,#323);
#171=LINE('',#1492,#324);
#172=LINE('',#1496,#325);
#173=LINE('',#1498,#326);
#174=LINE('',#1500,#327);
#175=LINE('',#1501,#328);
#176=LINE('',#1504,#329);
#177=LINE('',#1506,#330);
#178=LINE('',#1507,#331);
#179=LINE('',#1510,#332);
#180=LINE('',#1511,#333);
#181=LINE('',#1514,#334);
#182=LINE('',#1516,#335);
#183=LINE('',#1518,#336);
#184=LINE('',#1520,#337);
#185=LINE('',#1521,#338);
#186=LINE('',#1524,#339);
#187=LINE('',#1526,#340);
#188=LINE('',#1528,#341);
#189=LINE('',#1529,#342);
#190=LINE('',#1532,#343);
#191=LINE('',#1533,#344);
#192=LINE('',#1536,#345);
#193=LINE('',#1537,#346);
#194=LINE('',#1540,#347);
#195=LINE('',#1541,#348);
#196=LINE('',#1544,#349);
#197=LINE('',#1546,#350);
#198=LINE('',#1547,#351);
#199=LINE('',#1549,#352);
#200=LINE('',#1553,#353);
#201=LINE('',#1555,#354);
#202=LINE('',#1557,#355);
#203=LINE('',#1558,#356);
#204=LINE('',#1562,#357);
#205=LINE('',#1564,#358);
#206=LINE('',#1566,#359);
#207=LINE('',#1567,#360);
#208=LINE('',#1570,#361);
#209=LINE('',#1572,#362);
#210=LINE('',#1573,#363);
#211=LINE('',#1576,#364);
#212=LINE('',#1578,#365);
#213=LINE('',#1579,#366);
#214=LINE('',#1582,#367);
#215=LINE('',#1584,#368);
#216=LINE('',#1585,#369);
#217=LINE('',#1588,#370);
#218=LINE('',#1590,#371);
#219=LINE('',#1591,#372);
#220=LINE('',#1595,#373);
#221=LINE('',#1597,#374);
#222=LINE('',#1599,#375);
#223=LINE('',#1600,#376);
#224=LINE('',#1602,#377);
#225=LINE('',#1603,#378);
#226=LINE('',#1606,#379);
#227=LINE('',#1608,#380);
#228=LINE('',#1609,#381);
#229=LINE('',#1612,#382);
#230=LINE('',#1614,#383);
#231=LINE('',#1615,#384);
#232=LINE('',#1619,#385);
#233=LINE('',#1621,#386);
#234=LINE('',#1623,#387);
#235=LINE('',#1624,#388);
#236=LINE('',#1626,#389);
#237=LINE('',#1627,#390);
#238=LINE('',#1630,#391);
#239=LINE('',#1632,#392);
#240=LINE('',#1633,#393);
#241=LINE('',#1636,#394);
#242=LINE('',#1638,#395);
#243=LINE('',#1639,#396);
#244=LINE('',#1643,#397);
#245=LINE('',#1645,#398);
#246=LINE('',#1647,#399);
#247=LINE('',#1648,#400);
#248=LINE('',#1652,#401);
#249=LINE('',#1654,#402);
#250=LINE('',#1656,#403);
#251=LINE('',#1657,#404);
#252=LINE('',#1660,#405);
#253=LINE('',#1662,#406);
#254=LINE('',#1663,#407);
#255=LINE('',#1666,#408);
#256=LINE('',#1668,#409);
#257=LINE('',#1669,#410);
#258=LINE('',#1672,#411);
#259=LINE('',#1674,#412);
#260=LINE('',#1675,#413);
#261=LINE('',#1678,#414);
#262=LINE('',#1680,#415);
#263=LINE('',#1681,#416);
#264=LINE('',#1685,#417);
#265=LINE('',#1687,#418);
#266=LINE('',#1689,#419);
#267=LINE('',#1690,#420);
#268=LINE('',#1694,#421);
#269=LINE('',#1696,#422);
#270=LINE('',#1698,#423);
#271=LINE('',#1699,#424);
#272=LINE('',#1702,#425);
#273=LINE('',#1704,#426);
#274=LINE('',#1705,#427);
#275=LINE('',#1708,#428);
#276=LINE('',#1710,#429);
#277=LINE('',#1711,#430);
#278=LINE('',#1714,#431);
#279=LINE('',#1716,#432);
#280=LINE('',#1717,#433);
#281=LINE('',#1720,#434);
#282=LINE('',#1722,#435);
#283=LINE('',#1723,#436);
#284=LINE('',#1725,#437);
#285=LINE('',#1726,#438);
#286=LINE('',#1728,#439);
#287=LINE('',#1729,#440);
#288=LINE('',#1731,#441);
#289=LINE('',#1732,#442);
#290=LINE('',#1734,#443);
#291=LINE('',#1735,#444);
#292=LINE('',#1737,#445);
#293=LINE('',#1738,#446);
#294=LINE('',#1740,#447);
#295=LINE('',#1741,#448);
#296=LINE('',#1745,#449);
#297=LINE('',#1747,#450);
#298=LINE('',#1749,#451);
#299=LINE('',#1750,#452);
#300=LINE('',#1753,#453);
#301=LINE('',#1755,#454);
#302=LINE('',#1756,#455);
#303=LINE('',#1759,#456);
#304=LINE('',#1761,#457);
#305=LINE('',#1762,#458);
#306=LINE('',#1764,#459);
#307=LINE('',#1765,#460);
#308=LINE('',#1768,#461);
#309=LINE('',#1770,#462);
#310=LINE('',#1771,#463);
#311=LINE('',#1774,#464);
#312=LINE('',#1776,#465);
#313=LINE('',#1777,#466);
#314=LINE('',#1779,#467);
#315=LINE('',#1781,#468);
#316=LINE('',#1782,#469);
#317=LINE('',#1784,#470);
#318=VECTOR('',#1215,10.);
#319=VECTOR('',#1216,10.);
#320=VECTOR('',#1217,10.);
#321=VECTOR('',#1220,10.);
#322=VECTOR('',#1221,10.);
#323=VECTOR('',#1222,10.);
#324=VECTOR('',#1223,10.);
#325=VECTOR('',#1226,10.);
#326=VECTOR('',#1227,10.);
#327=VECTOR('',#1228,10.);
#328=VECTOR('',#1229,10.);
#329=VECTOR('',#1232,10.);
#330=VECTOR('',#1233,10.);
#331=VECTOR('',#1234,10.);
#332=VECTOR('',#1237,10.);
#333=VECTOR('',#1238,10.);
#334=VECTOR('',#1241,10.);
#335=VECTOR('',#1242,10.);
#336=VECTOR('',#1243,10.);
#337=VECTOR('',#1244,10.);
#338=VECTOR('',#1245,10.);
#339=VECTOR('',#1248,10.);
#340=VECTOR('',#1249,10.);
#341=VECTOR('',#1250,10.);
#342=VECTOR('',#1251,10.);
#343=VECTOR('',#1254,10.);
#344=VECTOR('',#1255,10.);
#345=VECTOR('',#1258,10.);
#346=VECTOR('',#1259,10.);
#347=VECTOR('',#1262,10.);
#348=VECTOR('',#1263,10.);
#349=VECTOR('',#1266,10.);
#350=VECTOR('',#1267,10.);
#351=VECTOR('',#1268,10.);
#352=VECTOR('',#1271,10.);
#353=VECTOR('',#1274,10.);
#354=VECTOR('',#1275,10.);
#355=VECTOR('',#1276,10.);
#356=VECTOR('',#1277,10.);
#357=VECTOR('',#1280,10.);
#358=VECTOR('',#1281,10.);
#359=VECTOR('',#1282,10.);
#360=VECTOR('',#1283,10.);
#361=VECTOR('',#1286,10.);
#362=VECTOR('',#1287,10.);
#363=VECTOR('',#1288,10.);
#364=VECTOR('',#1291,10.);
#365=VECTOR('',#1292,10.);
#366=VECTOR('',#1293,10.);
#367=VECTOR('',#1296,10.);
#368=VECTOR('',#1297,10.);
#369=VECTOR('',#1298,10.);
#370=VECTOR('',#1301,10.);
#371=VECTOR('',#1302,10.);
#372=VECTOR('',#1303,10.);
#373=VECTOR('',#1306,10.);
#374=VECTOR('',#1307,10.);
#375=VECTOR('',#1308,10.);
#376=VECTOR('',#1309,10.);
#377=VECTOR('',#1312,10.);
#378=VECTOR('',#1313,10.);
#379=VECTOR('',#1316,10.);
#380=VECTOR('',#1317,10.);
#381=VECTOR('',#1318,10.);
#382=VECTOR('',#1321,10.);
#383=VECTOR('',#1322,10.);
#384=VECTOR('',#1323,10.);
#385=VECTOR('',#1326,10.);
#386=VECTOR('',#1327,10.);
#387=VECTOR('',#1328,10.);
#388=VECTOR('',#1329,10.);
#389=VECTOR('',#1332,10.);
#390=VECTOR('',#1333,10.);
#391=VECTOR('',#1336,10.);
#392=VECTOR('',#1337,10.);
#393=VECTOR('',#1338,10.);
#394=VECTOR('',#1341,10.);
#395=VECTOR('',#1342,10.);
#396=VECTOR('',#1343,10.);
#397=VECTOR('',#1346,10.);
#398=VECTOR('',#1347,10.);
#399=VECTOR('',#1348,10.);
#400=VECTOR('',#1349,10.);
#401=VECTOR('',#1352,10.);
#402=VECTOR('',#1353,10.);
#403=VECTOR('',#1354,10.);
#404=VECTOR('',#1355,10.);
#405=VECTOR('',#1358,10.);
#406=VECTOR('',#1359,10.);
#407=VECTOR('',#1360,10.);
#408=VECTOR('',#1363,10.);
#409=VECTOR('',#1364,10.);
#410=VECTOR('',#1365,10.);
#411=VECTOR('',#1368,10.);
#412=VECTOR('',#1369,10.);
#413=VECTOR('',#1370,10.);
#414=VECTOR('',#1373,10.);
#415=VECTOR('',#1374,10.);
#416=VECTOR('',#1375,10.);
#417=VECTOR('',#1378,10.);
#418=VECTOR('',#1379,10.);
#419=VECTOR('',#1380,10.);
#420=VECTOR('',#1381,10.);
#421=VECTOR('',#1384,10.);
#422=VECTOR('',#1385,10.);
#423=VECTOR('',#1386,10.);
#424=VECTOR('',#1387,10.);
#425=VECTOR('',#1390,10.);
#426=VECTOR('',#1391,10.);
#427=VECTOR('',#1392,10.);
#428=VECTOR('',#1395,10.);
#429=VECTOR('',#1396,10.);
#430=VECTOR('',#1397,10.);
#431=VECTOR('',#1400,10.);
#432=VECTOR('',#1401,10.);
#433=VECTOR('',#1402,10.);
#434=VECTOR('',#1405,10.);
#435=VECTOR('',#1406,10.);
#436=VECTOR('',#1407,10.);
#437=VECTOR('',#1410,10.);
#438=VECTOR('',#1411,10.);
#439=VECTOR('',#1414,10.);
#440=VECTOR('',#1415,10.);
#441=VECTOR('',#1418,10.);
#442=VECTOR('',#1419,10.);
#443=VECTOR('',#1422,10.);
#444=VECTOR('',#1423,10.);
#445=VECTOR('',#1426,10.);
#446=VECTOR('',#1427,10.);
#447=VECTOR('',#1430,10.);
#448=VECTOR('',#1431,10.);
#449=VECTOR('',#1434,10.);
#450=VECTOR('',#1435,10.);
#451=VECTOR('',#1436,10.);
#452=VECTOR('',#1437,10.);
#453=VECTOR('',#1440,10.);
#454=VECTOR('',#1441,10.);
#455=VECTOR('',#1442,10.);
#456=VECTOR('',#1445,10.);
#457=VECTOR('',#1446,10.);
#458=VECTOR('',#1447,10.);
#459=VECTOR('',#1450,10.);
#460=VECTOR('',#1451,10.);
#461=VECTOR('',#1454,10.);
#462=VECTOR('',#1455,10.);
#463=VECTOR('',#1456,10.);
#464=VECTOR('',#1459,10.);
#465=VECTOR('',#1460,10.);
#466=VECTOR('',#1461,10.);
#467=VECTOR('',#1464,10.);
#468=VECTOR('',#1467,10.);
#469=VECTOR('',#1468,10.);
#470=VECTOR('',#1471,10.);
#471=VERTEX_POINT('',#1478);
#472=VERTEX_POINT('',#1479);
#473=VERTEX_POINT('',#1481);
#474=VERTEX_POINT('',#1485);
#475=VERTEX_POINT('',#1486);
#476=VERTEX_POINT('',#1488);
#477=VERTEX_POINT('',#1490);
#478=VERTEX_POINT('',#1494);
#479=VERTEX_POINT('',#1495);
#480=VERTEX_POINT('',#1497);
#481=VERTEX_POINT('',#1499);
#482=VERTEX_POINT('',#1503);
#483=VERTEX_POINT('',#1505);
#484=VERTEX_POINT('',#1509);
#485=VERTEX_POINT('',#1513);
#486=VERTEX_POINT('',#1515);
#487=VERTEX_POINT('',#1517);
#488=VERTEX_POINT('',#1519);
#489=VERTEX_POINT('',#1523);
#490=VERTEX_POINT('',#1525);
#491=VERTEX_POINT('',#1527);
#492=VERTEX_POINT('',#1531);
#493=VERTEX_POINT('',#1535);
#494=VERTEX_POINT('',#1539);
#495=VERTEX_POINT('',#1543);
#496=VERTEX_POINT('',#1545);
#497=VERTEX_POINT('',#1551);
#498=VERTEX_POINT('',#1552);
#499=VERTEX_POINT('',#1554);
#500=VERTEX_POINT('',#1556);
#501=VERTEX_POINT('',#1560);
#502=VERTEX_POINT('',#1561);
#503=VERTEX_POINT('',#1563);
#504=VERTEX_POINT('',#1565);
#505=VERTEX_POINT('',#1569);
#506=VERTEX_POINT('',#1571);
#507=VERTEX_POINT('',#1575);
#508=VERTEX_POINT('',#1577);
#509=VERTEX_POINT('',#1581);
#510=VERTEX_POINT('',#1583);
#511=VERTEX_POINT('',#1587);
#512=VERTEX_POINT('',#1589);
#513=VERTEX_POINT('',#1593);
#514=VERTEX_POINT('',#1594);
#515=VERTEX_POINT('',#1596);
#516=VERTEX_POINT('',#1598);
#517=VERTEX_POINT('',#1605);
#518=VERTEX_POINT('',#1607);
#519=VERTEX_POINT('',#1611);
#520=VERTEX_POINT('',#1613);
#521=VERTEX_POINT('',#1617);
#522=VERTEX_POINT('',#1618);
#523=VERTEX_POINT('',#1620);
#524=VERTEX_POINT('',#1622);
#525=VERTEX_POINT('',#1629);
#526=VERTEX_POINT('',#1631);
#527=VERTEX_POINT('',#1635);
#528=VERTEX_POINT('',#1637);
#529=VERTEX_POINT('',#1641);
#530=VERTEX_POINT('',#1642);
#531=VERTEX_POINT('',#1644);
#532=VERTEX_POINT('',#1646);
#533=VERTEX_POINT('',#1650);
#534=VERTEX_POINT('',#1651);
#535=VERTEX_POINT('',#1653);
#536=VERTEX_POINT('',#1655);
#537=VERTEX_POINT('',#1659);
#538=VERTEX_POINT('',#1661);
#539=VERTEX_POINT('',#1665);
#540=VERTEX_POINT('',#1667);
#541=VERTEX_POINT('',#1671);
#542=VERTEX_POINT('',#1673);
#543=VERTEX_POINT('',#1677);
#544=VERTEX_POINT('',#1679);
#545=VERTEX_POINT('',#1683);
#546=VERTEX_POINT('',#1684);
#547=VERTEX_POINT('',#1686);
#548=VERTEX_POINT('',#1688);
#549=VERTEX_POINT('',#1692);
#550=VERTEX_POINT('',#1693);
#551=VERTEX_POINT('',#1695);
#552=VERTEX_POINT('',#1697);
#553=VERTEX_POINT('',#1701);
#554=VERTEX_POINT('',#1703);
#555=VERTEX_POINT('',#1707);
#556=VERTEX_POINT('',#1709);
#557=VERTEX_POINT('',#1713);
#558=VERTEX_POINT('',#1715);
#559=VERTEX_POINT('',#1719);
#560=VERTEX_POINT('',#1721);
#561=VERTEX_POINT('',#1743);
#562=VERTEX_POINT('',#1744);
#563=VERTEX_POINT('',#1746);
#564=VERTEX_POINT('',#1748);
#565=VERTEX_POINT('',#1752);
#566=VERTEX_POINT('',#1754);
#567=VERTEX_POINT('',#1758);
#568=VERTEX_POINT('',#1760);
#569=VERTEX_POINT('',#1767);
#570=VERTEX_POINT('',#1769);
#571=VERTEX_POINT('',#1773);
#572=VERTEX_POINT('',#1775);
#573=EDGE_CURVE('',#471,#472,#165,.T.);
#574=EDGE_CURVE('',#471,#473,#166,.T.);
#575=EDGE_CURVE('',#473,#472,#167,.T.);
#576=EDGE_CURVE('',#474,#475,#168,.T.);
#577=EDGE_CURVE('',#476,#474,#169,.T.);
#578=EDGE_CURVE('',#476,#477,#170,.T.);
#579=EDGE_CURVE('',#475,#477,#171,.T.);
#580=EDGE_CURVE('',#478,#479,#172,.T.);
#581=EDGE_CURVE('',#480,#478,#173,.T.);
#582=EDGE_CURVE('',#480,#481,#174,.T.);
#583=EDGE_CURVE('',#479,#481,#175,.T.);
#584=EDGE_CURVE('',#482,#471,#176,.T.);
#585=EDGE_CURVE('',#483,#482,#177,.T.);
#586=EDGE_CURVE('',#483,#473,#178,.T.);
#587=EDGE_CURVE('',#484,#482,#179,.T.);
#588=EDGE_CURVE('',#484,#483,#180,.T.);
#589=EDGE_CURVE('',#485,#472,#181,.T.);
#590=EDGE_CURVE('',#486,#485,#182,.T.);
#591=EDGE_CURVE('',#486,#487,#183,.T.);
#592=EDGE_CURVE('',#487,#488,#184,.T.);
#593=EDGE_CURVE('',#484,#488,#185,.T.);
#594=EDGE_CURVE('',#481,#489,#186,.T.);
#595=EDGE_CURVE('',#489,#490,#187,.T.);
#596=EDGE_CURVE('',#491,#490,#188,.T.);
#597=EDGE_CURVE('',#479,#491,#189,.T.);
#598=EDGE_CURVE('',#492,#474,#190,.T.);
#599=EDGE_CURVE('',#492,#476,#191,.T.);
#600=EDGE_CURVE('',#493,#491,#192,.T.);
#601=EDGE_CURVE('',#478,#493,#193,.T.);
#602=EDGE_CURVE('',#494,#475,#194,.T.);
#603=EDGE_CURVE('',#494,#492,#195,.T.);
#604=EDGE_CURVE('',#495,#493,#196,.T.);
#605=EDGE_CURVE('',#495,#496,#197,.T.);
#606=EDGE_CURVE('',#496,#480,#198,.T.);
#607=EDGE_CURVE('',#477,#494,#199,.T.);
#608=EDGE_CURVE('',#497,#498,#200,.T.);
#609=EDGE_CURVE('',#497,#499,#201,.T.);
#610=EDGE_CURVE('',#500,#499,#202,.T.);
#611=EDGE_CURVE('',#500,#498,#203,.T.);
#612=EDGE_CURVE('',#501,#502,#204,.T.);
#613=EDGE_CURVE('',#501,#503,#205,.T.);
#614=EDGE_CURVE('',#504,#503,#206,.T.);
#615=EDGE_CURVE('',#502,#504,#207,.T.);
#616=EDGE_CURVE('',#505,#503,#208,.T.);
#617=EDGE_CURVE('',#505,#506,#209,.T.);
#618=EDGE_CURVE('',#506,#504,#210,.T.);
#619=EDGE_CURVE('',#499,#507,#211,.T.);
#620=EDGE_CURVE('',#507,#508,#212,.T.);
#621=EDGE_CURVE('',#500,#508,#213,.T.);
#622=EDGE_CURVE('',#509,#498,#214,.T.);
#623=EDGE_CURVE('',#510,#509,#215,.T.);
#624=EDGE_CURVE('',#510,#497,#216,.T.);
#625=EDGE_CURVE('',#502,#511,#217,.T.);
#626=EDGE_CURVE('',#511,#512,#218,.T.);
#627=EDGE_CURVE('',#501,#512,#219,.T.);
#628=EDGE_CURVE('',#513,#514,#220,.T.);
#629=EDGE_CURVE('',#513,#515,#221,.T.);
#630=EDGE_CURVE('',#516,#515,#222,.T.);
#631=EDGE_CURVE('',#516,#514,#223,.T.);
#632=EDGE_CURVE('',#495,#490,#224,.T.);
#633=EDGE_CURVE('',#496,#489,#225,.T.);
#634=EDGE_CURVE('',#515,#517,#226,.T.);
#635=EDGE_CURVE('',#517,#518,#227,.T.);
#636=EDGE_CURVE('',#516,#518,#228,.T.);
#637=EDGE_CURVE('',#519,#514,#229,.T.);
#638=EDGE_CURVE('',#519,#520,#230,.T.);
#639=EDGE_CURVE('',#520,#513,#231,.T.);
#640=EDGE_CURVE('',#521,#522,#232,.T.);
#641=EDGE_CURVE('',#521,#523,#233,.T.);
#642=EDGE_CURVE('',#524,#523,#234,.T.);
#643=EDGE_CURVE('',#524,#522,#235,.T.);
#644=EDGE_CURVE('',#519,#518,#236,.T.);
#645=EDGE_CURVE('',#520,#517,#237,.T.);
#646=EDGE_CURVE('',#523,#525,#238,.T.);
#647=EDGE_CURVE('',#525,#526,#239,.T.);
#648=EDGE_CURVE('',#524,#526,#240,.T.);
#649=EDGE_CURVE('',#527,#522,#241,.T.);
#650=EDGE_CURVE('',#527,#528,#242,.T.);
#651=EDGE_CURVE('',#528,#521,#243,.T.);
#652=EDGE_CURVE('',#529,#530,#244,.T.);
#653=EDGE_CURVE('',#529,#531,#245,.T.);
#654=EDGE_CURVE('',#532,#531,#246,.T.);
#655=EDGE_CURVE('',#532,#530,#247,.T.);
#656=EDGE_CURVE('',#533,#534,#248,.T.);
#657=EDGE_CURVE('',#533,#535,#249,.T.);
#658=EDGE_CURVE('',#536,#535,#250,.T.);
#659=EDGE_CURVE('',#534,#536,#251,.T.);
#660=EDGE_CURVE('',#537,#535,#252,.T.);
#661=EDGE_CURVE('',#537,#538,#253,.T.);
#662=EDGE_CURVE('',#538,#536,#254,.T.);
#663=EDGE_CURVE('',#531,#539,#255,.T.);
#664=EDGE_CURVE('',#539,#540,#256,.T.);
#665=EDGE_CURVE('',#532,#540,#257,.T.);
#666=EDGE_CURVE('',#541,#530,#258,.T.);
#667=EDGE_CURVE('',#541,#542,#259,.T.);
#668=EDGE_CURVE('',#542,#529,#260,.T.);
#669=EDGE_CURVE('',#534,#543,#261,.T.);
#670=EDGE_CURVE('',#543,#544,#262,.T.);
#671=EDGE_CURVE('',#533,#544,#263,.T.);
#672=EDGE_CURVE('',#545,#546,#264,.T.);
#673=EDGE_CURVE('',#545,#547,#265,.T.);
#674=EDGE_CURVE('',#548,#547,#266,.T.);
#675=EDGE_CURVE('',#548,#546,#267,.T.);
#676=EDGE_CURVE('',#549,#550,#268,.T.);
#677=EDGE_CURVE('',#549,#551,#269,.T.);
#678=EDGE_CURVE('',#552,#551,#270,.T.);
#679=EDGE_CURVE('',#550,#552,#271,.T.);
#680=EDGE_CURVE('',#553,#547,#272,.T.);
#681=EDGE_CURVE('',#553,#554,#273,.T.);
#682=EDGE_CURVE('',#554,#548,#274,.T.);
#683=EDGE_CURVE('',#551,#555,#275,.T.);
#684=EDGE_CURVE('',#555,#556,#276,.T.);
#685=EDGE_CURVE('',#552,#556,#277,.T.);
#686=EDGE_CURVE('',#546,#557,#278,.T.);
#687=EDGE_CURVE('',#557,#558,#279,.T.);
#688=EDGE_CURVE('',#545,#558,#280,.T.);
#689=EDGE_CURVE('',#559,#550,#281,.T.);
#690=EDGE_CURVE('',#559,#560,#282,.T.);
#691=EDGE_CURVE('',#560,#549,#283,.T.);
#692=EDGE_CURVE('',#511,#506,#284,.T.);
#693=EDGE_CURVE('',#505,#512,#285,.T.);
#694=EDGE_CURVE('',#541,#540,#286,.T.);
#695=EDGE_CURVE('',#542,#539,#287,.T.);
#696=EDGE_CURVE('',#543,#538,#288,.T.);
#697=EDGE_CURVE('',#537,#544,#289,.T.);
#698=EDGE_CURVE('',#559,#556,#290,.T.);
#699=EDGE_CURVE('',#560,#555,#291,.T.);
#700=EDGE_CURVE('',#557,#554,#292,.T.);
#701=EDGE_CURVE('',#553,#558,#293,.T.);
#702=EDGE_CURVE('',#527,#526,#294,.T.);
#703=EDGE_CURVE('',#528,#525,#295,.T.);
#704=EDGE_CURVE('',#561,#562,#296,.T.);
#705=EDGE_CURVE('',#561,#563,#297,.T.);
#706=EDGE_CURVE('',#564,#563,#298,.T.);
#707=EDGE_CURVE('',#562,#564,#299,.T.);
#708=EDGE_CURVE('',#562,#565,#300,.T.);
#709=EDGE_CURVE('',#566,#564,#301,.T.);
#710=EDGE_CURVE('',#565,#566,#302,.T.);
#711=EDGE_CURVE('',#565,#567,#303,.T.);
#712=EDGE_CURVE('',#568,#566,#304,.T.);
#713=EDGE_CURVE('',#567,#568,#305,.T.);
#714=EDGE_CURVE('',#567,#561,#306,.T.);
#715=EDGE_CURVE('',#563,#568,#307,.T.);
#716=EDGE_CURVE('',#569,#486,#308,.T.);
#717=EDGE_CURVE('',#570,#569,#309,.T.);
#718=EDGE_CURVE('',#487,#570,#310,.T.);
#719=EDGE_CURVE('',#569,#571,#311,.T.);
#720=EDGE_CURVE('',#572,#571,#312,.T.);
#721=EDGE_CURVE('',#570,#572,#313,.T.);
#722=EDGE_CURVE('',#571,#485,#314,.T.);
#723=EDGE_CURVE('',#507,#510,#315,.T.);
#724=EDGE_CURVE('',#508,#509,#316,.T.);
#725=EDGE_CURVE('',#488,#572,#317,.T.);
#726=ORIENTED_EDGE('',*,*,#573,.F.);
#727=ORIENTED_EDGE('',*,*,#574,.T.);
#728=ORIENTED_EDGE('',*,*,#575,.T.);
#729=ORIENTED_EDGE('',*,*,#576,.F.);
#730=ORIENTED_EDGE('',*,*,#577,.F.);
#731=ORIENTED_EDGE('',*,*,#578,.T.);
#732=ORIENTED_EDGE('',*,*,#579,.F.);
#733=ORIENTED_EDGE('',*,*,#580,.F.);
#734=ORIENTED_EDGE('',*,*,#581,.F.);
#735=ORIENTED_EDGE('',*,*,#582,.T.);
#736=ORIENTED_EDGE('',*,*,#583,.F.);
#737=ORIENTED_EDGE('',*,*,#584,.F.);
#738=ORIENTED_EDGE('',*,*,#585,.F.);
#739=ORIENTED_EDGE('',*,*,#586,.T.);
#740=ORIENTED_EDGE('',*,*,#574,.F.);
#741=ORIENTED_EDGE('',*,*,#587,.F.);
#742=ORIENTED_EDGE('',*,*,#588,.T.);
#743=ORIENTED_EDGE('',*,*,#585,.T.);
#744=ORIENTED_EDGE('',*,*,#587,.T.);
#745=ORIENTED_EDGE('',*,*,#584,.T.);
#746=ORIENTED_EDGE('',*,*,#573,.T.);
#747=ORIENTED_EDGE('',*,*,#589,.F.);
#748=ORIENTED_EDGE('',*,*,#590,.F.);
#749=ORIENTED_EDGE('',*,*,#591,.T.);
#750=ORIENTED_EDGE('',*,*,#592,.T.);
#751=ORIENTED_EDGE('',*,*,#593,.F.);
#752=ORIENTED_EDGE('',*,*,#583,.T.);
#753=ORIENTED_EDGE('',*,*,#594,.T.);
#754=ORIENTED_EDGE('',*,*,#595,.T.);
#755=ORIENTED_EDGE('',*,*,#596,.F.);
#756=ORIENTED_EDGE('',*,*,#597,.F.);
#757=ORIENTED_EDGE('',*,*,#577,.T.);
#758=ORIENTED_EDGE('',*,*,#598,.F.);
#759=ORIENTED_EDGE('',*,*,#599,.T.);
#760=ORIENTED_EDGE('',*,*,#580,.T.);
#761=ORIENTED_EDGE('',*,*,#597,.T.);
#762=ORIENTED_EDGE('',*,*,#600,.F.);
#763=ORIENTED_EDGE('',*,*,#601,.F.);
#764=ORIENTED_EDGE('',*,*,#576,.T.);
#765=ORIENTED_EDGE('',*,*,#602,.F.);
#766=ORIENTED_EDGE('',*,*,#603,.T.);
#767=ORIENTED_EDGE('',*,*,#598,.T.);
#768=ORIENTED_EDGE('',*,*,#581,.T.);
#769=ORIENTED_EDGE('',*,*,#601,.T.);
#770=ORIENTED_EDGE('',*,*,#604,.F.);
#771=ORIENTED_EDGE('',*,*,#605,.T.);
#772=ORIENTED_EDGE('',*,*,#606,.T.);
#773=ORIENTED_EDGE('',*,*,#579,.T.);
#774=ORIENTED_EDGE('',*,*,#607,.T.);
#775=ORIENTED_EDGE('',*,*,#602,.T.);
#776=ORIENTED_EDGE('',*,*,#608,.F.);
#777=ORIENTED_EDGE('',*,*,#609,.T.);
#778=ORIENTED_EDGE('',*,*,#610,.F.);
#779=ORIENTED_EDGE('',*,*,#611,.T.);
#780=ORIENTED_EDGE('',*,*,#612,.F.);
#781=ORIENTED_EDGE('',*,*,#613,.T.);
#782=ORIENTED_EDGE('',*,*,#614,.F.);
#783=ORIENTED_EDGE('',*,*,#615,.F.);
#784=ORIENTED_EDGE('',*,*,#614,.T.);
#785=ORIENTED_EDGE('',*,*,#616,.F.);
#786=ORIENTED_EDGE('',*,*,#617,.T.);
#787=ORIENTED_EDGE('',*,*,#618,.T.);
#788=ORIENTED_EDGE('',*,*,#610,.T.);
#789=ORIENTED_EDGE('',*,*,#619,.T.);
#790=ORIENTED_EDGE('',*,*,#620,.T.);
#791=ORIENTED_EDGE('',*,*,#621,.F.);
#792=ORIENTED_EDGE('',*,*,#608,.T.);
#793=ORIENTED_EDGE('',*,*,#622,.F.);
#794=ORIENTED_EDGE('',*,*,#623,.F.);
#795=ORIENTED_EDGE('',*,*,#624,.T.);
#796=ORIENTED_EDGE('',*,*,#612,.T.);
#797=ORIENTED_EDGE('',*,*,#625,.T.);
#798=ORIENTED_EDGE('',*,*,#626,.T.);
#799=ORIENTED_EDGE('',*,*,#627,.F.);
#800=ORIENTED_EDGE('',*,*,#628,.F.);
#801=ORIENTED_EDGE('',*,*,#629,.T.);
#802=ORIENTED_EDGE('',*,*,#630,.F.);
#803=ORIENTED_EDGE('',*,*,#631,.T.);
#804=ORIENTED_EDGE('',*,*,#605,.F.);
#805=ORIENTED_EDGE('',*,*,#632,.T.);
#806=ORIENTED_EDGE('',*,*,#595,.F.);
#807=ORIENTED_EDGE('',*,*,#633,.F.);
#808=ORIENTED_EDGE('',*,*,#630,.T.);
#809=ORIENTED_EDGE('',*,*,#634,.T.);
#810=ORIENTED_EDGE('',*,*,#635,.T.);
#811=ORIENTED_EDGE('',*,*,#636,.F.);
#812=ORIENTED_EDGE('',*,*,#628,.T.);
#813=ORIENTED_EDGE('',*,*,#637,.F.);
#814=ORIENTED_EDGE('',*,*,#638,.T.);
#815=ORIENTED_EDGE('',*,*,#639,.T.);
#816=ORIENTED_EDGE('',*,*,#640,.F.);
#817=ORIENTED_EDGE('',*,*,#641,.T.);
#818=ORIENTED_EDGE('',*,*,#642,.F.);
#819=ORIENTED_EDGE('',*,*,#643,.T.);
#820=ORIENTED_EDGE('',*,*,#638,.F.);
#821=ORIENTED_EDGE('',*,*,#644,.T.);
#822=ORIENTED_EDGE('',*,*,#635,.F.);
#823=ORIENTED_EDGE('',*,*,#645,.F.);
#824=ORIENTED_EDGE('',*,*,#642,.T.);
#825=ORIENTED_EDGE('',*,*,#646,.T.);
#826=ORIENTED_EDGE('',*,*,#647,.T.);
#827=ORIENTED_EDGE('',*,*,#648,.F.);
#828=ORIENTED_EDGE('',*,*,#640,.T.);
#829=ORIENTED_EDGE('',*,*,#649,.F.);
#830=ORIENTED_EDGE('',*,*,#650,.T.);
#831=ORIENTED_EDGE('',*,*,#651,.T.);
#832=ORIENTED_EDGE('',*,*,#652,.F.);
#833=ORIENTED_EDGE('',*,*,#653,.T.);
#834=ORIENTED_EDGE('',*,*,#654,.F.);
#835=ORIENTED_EDGE('',*,*,#655,.T.);
#836=ORIENTED_EDGE('',*,*,#656,.F.);
#837=ORIENTED_EDGE('',*,*,#657,.T.);
#838=ORIENTED_EDGE('',*,*,#658,.F.);
#839=ORIENTED_EDGE('',*,*,#659,.F.);
#840=ORIENTED_EDGE('',*,*,#658,.T.);
#841=ORIENTED_EDGE('',*,*,#660,.F.);
#842=ORIENTED_EDGE('',*,*,#661,.T.);
#843=ORIENTED_EDGE('',*,*,#662,.T.);
#844=ORIENTED_EDGE('',*,*,#654,.T.);
#845=ORIENTED_EDGE('',*,*,#663,.T.);
#846=ORIENTED_EDGE('',*,*,#664,.T.);
#847=ORIENTED_EDGE('',*,*,#665,.F.);
#848=ORIENTED_EDGE('',*,*,#652,.T.);
#849=ORIENTED_EDGE('',*,*,#666,.F.);
#850=ORIENTED_EDGE('',*,*,#667,.T.);
#851=ORIENTED_EDGE('',*,*,#668,.T.);
#852=ORIENTED_EDGE('',*,*,#656,.T.);
#853=ORIENTED_EDGE('',*,*,#669,.T.);
#854=ORIENTED_EDGE('',*,*,#670,.T.);
#855=ORIENTED_EDGE('',*,*,#671,.F.);
#856=ORIENTED_EDGE('',*,*,#672,.F.);
#857=ORIENTED_EDGE('',*,*,#673,.T.);
#858=ORIENTED_EDGE('',*,*,#674,.F.);
#859=ORIENTED_EDGE('',*,*,#675,.T.);
#860=ORIENTED_EDGE('',*,*,#676,.F.);
#861=ORIENTED_EDGE('',*,*,#677,.T.);
#862=ORIENTED_EDGE('',*,*,#678,.F.);
#863=ORIENTED_EDGE('',*,*,#679,.F.);
#864=ORIENTED_EDGE('',*,*,#674,.T.);
#865=ORIENTED_EDGE('',*,*,#680,.F.);
#866=ORIENTED_EDGE('',*,*,#681,.T.);
#867=ORIENTED_EDGE('',*,*,#682,.T.);
#868=ORIENTED_EDGE('',*,*,#678,.T.);
#869=ORIENTED_EDGE('',*,*,#683,.T.);
#870=ORIENTED_EDGE('',*,*,#684,.T.);
#871=ORIENTED_EDGE('',*,*,#685,.F.);
#872=ORIENTED_EDGE('',*,*,#672,.T.);
#873=ORIENTED_EDGE('',*,*,#686,.T.);
#874=ORIENTED_EDGE('',*,*,#687,.T.);
#875=ORIENTED_EDGE('',*,*,#688,.F.);
#876=ORIENTED_EDGE('',*,*,#676,.T.);
#877=ORIENTED_EDGE('',*,*,#689,.F.);
#878=ORIENTED_EDGE('',*,*,#690,.T.);
#879=ORIENTED_EDGE('',*,*,#691,.T.);
#880=ORIENTED_EDGE('',*,*,#626,.F.);
#881=ORIENTED_EDGE('',*,*,#692,.T.);
#882=ORIENTED_EDGE('',*,*,#617,.F.);
#883=ORIENTED_EDGE('',*,*,#693,.T.);
#884=ORIENTED_EDGE('',*,*,#667,.F.);
#885=ORIENTED_EDGE('',*,*,#694,.T.);
#886=ORIENTED_EDGE('',*,*,#664,.F.);
#887=ORIENTED_EDGE('',*,*,#695,.F.);
#888=ORIENTED_EDGE('',*,*,#670,.F.);
#889=ORIENTED_EDGE('',*,*,#696,.T.);
#890=ORIENTED_EDGE('',*,*,#661,.F.);
#891=ORIENTED_EDGE('',*,*,#697,.T.);
#892=ORIENTED_EDGE('',*,*,#690,.F.);
#893=ORIENTED_EDGE('',*,*,#698,.T.);
#894=ORIENTED_EDGE('',*,*,#684,.F.);
#895=ORIENTED_EDGE('',*,*,#699,.F.);
#896=ORIENTED_EDGE('',*,*,#687,.F.);
#897=ORIENTED_EDGE('',*,*,#700,.T.);
#898=ORIENTED_EDGE('',*,*,#681,.F.);
#899=ORIENTED_EDGE('',*,*,#701,.T.);
#900=ORIENTED_EDGE('',*,*,#650,.F.);
#901=ORIENTED_EDGE('',*,*,#702,.T.);
#902=ORIENTED_EDGE('',*,*,#647,.F.);
#903=ORIENTED_EDGE('',*,*,#703,.F.);
#904=ORIENTED_EDGE('',*,*,#704,.F.);
#905=ORIENTED_EDGE('',*,*,#705,.T.);
#906=ORIENTED_EDGE('',*,*,#706,.F.);
#907=ORIENTED_EDGE('',*,*,#707,.F.);
#908=ORIENTED_EDGE('',*,*,#708,.F.);
#909=ORIENTED_EDGE('',*,*,#707,.T.);
#910=ORIENTED_EDGE('',*,*,#709,.F.);
#911=ORIENTED_EDGE('',*,*,#710,.F.);
#912=ORIENTED_EDGE('',*,*,#711,.F.);
#913=ORIENTED_EDGE('',*,*,#710,.T.);
#914=ORIENTED_EDGE('',*,*,#712,.F.);
#915=ORIENTED_EDGE('',*,*,#713,.F.);
#916=ORIENTED_EDGE('',*,*,#714,.F.);
#917=ORIENTED_EDGE('',*,*,#713,.T.);
#918=ORIENTED_EDGE('',*,*,#715,.F.);
#919=ORIENTED_EDGE('',*,*,#705,.F.);
#920=ORIENTED_EDGE('',*,*,#715,.T.);
#921=ORIENTED_EDGE('',*,*,#712,.T.);
#922=ORIENTED_EDGE('',*,*,#709,.T.);
#923=ORIENTED_EDGE('',*,*,#706,.T.);
#924=ORIENTED_EDGE('',*,*,#591,.F.);
#925=ORIENTED_EDGE('',*,*,#716,.F.);
#926=ORIENTED_EDGE('',*,*,#717,.F.);
#927=ORIENTED_EDGE('',*,*,#718,.F.);
#928=ORIENTED_EDGE('',*,*,#717,.T.);
#929=ORIENTED_EDGE('',*,*,#719,.T.);
#930=ORIENTED_EDGE('',*,*,#720,.F.);
#931=ORIENTED_EDGE('',*,*,#721,.F.);
#932=ORIENTED_EDGE('',*,*,#716,.T.);
#933=ORIENTED_EDGE('',*,*,#590,.T.);
#934=ORIENTED_EDGE('',*,*,#722,.F.);
#935=ORIENTED_EDGE('',*,*,#719,.F.);
#936=ORIENTED_EDGE('',*,*,#723,.T.);
#937=ORIENTED_EDGE('',*,*,#623,.T.);
#938=ORIENTED_EDGE('',*,*,#724,.F.);
#939=ORIENTED_EDGE('',*,*,#620,.F.);
#940=ORIENTED_EDGE('',*,*,#718,.T.);
#941=ORIENTED_EDGE('',*,*,#721,.T.);
#942=ORIENTED_EDGE('',*,*,#725,.F.);
#943=ORIENTED_EDGE('',*,*,#592,.F.);
#944=ORIENTED_EDGE('',*,*,#593,.T.);
#945=ORIENTED_EDGE('',*,*,#725,.T.);
#946=ORIENTED_EDGE('',*,*,#720,.T.);
#947=ORIENTED_EDGE('',*,*,#722,.T.);
#948=ORIENTED_EDGE('',*,*,#589,.T.);
#949=ORIENTED_EDGE('',*,*,#575,.F.);
#950=ORIENTED_EDGE('',*,*,#586,.F.);
#951=ORIENTED_EDGE('',*,*,#588,.F.);
#952=ORIENTED_EDGE('',*,*,#632,.F.);
#953=ORIENTED_EDGE('',*,*,#604,.T.);
#954=ORIENTED_EDGE('',*,*,#600,.T.);
#955=ORIENTED_EDGE('',*,*,#596,.T.);
#956=ORIENTED_EDGE('',*,*,#673,.F.);
#957=ORIENTED_EDGE('',*,*,#688,.T.);
#958=ORIENTED_EDGE('',*,*,#701,.F.);
#959=ORIENTED_EDGE('',*,*,#680,.T.);
#960=ORIENTED_EDGE('',*,*,#657,.F.);
#961=ORIENTED_EDGE('',*,*,#671,.T.);
#962=ORIENTED_EDGE('',*,*,#697,.F.);
#963=ORIENTED_EDGE('',*,*,#660,.T.);
#964=ORIENTED_EDGE('',*,*,#613,.F.);
#965=ORIENTED_EDGE('',*,*,#627,.T.);
#966=ORIENTED_EDGE('',*,*,#693,.F.);
#967=ORIENTED_EDGE('',*,*,#616,.T.);
#968=ORIENTED_EDGE('',*,*,#685,.T.);
#969=ORIENTED_EDGE('',*,*,#698,.F.);
#970=ORIENTED_EDGE('',*,*,#689,.T.);
#971=ORIENTED_EDGE('',*,*,#679,.T.);
#972=ORIENTED_EDGE('',*,*,#665,.T.);
#973=ORIENTED_EDGE('',*,*,#694,.F.);
#974=ORIENTED_EDGE('',*,*,#666,.T.);
#975=ORIENTED_EDGE('',*,*,#655,.F.);
#976=ORIENTED_EDGE('',*,*,#648,.T.);
#977=ORIENTED_EDGE('',*,*,#702,.F.);
#978=ORIENTED_EDGE('',*,*,#649,.T.);
#979=ORIENTED_EDGE('',*,*,#643,.F.);
#980=ORIENTED_EDGE('',*,*,#636,.T.);
#981=ORIENTED_EDGE('',*,*,#644,.F.);
#982=ORIENTED_EDGE('',*,*,#637,.T.);
#983=ORIENTED_EDGE('',*,*,#631,.F.);
#984=ORIENTED_EDGE('',*,*,#621,.T.);
#985=ORIENTED_EDGE('',*,*,#724,.T.);
#986=ORIENTED_EDGE('',*,*,#622,.T.);
#987=ORIENTED_EDGE('',*,*,#611,.F.);
#988=ORIENTED_EDGE('',*,*,#714,.T.);
#989=ORIENTED_EDGE('',*,*,#704,.T.);
#990=ORIENTED_EDGE('',*,*,#708,.T.);
#991=ORIENTED_EDGE('',*,*,#711,.T.);
#992=ORIENTED_EDGE('',*,*,#599,.F.);
#993=ORIENTED_EDGE('',*,*,#603,.F.);
#994=ORIENTED_EDGE('',*,*,#607,.F.);
#995=ORIENTED_EDGE('',*,*,#578,.F.);
#996=ORIENTED_EDGE('',*,*,#618,.F.);
#997=ORIENTED_EDGE('',*,*,#692,.F.);
#998=ORIENTED_EDGE('',*,*,#625,.F.);
#999=ORIENTED_EDGE('',*,*,#615,.T.);
#1000=ORIENTED_EDGE('',*,*,#582,.F.);
#1001=ORIENTED_EDGE('',*,*,#606,.F.);
#1002=ORIENTED_EDGE('',*,*,#633,.T.);
#1003=ORIENTED_EDGE('',*,*,#594,.F.);
#1004=ORIENTED_EDGE('',*,*,#629,.F.);
#1005=ORIENTED_EDGE('',*,*,#639,.F.);
#1006=ORIENTED_EDGE('',*,*,#645,.T.);
#1007=ORIENTED_EDGE('',*,*,#634,.F.);
#1008=ORIENTED_EDGE('',*,*,#662,.F.);
#1009=ORIENTED_EDGE('',*,*,#696,.F.);
#1010=ORIENTED_EDGE('',*,*,#669,.F.);
#1011=ORIENTED_EDGE('',*,*,#659,.T.);
#1012=ORIENTED_EDGE('',*,*,#682,.F.);
#1013=ORIENTED_EDGE('',*,*,#700,.F.);
#1014=ORIENTED_EDGE('',*,*,#686,.F.);
#1015=ORIENTED_EDGE('',*,*,#675,.F.);
#1016=ORIENTED_EDGE('',*,*,#653,.F.);
#1017=ORIENTED_EDGE('',*,*,#668,.F.);
#1018=ORIENTED_EDGE('',*,*,#695,.T.);
#1019=ORIENTED_EDGE('',*,*,#663,.F.);
#1020=ORIENTED_EDGE('',*,*,#677,.F.);
#1021=ORIENTED_EDGE('',*,*,#691,.F.);
#1022=ORIENTED_EDGE('',*,*,#699,.T.);
#1023=ORIENTED_EDGE('',*,*,#683,.F.);
#1024=ORIENTED_EDGE('',*,*,#641,.F.);
#1025=ORIENTED_EDGE('',*,*,#651,.F.);
#1026=ORIENTED_EDGE('',*,*,#703,.T.);
#1027=ORIENTED_EDGE('',*,*,#646,.F.);
#1028=ORIENTED_EDGE('',*,*,#609,.F.);
#1029=ORIENTED_EDGE('',*,*,#624,.F.);
#1030=ORIENTED_EDGE('',*,*,#723,.F.);
#1031=ORIENTED_EDGE('',*,*,#619,.F.);
#1032=PLANE('',#1156);
#1033=PLANE('',#1157);
#1034=PLANE('',#1158);
#1035=PLANE('',#1159);
#1036=PLANE('',#1160);
#1037=PLANE('',#1161);
#1038=PLANE('',#1162);
#1039=PLANE('',#1163);
#1040=PLANE('',#1164);
#1041=PLANE('',#1165);
#1042=PLANE('',#1166);
#1043=PLANE('',#1167);
#1044=PLANE('',#1168);
#1045=PLANE('',#1169);
#1046=PLANE('',#1170);
#1047=PLANE('',#1171);
#1048=PLANE('',#1172);
#1049=PLANE('',#1173);
#1050=PLANE('',#1174);
#1051=PLANE('',#1175);
#1052=PLANE('',#1176);
#1053=PLANE('',#1177);
#1054=PLANE('',#1178);
#1055=PLANE('',#1179);
#1056=PLANE('',#1180);
#1057=PLANE('',#1181);
#1058=PLANE('',#1182);
#1059=PLANE('',#1183);
#1060=PLANE('',#1184);
#1061=PLANE('',#1185);
#1062=PLANE('',#1186);
#1063=PLANE('',#1187);
#1064=PLANE('',#1188);
#1065=PLANE('',#1189);
#1066=PLANE('',#1190);
#1067=PLANE('',#1191);
#1068=PLANE('',#1192);
#1069=PLANE('',#1193);
#1070=PLANE('',#1194);
#1071=PLANE('',#1195);
#1072=PLANE('',#1196);
#1073=PLANE('',#1197);
#1074=PLANE('',#1198);
#1075=PLANE('',#1199);
#1076=PLANE('',#1200);
#1077=PLANE('',#1201);
#1078=PLANE('',#1202);
#1079=PLANE('',#1203);
#1080=PLANE('',#1204);
#1081=PLANE('',#1205);
#1082=PLANE('',#1206);
#1083=PLANE('',#1207);
#1084=PLANE('',#1208);
#1085=PLANE('',#1209);
#1086=PLANE('',#1210);
#1087=ADVANCED_FACE('',(#35),#1032,.F.);
#1088=ADVANCED_FACE('',(#36),#1033,.T.);
#1089=ADVANCED_FACE('',(#37),#1034,.T.);
#1090=ADVANCED_FACE('',(#38),#1035,.T.);
#1091=ADVANCED_FACE('',(#39),#1036,.F.);
#1092=ADVANCED_FACE('',(#40),#1037,.T.);
#1093=ADVANCED_FACE('',(#41),#1038,.T.);
#1094=ADVANCED_FACE('',(#42),#1039,.T.);
#1095=ADVANCED_FACE('',(#43),#1040,.T.);
#1096=ADVANCED_FACE('',(#44),#1041,.T.);
#1097=ADVANCED_FACE('',(#45),#1042,.T.);
#1098=ADVANCED_FACE('',(#46),#1043,.T.);
#1099=ADVANCED_FACE('',(#47),#1044,.T.);
#1100=ADVANCED_FACE('',(#48),#1045,.T.);
#1101=ADVANCED_FACE('',(#49),#1046,.T.);
#1102=ADVANCED_FACE('',(#50),#1047,.T.);
#1103=ADVANCED_FACE('',(#51),#1048,.T.);
#1104=ADVANCED_FACE('',(#52),#1049,.T.);
#1105=ADVANCED_FACE('',(#53),#1050,.T.);
#1106=ADVANCED_FACE('',(#54),#1051,.T.);
#1107=ADVANCED_FACE('',(#55),#1052,.T.);
#1108=ADVANCED_FACE('',(#56),#1053,.T.);
#1109=ADVANCED_FACE('',(#57),#1054,.T.);
#1110=ADVANCED_FACE('',(#58),#1055,.T.);
#1111=ADVANCED_FACE('',(#59),#1056,.T.);
#1112=ADVANCED_FACE('',(#60),#1057,.T.);
#1113=ADVANCED_FACE('',(#61),#1058,.T.);
#1114=ADVANCED_FACE('',(#62),#1059,.T.);
#1115=ADVANCED_FACE('',(#63),#1060,.T.);
#1116=ADVANCED_FACE('',(#64),#1061,.T.);
#1117=ADVANCED_FACE('',(#65),#1062,.T.);
#1118=ADVANCED_FACE('',(#66),#1063,.T.);
#1119=ADVANCED_FACE('',(#67),#1064,.T.);
#1120=ADVANCED_FACE('',(#68),#1065,.T.);
#1121=ADVANCED_FACE('',(#69),#1066,.T.);
#1122=ADVANCED_FACE('',(#70),#1067,.T.);
#1123=ADVANCED_FACE('',(#71),#1068,.T.);
#1124=ADVANCED_FACE('',(#72),#1069,.T.);
#1125=ADVANCED_FACE('',(#73),#1070,.T.);
#1126=ADVANCED_FACE('',(#74),#1071,.T.);
#1127=ADVANCED_FACE('',(#75),#1072,.T.);
#1128=ADVANCED_FACE('',(#76),#1073,.T.);
#1129=ADVANCED_FACE('',(#77),#1074,.T.);
#1130=ADVANCED_FACE('',(#78),#1075,.T.);
#1131=ADVANCED_FACE('',(#79),#1076,.T.);
#1132=ADVANCED_FACE('',(#80),#1077,.T.);
#1133=ADVANCED_FACE('',(#81),#1078,.T.);
#1134=ADVANCED_FACE('',(#82),#1079,.T.);
#1135=ADVANCED_FACE('',(#83,#15),#1080,.T.);
#1136=ADVANCED_FACE('',(#84),#1081,.T.);
#1137=ADVANCED_FACE('',(#85),#1082,.T.);
#1138=ADVANCED_FACE('',(#86),#1083,.T.);
#1139=ADVANCED_FACE('',(#87),#1084,.T.);
#1140=ADVANCED_FACE('',(#88,#16,#17,#18,#19,#20,#21,#22,#23,#24),#1085,
 .T.);
#1141=ADVANCED_FACE('',(#89,#25,#26,#27,#28,#29,#30,#31,#32,#33,#34),#1086,
 .F.);
#1142=CLOSED_SHELL('',(#1087,#1088,#1089,#1090,#1091,#1092,#1093,#1094,
#1095,#1096,#1097,#1098,#1099,#1100,#1101,#1102,#1103,#1104,#1105,#1106,
#1107,#1108,#1109,#1110,#1111,#1112,#1113,#1114,#1115,#1116,#1117,#1118,
#1119,#1120,#1121,#1122,#1123,#1124,#1125,#1126,#1127,#1128,#1129,#1130,
#1131,#1132,#1133,#1134,#1135,#1136,#1137,#1138,#1139,#1140,#1141));
#1143=DERIVED_UNIT_ELEMENT(#1145,1.);
#1144=DERIVED_UNIT_ELEMENT(#1792,-3.);
#1145=(
MASS_UNIT()
NAMED_UNIT(*)
SI_UNIT(.KILO.,.GRAM.)
);
#1146=DERIVED_UNIT((#1143,#1144));
#1147=MEASURE_REPRESENTATION_ITEM('density measure',
POSITIVE_RATIO_MEASURE(7850.),#1146);
#1148=PROPERTY_DEFINITION_REPRESENTATION(#1153,#1150);
#1149=PROPERTY_DEFINITION_REPRESENTATION(#1154,#1151);
#1150=REPRESENTATION('material name',(#1152),#1789);
#1151=REPRESENTATION('density',(#1147),#1789);
#1152=DESCRIPTIVE_REPRESENTATION_ITEM('Steel','Steel');
#1153=PROPERTY_DEFINITION('material property','material name',#1799);
#1154=PROPERTY_DEFINITION('material property','density of part',#1799);
#1155=AXIS2_PLACEMENT_3D('',#1476,#1211,#1212);
#1156=AXIS2_PLACEMENT_3D('',#1477,#1213,#1214);
#1157=AXIS2_PLACEMENT_3D('',#1484,#1218,#1219);
#1158=AXIS2_PLACEMENT_3D('',#1493,#1224,#1225);
#1159=AXIS2_PLACEMENT_3D('',#1502,#1230,#1231);
#1160=AXIS2_PLACEMENT_3D('',#1508,#1235,#1236);
#1161=AXIS2_PLACEMENT_3D('',#1512,#1239,#1240);
#1162=AXIS2_PLACEMENT_3D('',#1522,#1246,#1247);
#1163=AXIS2_PLACEMENT_3D('',#1530,#1252,#1253);
#1164=AXIS2_PLACEMENT_3D('',#1534,#1256,#1257);
#1165=AXIS2_PLACEMENT_3D('',#1538,#1260,#1261);
#1166=AXIS2_PLACEMENT_3D('',#1542,#1264,#1265);
#1167=AXIS2_PLACEMENT_3D('',#1548,#1269,#1270);
#1168=AXIS2_PLACEMENT_3D('',#1550,#1272,#1273);
#1169=AXIS2_PLACEMENT_3D('',#1559,#1278,#1279);
#1170=AXIS2_PLACEMENT_3D('',#1568,#1284,#1285);
#1171=AXIS2_PLACEMENT_3D('',#1574,#1289,#1290);
#1172=AXIS2_PLACEMENT_3D('',#1580,#1294,#1295);
#1173=AXIS2_PLACEMENT_3D('',#1586,#1299,#1300);
#1174=AXIS2_PLACEMENT_3D('',#1592,#1304,#1305);
#1175=AXIS2_PLACEMENT_3D('',#1601,#1310,#1311);
#1176=AXIS2_PLACEMENT_3D('',#1604,#1314,#1315);
#1177=AXIS2_PLACEMENT_3D('',#1610,#1319,#1320);
#1178=AXIS2_PLACEMENT_3D('',#1616,#1324,#1325);
#1179=AXIS2_PLACEMENT_3D('',#1625,#1330,#1331);
#1180=AXIS2_PLACEMENT_3D('',#1628,#1334,#1335);
#1181=AXIS2_PLACEMENT_3D('',#1634,#1339,#1340);
#1182=AXIS2_PLACEMENT_3D('',#1640,#1344,#1345);
#1183=AXIS2_PLACEMENT_3D('',#1649,#1350,#1351);
#1184=AXIS2_PLACEMENT_3D('',#1658,#1356,#1357);
#1185=AXIS2_PLACEMENT_3D('',#1664,#1361,#1362);
#1186=AXIS2_PLACEMENT_3D('',#1670,#1366,#1367);
#1187=AXIS2_PLACEMENT_3D('',#1676,#1371,#1372);
#1188=AXIS2_PLACEMENT_3D('',#1682,#1376,#1377);
#1189=AXIS2_PLACEMENT_3D('',#1691,#1382,#1383);
#1190=AXIS2_PLACEMENT_3D('',#1700,#1388,#1389);
#1191=AXIS2_PLACEMENT_3D('',#1706,#1393,#1394);
#1192=AXIS2_PLACEMENT_3D('',#1712,#1398,#1399);
#1193=AXIS2_PLACEMENT_3D('',#1718,#1403,#1404);
#1194=AXIS2_PLACEMENT_3D('',#1724,#1408,#1409);
#1195=AXIS2_PLACEMENT_3D('',#1727,#1412,#1413);
#1196=AXIS2_PLACEMENT_3D('',#1730,#1416,#1417);
#1197=AXIS2_PLACEMENT_3D('',#1733,#1420,#1421);
#1198=AXIS2_PLACEMENT_3D('',#1736,#1424,#1425);
#1199=AXIS2_PLACEMENT_3D('',#1739,#1428,#1429);
#1200=AXIS2_PLACEMENT_3D('',#1742,#1432,#1433);
#1201=AXIS2_PLACEMENT_3D('',#1751,#1438,#1439);
#1202=AXIS2_PLACEMENT_3D('',#1757,#1443,#1444);
#1203=AXIS2_PLACEMENT_3D('',#1763,#1448,#1449);
#1204=AXIS2_PLACEMENT_3D('',#1766,#1452,#1453);
#1205=AXIS2_PLACEMENT_3D('',#1772,#1457,#1458);
#1206=AXIS2_PLACEMENT_3D('',#1778,#1462,#1463);
#1207=AXIS2_PLACEMENT_3D('',#1780,#1465,#1466);
#1208=AXIS2_PLACEMENT_3D('',#1783,#1469,#1470);
#1209=AXIS2_PLACEMENT_3D('',#1785,#1472,#1473);
#1210=AXIS2_PLACEMENT_3D('',#1786,#1474,#1475);
#1211=DIRECTION('axis',(0.,0.,1.));
#1212=DIRECTION('refdir',(1.,0.,0.));
#1213=DIRECTION('center_axis',(-1.,0.,0.));
#1214=DIRECTION('ref_axis',(0.,0.,1.));
#1215=DIRECTION('',(0.,1.,0.));
#1216=DIRECTION('',(0.,0.866025403784439,-0.5));
#1217=DIRECTION('',(0.,0.,1.));
#1218=DIRECTION('center_axis',(0.,-0.5,-0.866025403784439));
#1219=DIRECTION('ref_axis',(0.,-0.866025403784439,0.5));
#1220=DIRECTION('',(-1.,2.64324767887775E-16,-1.52607975893492E-16));
#1221=DIRECTION('',(0.,0.866025403784439,-0.5));
#1222=DIRECTION('',(-1.,0.,0.));
#1223=DIRECTION('',(0.,-0.866025403784439,0.5));
#1224=DIRECTION('center_axis',(0.,0.5,0.866025403784439));
#1225=DIRECTION('ref_axis',(0.,0.866025403784439,-0.5));
#1226=DIRECTION('',(1.,-2.64324767887775E-16,1.52607975893492E-16));
#1227=DIRECTION('',(0.,0.866025403784439,-0.5));
#1228=DIRECTION('',(1.,0.,0.));
#1229=DIRECTION('',(0.,-0.866025403784439,0.5));
#1230=DIRECTION('center_axis',(0.,-0.5,-0.866025403784439));
#1231=DIRECTION('ref_axis',(0.,-0.866025403784439,0.5));
#1232=DIRECTION('',(1.,0.,0.));
#1233=DIRECTION('',(0.,-0.866025403784439,0.5));
#1234=DIRECTION('',(1.,0.,0.));
#1235=DIRECTION('center_axis',(1.,0.,0.));
#1236=DIRECTION('ref_axis',(0.,0.,-1.));
#1237=DIRECTION('',(0.,-1.,0.));
#1238=DIRECTION('',(0.,0.,-1.));
#1239=DIRECTION('center_axis',(0.,0.,-1.));
#1240=DIRECTION('ref_axis',(-1.,0.,0.));
#1241=DIRECTION('',(-1.,0.,0.));
#1242=DIRECTION('',(0.,1.,0.));
#1243=DIRECTION('',(-1.,0.,0.));
#1244=DIRECTION('',(0.,1.,0.));
#1245=DIRECTION('',(-1.,0.,0.));
#1246=DIRECTION('center_axis',(-1.,0.,0.));
#1247=DIRECTION('ref_axis',(0.,0.,1.));
#1248=DIRECTION('',(0.,0.,1.));
#1249=DIRECTION('',(0.,0.866025403784439,-0.5));
#1250=DIRECTION('',(0.,0.,1.));
#1251=DIRECTION('',(0.,1.,0.));
#1252=DIRECTION('center_axis',(-1.,0.,0.));
#1253=DIRECTION('ref_axis',(0.,0.,1.));
#1254=DIRECTION('',(0.,1.,0.));
#1255=DIRECTION('',(0.,0.,1.));
#1256=DIRECTION('center_axis',(-1.52607975893492E-16,0.,1.));
#1257=DIRECTION('ref_axis',(1.,0.,1.52607975893492E-16));
#1258=DIRECTION('',(1.,0.,1.52607975893492E-16));
#1259=DIRECTION('',(0.,1.,0.));
#1260=DIRECTION('center_axis',(-1.52607975893492E-16,0.,1.));
#1261=DIRECTION('ref_axis',(1.,0.,1.52607975893492E-16));
#1262=DIRECTION('',(0.,1.,0.));
#1263=DIRECTION('',(1.,0.,1.52607975893492E-16));
#1264=DIRECTION('center_axis',(1.,0.,0.));
#1265=DIRECTION('ref_axis',(0.,0.,-1.));
#1266=DIRECTION('',(0.,0.,-1.));
#1267=DIRECTION('',(0.,-0.866025403784439,0.5));
#1268=DIRECTION('',(0.,0.,-1.));
#1269=DIRECTION('center_axis',(1.,0.,0.));
#1270=DIRECTION('ref_axis',(0.,0.,-1.));
#1271=DIRECTION('',(0.,0.,-1.));
#1272=DIRECTION('center_axis',(0.,0.5,0.866025403784439));
#1273=DIRECTION('ref_axis',(0.,0.866025403784439,-0.5));
#1274=DIRECTION('',(0.,0.866025403784439,-0.5));
#1275=DIRECTION('',(1.,0.,0.));
#1276=DIRECTION('',(0.,-0.866025403784439,0.5));
#1277=DIRECTION('',(-1.,0.,0.));
#1278=DIRECTION('center_axis',(0.,-0.5,-0.866025403784439));
#1279=DIRECTION('ref_axis',(0.,-0.866025403784439,0.5));
#1280=DIRECTION('',(0.,-0.866025403784439,0.5));
#1281=DIRECTION('',(1.,0.,0.));
#1282=DIRECTION('',(0.,0.866025403784439,-0.5));
#1283=DIRECTION('',(1.,0.,0.));
#1284=DIRECTION('center_axis',(-1.,0.,0.));
#1285=DIRECTION('ref_axis',(0.,0.,1.));
#1286=DIRECTION('',(0.,0.,1.));
#1287=DIRECTION('',(0.,-0.866025403784439,0.5));
#1288=DIRECTION('',(0.,0.,1.));
#1289=DIRECTION('center_axis',(-1.,0.,0.));
#1290=DIRECTION('ref_axis',(0.,0.,1.));
#1291=DIRECTION('',(0.,0.,1.));
#1292=DIRECTION('',(0.,1.,0.));
#1293=DIRECTION('',(0.,0.,1.));
#1294=DIRECTION('center_axis',(1.,0.,0.));
#1295=DIRECTION('ref_axis',(0.,0.,-1.));
#1296=DIRECTION('',(0.,0.,-1.));
#1297=DIRECTION('',(0.,1.,0.));
#1298=DIRECTION('',(0.,0.,-1.));
#1299=DIRECTION('center_axis',(1.,0.,0.));
#1300=DIRECTION('ref_axis',(0.,0.,-1.));
#1301=DIRECTION('',(0.,0.,-1.));
#1302=DIRECTION('',(0.,0.866025403784439,-0.5));
#1303=DIRECTION('',(0.,0.,-1.));
#1304=DIRECTION('center_axis',(0.,0.5,0.866025403784439));
#1305=DIRECTION('ref_axis',(0.,0.866025403784439,-0.5));
#1306=DIRECTION('',(0.,0.866025403784439,-0.5));
#1307=DIRECTION('',(1.,0.,0.));
#1308=DIRECTION('',(0.,-0.866025403784439,0.5));
#1309=DIRECTION('',(-1.,0.,0.));
#1310=DIRECTION('center_axis',(0.,-0.5,-0.866025403784439));
#1311=DIRECTION('ref_axis',(0.,-0.866025403784439,0.5));
#1312=DIRECTION('',(1.,0.,0.));
#1313=DIRECTION('',(1.,0.,0.));
#1314=DIRECTION('center_axis',(-1.,0.,0.));
#1315=DIRECTION('ref_axis',(0.,0.,1.));
#1316=DIRECTION('',(0.,0.,1.));
#1317=DIRECTION('',(0.,0.866025403784439,-0.5));
#1318=DIRECTION('',(0.,0.,1.));
#1319=DIRECTION('center_axis',(1.,0.,0.));
#1320=DIRECTION('ref_axis',(0.,0.,-1.));
#1321=DIRECTION('',(0.,0.,-1.));
#1322=DIRECTION('',(0.,-0.866025403784439,0.5));
#1323=DIRECTION('',(0.,0.,-1.));
#1324=DIRECTION('center_axis',(0.,0.5,0.866025403784439));
#1325=DIRECTION('ref_axis',(0.,0.866025403784439,-0.5));
#1326=DIRECTION('',(0.,0.866025403784439,-0.5));
#1327=DIRECTION('',(1.,0.,0.));
#1328=DIRECTION('',(0.,-0.866025403784439,0.5));
#1329=DIRECTION('',(-1.,0.,0.));
#1330=DIRECTION('center_axis',(0.,-0.5,-0.866025403784439));
#1331=DIRECTION('ref_axis',(0.,-0.866025403784439,0.5));
#1332=DIRECTION('',(1.,0.,0.));
#1333=DIRECTION('',(1.,0.,0.));
#1334=DIRECTION('center_axis',(-1.,0.,0.));
#1335=DIRECTION('ref_axis',(0.,0.,1.));
#1336=DIRECTION('',(0.,0.,1.));
#1337=DIRECTION('',(0.,0.866025403784439,-0.5));
#1338=DIRECTION('',(0.,0.,1.));
#1339=DIRECTION('center_axis',(1.,0.,0.));
#1340=DIRECTION('ref_axis',(0.,0.,-1.));
#1341=DIRECTION('',(0.,0.,-1.));
#1342=DIRECTION('',(0.,-0.866025403784439,0.5));
#1343=DIRECTION('',(0.,0.,-1.));
#1344=DIRECTION('center_axis',(0.,0.5,0.866025403784439));
#1345=DIRECTION('ref_axis',(0.,0.866025403784439,-0.5));
#1346=DIRECTION('',(0.,0.866025403784439,-0.5));
#1347=DIRECTION('',(1.,0.,0.));
#1348=DIRECTION('',(0.,-0.866025403784439,0.5));
#1349=DIRECTION('',(-1.,0.,0.));
#1350=DIRECTION('center_axis',(0.,-0.5,-0.866025403784439));
#1351=DIRECTION('ref_axis',(0.,-0.866025403784439,0.5));
#1352=DIRECTION('',(0.,-0.866025403784439,0.5));
#1353=DIRECTION('',(1.,0.,0.));
#1354=DIRECTION('',(0.,0.866025403784439,-0.5));
#1355=DIRECTION('',(1.,0.,0.));
#1356=DIRECTION('center_axis',(-1.,0.,0.));
#1357=DIRECTION('ref_axis',(0.,0.,1.));
#1358=DIRECTION('',(0.,0.,1.));
#1359=DIRECTION('',(0.,-0.866025403784439,0.5));
#1360=DIRECTION('',(0.,0.,1.));
#1361=DIRECTION('center_axis',(-1.,0.,0.));
#1362=DIRECTION('ref_axis',(0.,0.,1.));
#1363=DIRECTION('',(0.,0.,1.));
#1364=DIRECTION('',(0.,0.866025403784439,-0.5));
#1365=DIRECTION('',(0.,0.,1.));
#1366=DIRECTION('center_axis',(1.,0.,0.));
#1367=DIRECTION('ref_axis',(0.,0.,-1.));
#1368=DIRECTION('',(0.,0.,-1.));
#1369=DIRECTION('',(0.,-0.866025403784439,0.5));
#1370=DIRECTION('',(0.,0.,-1.));
#1371=DIRECTION('center_axis',(1.,0.,0.));
#1372=DIRECTION('ref_axis',(0.,0.,-1.));
#1373=DIRECTION('',(0.,0.,-1.));
#1374=DIRECTION('',(0.,0.866025403784439,-0.5));
#1375=DIRECTION('',(0.,0.,-1.));
#1376=DIRECTION('center_axis',(0.,-0.5,-0.866025403784439));
#1377=DIRECTION('ref_axis',(0.,-0.866025403784439,0.5));
#1378=DIRECTION('',(0.,-0.866025403784439,0.5));
#1379=DIRECTION('',(1.,0.,0.));
#1380=DIRECTION('',(0.,0.866025403784439,-0.5));
#1381=DIRECTION('',(-1.,0.,0.));
#1382=DIRECTION('center_axis',(0.,0.5,0.866025403784439));
#1383=DIRECTION('ref_axis',(0.,0.866025403784439,-0.5));
#1384=DIRECTION('',(0.,0.866025403784439,-0.5));
#1385=DIRECTION('',(1.,0.,0.));
#1386=DIRECTION('',(0.,-0.866025403784439,0.5));
#1387=DIRECTION('',(1.,0.,0.));
#1388=DIRECTION('center_axis',(-1.,0.,0.));
#1389=DIRECTION('ref_axis',(0.,0.,1.));
#1390=DIRECTION('',(0.,0.,1.));
#1391=DIRECTION('',(0.,-0.866025403784439,0.5));
#1392=DIRECTION('',(0.,0.,1.));
#1393=DIRECTION('center_axis',(-1.,0.,0.));
#1394=DIRECTION('ref_axis',(0.,0.,1.));
#1395=DIRECTION('',(0.,0.,1.));
#1396=DIRECTION('',(0.,0.866025403784439,-0.5));
#1397=DIRECTION('',(0.,0.,1.));
#1398=DIRECTION('center_axis',(1.,0.,0.));
#1399=DIRECTION('ref_axis',(0.,0.,-1.));
#1400=DIRECTION('',(0.,0.,-1.));
#1401=DIRECTION('',(0.,0.866025403784439,-0.5));
#1402=DIRECTION('',(0.,0.,-1.));
#1403=DIRECTION('center_axis',(1.,0.,0.));
#1404=DIRECTION('ref_axis',(0.,0.,-1.));
#1405=DIRECTION('',(0.,0.,-1.));
#1406=DIRECTION('',(0.,-0.866025403784439,0.5));
#1407=DIRECTION('',(0.,0.,-1.));
#1408=DIRECTION('center_axis',(0.,0.5,0.866025403784439));
#1409=DIRECTION('ref_axis',(0.,0.866025403784439,-0.5));
#1410=DIRECTION('',(1.,0.,0.));
#1411=DIRECTION('',(-1.,0.,0.));
#1412=DIRECTION('center_axis',(0.,-0.5,-0.866025403784439));
#1413=DIRECTION('ref_axis',(0.,-0.866025403784439,0.5));
#1414=DIRECTION('',(1.,0.,0.));
#1415=DIRECTION('',(1.,0.,0.));
#1416=DIRECTION('center_axis',(0.,0.5,0.866025403784439));
#1417=DIRECTION('ref_axis',(0.,0.866025403784439,-0.5));
#1418=DIRECTION('',(1.,0.,0.));
#1419=DIRECTION('',(-1.,0.,0.));
#1420=DIRECTION('center_axis',(0.,-0.5,-0.866025403784439));
#1421=DIRECTION('ref_axis',(0.,-0.866025403784439,0.5));
#1422=DIRECTION('',(1.,0.,0.));
#1423=DIRECTION('',(1.,0.,0.));
#1424=DIRECTION('center_axis',(0.,0.5,0.866025403784439));
#1425=DIRECTION('ref_axis',(0.,0.866025403784439,-0.5));
#1426=DIRECTION('',(1.,0.,0.));
#1427=DIRECTION('',(-1.,0.,0.));
#1428=DIRECTION('center_axis',(0.,-0.5,-0.866025403784439));
#1429=DIRECTION('ref_axis',(0.,-0.866025403784439,0.5));
#1430=DIRECTION('',(1.,0.,0.));
#1431=DIRECTION('',(1.,0.,0.));
#1432=DIRECTION('center_axis',(1.,0.,0.));
#1433=DIRECTION('ref_axis',(0.,0.,-1.));
#1434=DIRECTION('',(0.,0.,1.));
#1435=DIRECTION('',(0.,1.,0.));
#1436=DIRECTION('',(0.,0.,-1.));
#1437=DIRECTION('',(0.,1.,0.));
#1438=DIRECTION('center_axis',(0.,0.,1.));
#1439=DIRECTION('ref_axis',(1.,0.,0.));
#1440=DIRECTION('',(-1.,0.,0.));
#1441=DIRECTION('',(1.,0.,0.));
#1442=DIRECTION('',(0.,1.,0.));
#1443=DIRECTION('center_axis',(-1.,0.,0.));
#1444=DIRECTION('ref_axis',(0.,0.,1.));
#1445=DIRECTION('',(0.,0.,-1.));
#1446=DIRECTION('',(0.,0.,1.));
#1447=DIRECTION('',(0.,1.,0.));
#1448=DIRECTION('center_axis',(0.,0.,-1.));
#1449=DIRECTION('ref_axis',(-1.,0.,0.));
#1450=DIRECTION('',(1.,0.,0.));
#1451=DIRECTION('',(-1.,0.,0.));
#1452=DIRECTION('center_axis',(0.,1.,0.));
#1453=DIRECTION('ref_axis',(0.,0.,1.));
#1454=DIRECTION('',(0.,0.,-1.));
#1455=DIRECTION('',(1.,0.,0.));
#1456=DIRECTION('',(0.,0.,1.));
#1457=DIRECTION('center_axis',(0.,0.,1.));
#1458=DIRECTION('ref_axis',(1.,0.,0.));
#1459=DIRECTION('',(0.,1.,0.));
#1460=DIRECTION('',(1.,0.,0.));
#1461=DIRECTION('',(0.,1.,0.));
#1462=DIRECTION('center_axis',(1.,0.,0.));
#1463=DIRECTION('ref_axis',(0.,0.,-1.));
#1464=DIRECTION('',(0.,0.,-1.));
#1465=DIRECTION('center_axis',(1.52607975893492E-16,0.,-1.));
#1466=DIRECTION('ref_axis',(-1.,0.,-1.52607975893492E-16));
#1467=DIRECTION('',(-1.,0.,-1.52607975893492E-16));
#1468=DIRECTION('',(-1.,0.,-1.52607975893492E-16));
#1469=DIRECTION('center_axis',(-1.,0.,0.));
#1470=DIRECTION('ref_axis',(0.,0.,1.));
#1471=DIRECTION('',(0.,0.,1.));
#1472=DIRECTION('center_axis',(0.,1.,0.));
#1473=DIRECTION('ref_axis',(0.,0.,1.));
#1474=DIRECTION('center_axis',(0.,1.,0.));
#1475=DIRECTION('ref_axis',(1.,0.,0.));
#1476=CARTESIAN_POINT('',(0.,0.,0.));
#1477=CARTESIAN_POINT('Origin',(14.55,1.75,-1.01036297108185));
#1478=CARTESIAN_POINT('',(14.55,3.46410161513775,-16.25));
#1479=CARTESIAN_POINT('',(14.55,3.5,-16.25));
#1480=CARTESIAN_POINT('',(14.55,0.875,-16.25));
#1481=CARTESIAN_POINT('',(14.55,3.5,-16.2707259421637));
#1482=CARTESIAN_POINT('',(14.55,-2.21021550098206,-12.9739314855409));
#1483=CARTESIAN_POINT('',(14.55,3.5,-8.64054445662277));
#1484=CARTESIAN_POINT('Origin',(0.,3.5,-16.2707259421637));
#1485=CARTESIAN_POINT('',(14.55,2.59807621135331,-15.75));
#1486=CARTESIAN_POINT('',(-14.55,2.59807621135332,-15.75));
#1487=CARTESIAN_POINT('',(-7.275,2.59807621135332,-15.75));
#1488=CARTESIAN_POINT('',(14.55,0.,-14.25));
#1489=CARTESIAN_POINT('',(14.55,2.07475952641916,-15.4478629710818));
#1490=CARTESIAN_POINT('',(-14.55,0.,-14.25));
#1491=CARTESIAN_POINT('',(0.,0.,-14.25));
#1492=CARTESIAN_POINT('',(-14.55,-4.74519052838329,-11.5103629710818));
#1493=CARTESIAN_POINT('Origin',(0.,0.,-13.75));
#1494=CARTESIAN_POINT('',(-14.55,3.46410161513776,-15.75));
#1495=CARTESIAN_POINT('',(14.55,3.46410161513775,-15.75));
#1496=CARTESIAN_POINT('',(-7.275,3.46410161513776,-15.75));
#1497=CARTESIAN_POINT('',(-14.55,0.,-13.75));
#1498=CARTESIAN_POINT('',(-14.55,-6.38693735291024,-10.0625));
#1499=CARTESIAN_POINT('',(14.55,0.,-13.75));
#1500=CARTESIAN_POINT('',(0.,0.,-13.75));
#1501=CARTESIAN_POINT('',(14.55,0.433012701892219,-14.));
#1502=CARTESIAN_POINT('Origin',(0.,3.5,-16.2707259421637));
#1503=CARTESIAN_POINT('',(-14.55,3.46410161513775,-16.25));
#1504=CARTESIAN_POINT('',(7.525,3.46410161513775,-16.25));
#1505=CARTESIAN_POINT('',(-14.55,3.5,-16.2707259421637));
#1506=CARTESIAN_POINT('',(-14.55,-0.460215500982064,-13.9842944566228));
#1507=CARTESIAN_POINT('',(0.,3.5,-16.2707259421637));
#1508=CARTESIAN_POINT('Origin',(-14.55,1.75,-1.01036297108185));
#1509=CARTESIAN_POINT('',(-14.55,3.5,-16.25));
#1510=CARTESIAN_POINT('',(-14.55,0.875,-16.25));
#1511=CARTESIAN_POINT('',(-14.55,3.5,-8.39054445662277));
#1512=CARTESIAN_POINT('Origin',(15.05,0.,-16.25));
#1513=CARTESIAN_POINT('',(15.05,3.5,-16.25));
#1514=CARTESIAN_POINT('',(-15.05,3.5,-16.25));
#1515=CARTESIAN_POINT('',(15.05,0.5,-16.25));
#1516=CARTESIAN_POINT('',(15.05,0.,-16.25));
#1517=CARTESIAN_POINT('',(-15.05,0.5,-16.25));
#1518=CARTESIAN_POINT('',(7.525,0.5,-16.25));
#1519=CARTESIAN_POINT('',(-15.05,3.5,-16.25));
#1520=CARTESIAN_POINT('',(-15.05,0.,-16.25));
#1521=CARTESIAN_POINT('',(-15.05,3.5,-16.25));
#1522=CARTESIAN_POINT('Origin',(14.55,0.,-15.75));
#1523=CARTESIAN_POINT('',(14.55,0.,-10.75));
#1524=CARTESIAN_POINT('',(14.55,0.,-15.75));
#1525=CARTESIAN_POINT('',(14.55,3.5,-12.7707259421637));
#1526=CARTESIAN_POINT('',(14.55,2.83253175473055,-12.3853629710818));
#1527=CARTESIAN_POINT('',(14.55,3.5,-15.75));
#1528=CARTESIAN_POINT('',(14.55,3.5,-15.75));
#1529=CARTESIAN_POINT('',(14.55,0.,-15.75));
#1530=CARTESIAN_POINT('Origin',(14.55,0.,-15.75));
#1531=CARTESIAN_POINT('',(14.55,0.,-15.75));
#1532=CARTESIAN_POINT('',(14.55,0.,-15.75));
#1533=CARTESIAN_POINT('',(14.55,0.,-15.75));
#1534=CARTESIAN_POINT('Origin',(-14.55,0.,-15.75));
#1535=CARTESIAN_POINT('',(-14.55,3.5,-15.75));
#1536=CARTESIAN_POINT('',(-14.55,3.5,-15.75));
#1537=CARTESIAN_POINT('',(-14.55,0.,-15.75));
#1538=CARTESIAN_POINT('Origin',(-14.55,0.,-15.75));
#1539=CARTESIAN_POINT('',(-14.55,0.,-15.75));
#1540=CARTESIAN_POINT('',(-14.55,0.,-15.75));
#1541=CARTESIAN_POINT('',(-14.55,0.,-15.75));
#1542=CARTESIAN_POINT('Origin',(-14.55,0.,15.75));
#1543=CARTESIAN_POINT('',(-14.55,3.5,-12.7707259421637));
#1544=CARTESIAN_POINT('',(-14.55,3.5,15.75));
#1545=CARTESIAN_POINT('',(-14.55,0.,-10.75));
#1546=CARTESIAN_POINT('',(-14.55,-3.98741830007191,-8.44786297108185));
#1547=CARTESIAN_POINT('',(-14.55,0.,15.75));
#1548=CARTESIAN_POINT('Origin',(-14.55,0.,15.75));
#1549=CARTESIAN_POINT('',(-14.55,0.,15.75));
#1550=CARTESIAN_POINT('Origin',(0.,0.,14.25));
#1551=CARTESIAN_POINT('',(-14.55,0.,14.25));
#1552=CARTESIAN_POINT('',(-14.55,3.5,12.2292740578363));
#1553=CARTESIAN_POINT('',(-14.55,-0.324759526419164,14.4375));
#1554=CARTESIAN_POINT('',(14.55,0.,14.25));
#1555=CARTESIAN_POINT('',(0.,0.,14.25));
#1556=CARTESIAN_POINT('',(14.55,3.5,12.2292740578363));
#1557=CARTESIAN_POINT('',(14.55,6.49519052838329,10.5));
#1558=CARTESIAN_POINT('',(0.,3.5,12.2292740578363));
#1559=CARTESIAN_POINT('Origin',(0.,3.5,11.7292740578363));
#1560=CARTESIAN_POINT('',(-14.55,3.5,11.7292740578363));
#1561=CARTESIAN_POINT('',(-14.55,0.,13.75));
#1562=CARTESIAN_POINT('',(-14.55,1.31698729810778,12.9896370289182));
#1563=CARTESIAN_POINT('',(14.55,3.5,11.7292740578363));
#1564=CARTESIAN_POINT('',(0.,3.5,11.7292740578363));
#1565=CARTESIAN_POINT('',(14.55,0.,13.75));
#1566=CARTESIAN_POINT('',(14.55,8.13693735291024,9.05213702891816));
#1567=CARTESIAN_POINT('',(0.,0.,13.75));
#1568=CARTESIAN_POINT('Origin',(14.55,0.,-15.75));
#1569=CARTESIAN_POINT('',(14.55,3.5,8.72927405783631));
#1570=CARTESIAN_POINT('',(14.55,3.5,-15.75));
#1571=CARTESIAN_POINT('',(14.55,0.,10.75));
#1572=CARTESIAN_POINT('',(14.55,5.73741830007191,7.4375));
#1573=CARTESIAN_POINT('',(14.55,0.,-15.75));
#1574=CARTESIAN_POINT('Origin',(14.55,0.,-15.75));
#1575=CARTESIAN_POINT('',(14.55,0.,15.75));
#1576=CARTESIAN_POINT('',(14.55,0.,-15.75));
#1577=CARTESIAN_POINT('',(14.55,3.5,15.75));
#1578=CARTESIAN_POINT('',(14.55,0.,15.75));
#1579=CARTESIAN_POINT('',(14.55,3.5,-15.75));
#1580=CARTESIAN_POINT('Origin',(-14.55,0.,15.75));
#1581=CARTESIAN_POINT('',(-14.55,3.5,15.75));
#1582=CARTESIAN_POINT('',(-14.55,3.5,15.75));
#1583=CARTESIAN_POINT('',(-14.55,0.,15.75));
#1584=CARTESIAN_POINT('',(-14.55,0.,15.75));
#1585=CARTESIAN_POINT('',(-14.55,0.,15.75));
#1586=CARTESIAN_POINT('Origin',(-14.55,0.,15.75));
#1587=CARTESIAN_POINT('',(-14.55,0.,10.75));
#1588=CARTESIAN_POINT('',(-14.55,0.,15.75));
#1589=CARTESIAN_POINT('',(-14.55,3.5,8.72927405783631));
#1590=CARTESIAN_POINT('',(-14.55,-1.08253175473055,11.375));
#1591=CARTESIAN_POINT('',(-14.55,3.5,15.75));
#1592=CARTESIAN_POINT('Origin',(0.,0.,-10.25));
#1593=CARTESIAN_POINT('',(-14.55,0.,-10.25));
#1594=CARTESIAN_POINT('',(-14.55,3.5,-12.2707259421637));
#1595=CARTESIAN_POINT('',(-14.55,-5.62916512459885,-7.));
#1596=CARTESIAN_POINT('',(14.55,0.,-10.25));
#1597=CARTESIAN_POINT('',(0.,0.,-10.25));
#1598=CARTESIAN_POINT('',(14.55,3.5,-12.2707259421637));
#1599=CARTESIAN_POINT('',(14.55,1.1907849302036,-10.9375));
#1600=CARTESIAN_POINT('',(0.,3.5,-12.2707259421637));
#1601=CARTESIAN_POINT('Origin',(0.,3.5,-12.7707259421637));
#1602=CARTESIAN_POINT('',(0.,3.5,-12.7707259421637));
#1603=CARTESIAN_POINT('',(0.,0.,-10.75));
#1604=CARTESIAN_POINT('Origin',(14.55,0.,-15.75));
#1605=CARTESIAN_POINT('',(14.55,0.,-7.25));
#1606=CARTESIAN_POINT('',(14.55,0.,-15.75));
#1607=CARTESIAN_POINT('',(14.55,3.5,-9.27072594216369));
#1608=CARTESIAN_POINT('',(14.55,3.59030398304193,-9.32286297108185));
#1609=CARTESIAN_POINT('',(14.55,3.5,-15.75));
#1610=CARTESIAN_POINT('Origin',(-14.55,0.,15.75));
#1611=CARTESIAN_POINT('',(-14.55,3.5,-9.27072594216369));
#1612=CARTESIAN_POINT('',(-14.55,3.5,15.75));
#1613=CARTESIAN_POINT('',(-14.55,0.,-7.25));
#1614=CARTESIAN_POINT('',(-14.55,-3.22964607176052,-5.38536297108185));
#1615=CARTESIAN_POINT('',(-14.55,0.,15.75));
#1616=CARTESIAN_POINT('Origin',(0.,0.,-6.75));
#1617=CARTESIAN_POINT('',(-14.55,0.,-6.75));
#1618=CARTESIAN_POINT('',(-14.55,3.5,-8.77072594216369));
#1619=CARTESIAN_POINT('',(-14.55,-4.87139289628747,-3.9375));
#1620=CARTESIAN_POINT('',(14.55,0.,-6.75));
#1621=CARTESIAN_POINT('',(0.,0.,-6.75));
#1622=CARTESIAN_POINT('',(14.55,3.5,-8.77072594216369));
#1623=CARTESIAN_POINT('',(14.55,1.94855715851499,-7.875));
#1624=CARTESIAN_POINT('',(0.,3.5,-8.77072594216369));
#1625=CARTESIAN_POINT('Origin',(0.,3.5,-9.27072594216369));
#1626=CARTESIAN_POINT('',(0.,3.5,-9.27072594216369));
#1627=CARTESIAN_POINT('',(0.,0.,-7.25));
#1628=CARTESIAN_POINT('Origin',(14.55,0.,-15.75));
#1629=CARTESIAN_POINT('',(14.55,0.,-3.75));
#1630=CARTESIAN_POINT('',(14.55,0.,-15.75));
#1631=CARTESIAN_POINT('',(14.55,3.5,-5.77072594216369));
#1632=CARTESIAN_POINT('',(14.55,4.34807621135332,-6.26036297108184));
#1633=CARTESIAN_POINT('',(14.55,3.5,-15.75));
#1634=CARTESIAN_POINT('Origin',(-14.55,0.,15.75));
#1635=CARTESIAN_POINT('',(-14.55,3.5,-5.77072594216369));
#1636=CARTESIAN_POINT('',(-14.55,3.5,15.75));
#1637=CARTESIAN_POINT('',(-14.55,0.,-3.75));
#1638=CARTESIAN_POINT('',(-14.55,-2.47187384344914,-2.32286297108185));
#1639=CARTESIAN_POINT('',(-14.55,0.,15.75));
#1640=CARTESIAN_POINT('Origin',(0.,0.,7.25));
#1641=CARTESIAN_POINT('',(-14.55,0.,7.25));
#1642=CARTESIAN_POINT('',(-14.55,3.5,5.22927405783631));
#1643=CARTESIAN_POINT('',(-14.55,-1.84030398304193,8.3125));
#1644=CARTESIAN_POINT('',(14.55,0.,7.25));
#1645=CARTESIAN_POINT('',(0.,0.,7.25));
#1646=CARTESIAN_POINT('',(14.55,3.5,5.22927405783631));
#1647=CARTESIAN_POINT('',(14.55,4.97964607176052,4.375));
#1648=CARTESIAN_POINT('',(0.,3.5,5.22927405783631));
#1649=CARTESIAN_POINT('Origin',(0.,3.5,4.72927405783631));
#1650=CARTESIAN_POINT('',(-14.55,3.5,4.72927405783631));
#1651=CARTESIAN_POINT('',(-14.55,0.,6.75));
#1652=CARTESIAN_POINT('',(-14.55,-0.198557158514988,6.86463702891816));
#1653=CARTESIAN_POINT('',(14.55,3.5,4.72927405783631));
#1654=CARTESIAN_POINT('',(0.,3.5,4.72927405783631));
#1655=CARTESIAN_POINT('',(14.55,0.,6.75));
#1656=CARTESIAN_POINT('',(14.55,6.62139289628747,2.92713702891815));
#1657=CARTESIAN_POINT('',(0.,0.,6.75));
#1658=CARTESIAN_POINT('Origin',(14.55,0.,-15.75));
#1659=CARTESIAN_POINT('',(14.55,3.5,1.72927405783631));
#1660=CARTESIAN_POINT('',(14.55,3.5,-15.75));
#1661=CARTESIAN_POINT('',(14.55,0.,3.75));
#1662=CARTESIAN_POINT('',(14.55,4.22187384344914,1.3125));
#1663=CARTESIAN_POINT('',(14.55,0.,-15.75));
#1664=CARTESIAN_POINT('Origin',(14.55,0.,-15.75));
#1665=CARTESIAN_POINT('',(14.55,0.,10.25));
#1666=CARTESIAN_POINT('',(14.55,0.,-15.75));
#1667=CARTESIAN_POINT('',(14.55,3.5,8.22927405783631));
#1668=CARTESIAN_POINT('',(14.55,7.37916512459885,5.98963702891815));
#1669=CARTESIAN_POINT('',(14.55,3.5,-15.75));
#1670=CARTESIAN_POINT('Origin',(-14.55,0.,15.75));
#1671=CARTESIAN_POINT('',(-14.55,3.5,8.22927405783631));
#1672=CARTESIAN_POINT('',(-14.55,3.5,15.75));
#1673=CARTESIAN_POINT('',(-14.55,0.,10.25));
#1674=CARTESIAN_POINT('',(-14.55,0.559215069796397,9.92713702891815));
#1675=CARTESIAN_POINT('',(-14.55,0.,15.75));
#1676=CARTESIAN_POINT('Origin',(-14.55,0.,15.75));
#1677=CARTESIAN_POINT('',(-14.55,0.,3.75));
#1678=CARTESIAN_POINT('',(-14.55,0.,15.75));
#1679=CARTESIAN_POINT('',(-14.55,3.5,1.72927405783631));
#1680=CARTESIAN_POINT('',(-14.55,-2.59807621135332,5.25));
#1681=CARTESIAN_POINT('',(-14.55,3.5,15.75));
#1682=CARTESIAN_POINT('Origin',(0.,3.5,-2.27072594216369));
#1683=CARTESIAN_POINT('',(-14.55,3.5,-2.27072594216369));
#1684=CARTESIAN_POINT('',(-14.55,0.,-0.25));
#1685=CARTESIAN_POINT('',(-14.55,-1.71410161513776,0.739637028918154));
#1686=CARTESIAN_POINT('',(14.55,3.5,-2.27072594216369));
#1687=CARTESIAN_POINT('',(0.,3.5,-2.27072594216369));
#1688=CARTESIAN_POINT('',(14.55,0.,-0.25));
#1689=CARTESIAN_POINT('',(14.55,5.1058484396647,-3.19786297108185));
#1690=CARTESIAN_POINT('',(0.,0.,-0.25));
#1691=CARTESIAN_POINT('Origin',(0.,0.,0.25));
#1692=CARTESIAN_POINT('',(-14.55,0.,0.25));
#1693=CARTESIAN_POINT('',(-14.55,3.5,-1.77072594216369));
#1694=CARTESIAN_POINT('',(-14.55,-3.3558484396647,2.1875));
#1695=CARTESIAN_POINT('',(14.55,0.,0.25));
#1696=CARTESIAN_POINT('',(0.,0.,0.25));
#1697=CARTESIAN_POINT('',(14.55,3.5,-1.77072594216369));
#1698=CARTESIAN_POINT('',(14.55,3.46410161513776,-1.75));
#1699=CARTESIAN_POINT('',(0.,3.5,-1.77072594216369));
#1700=CARTESIAN_POINT('Origin',(14.55,0.,-15.75));
#1701=CARTESIAN_POINT('',(14.55,3.5,-5.27072594216369));
#1702=CARTESIAN_POINT('',(14.55,3.5,-15.75));
#1703=CARTESIAN_POINT('',(14.55,0.,-3.25));
#1704=CARTESIAN_POINT('',(14.55,2.70632938682637,-4.8125));
#1705=CARTESIAN_POINT('',(14.55,0.,-15.75));
#1706=CARTESIAN_POINT('Origin',(14.55,0.,-15.75));
#1707=CARTESIAN_POINT('',(14.55,0.,3.25));
#1708=CARTESIAN_POINT('',(14.55,0.,-15.75));
#1709=CARTESIAN_POINT('',(14.55,3.5,1.22927405783631));
#1710=CARTESIAN_POINT('',(14.55,5.86362066797609,-0.135362971081846));
#1711=CARTESIAN_POINT('',(14.55,3.5,-15.75));
#1712=CARTESIAN_POINT('Origin',(-14.55,0.,15.75));
#1713=CARTESIAN_POINT('',(-14.55,0.,-3.25));
#1714=CARTESIAN_POINT('',(-14.55,0.,15.75));
#1715=CARTESIAN_POINT('',(-14.55,3.5,-5.27072594216369));
#1716=CARTESIAN_POINT('',(-14.55,-4.11362066797609,-0.874999999999999));
#1717=CARTESIAN_POINT('',(-14.55,3.5,15.75));
#1718=CARTESIAN_POINT('Origin',(-14.55,0.,15.75));
#1719=CARTESIAN_POINT('',(-14.55,3.5,1.22927405783631));
#1720=CARTESIAN_POINT('',(-14.55,3.5,15.75));
#1721=CARTESIAN_POINT('',(-14.55,0.,3.25));
#1722=CARTESIAN_POINT('',(-14.55,-0.956329386826371,3.80213702891816));
#1723=CARTESIAN_POINT('',(-14.55,0.,15.75));
#1724=CARTESIAN_POINT('Origin',(0.,0.,10.75));
#1725=CARTESIAN_POINT('',(0.,0.,10.75));
#1726=CARTESIAN_POINT('',(0.,3.5,8.72927405783631));
#1727=CARTESIAN_POINT('Origin',(0.,3.5,8.22927405783631));
#1728=CARTESIAN_POINT('',(0.,3.5,8.22927405783631));
#1729=CARTESIAN_POINT('',(0.,0.,10.25));
#1730=CARTESIAN_POINT('Origin',(0.,0.,3.75));
#1731=CARTESIAN_POINT('',(0.,0.,3.75));
#1732=CARTESIAN_POINT('',(0.,3.5,1.72927405783631));
#1733=CARTESIAN_POINT('Origin',(0.,3.5,1.22927405783631));
#1734=CARTESIAN_POINT('',(0.,3.5,1.22927405783631));
#1735=CARTESIAN_POINT('',(0.,0.,3.25));
#1736=CARTESIAN_POINT('Origin',(0.,0.,-3.25));
#1737=CARTESIAN_POINT('',(0.,0.,-3.25));
#1738=CARTESIAN_POINT('',(0.,3.5,-5.27072594216369));
#1739=CARTESIAN_POINT('Origin',(0.,3.5,-5.77072594216369));
#1740=CARTESIAN_POINT('',(0.,3.5,-5.77072594216369));
#1741=CARTESIAN_POINT('',(0.,0.,-3.75));
#1742=CARTESIAN_POINT('Origin',(18.55,0.,19.75));
#1743=CARTESIAN_POINT('',(18.55,0.,-19.75));
#1744=CARTESIAN_POINT('',(18.55,0.,19.75));
#1745=CARTESIAN_POINT('',(18.55,0.,-19.75));
#1746=CARTESIAN_POINT('',(18.55,0.5,-19.75));
#1747=CARTESIAN_POINT('',(18.55,0.,-19.75));
#1748=CARTESIAN_POINT('',(18.55,0.5,19.75));
#1749=CARTESIAN_POINT('',(18.55,0.5,-19.75));
#1750=CARTESIAN_POINT('',(18.55,0.,19.75));
#1751=CARTESIAN_POINT('Origin',(-18.55,0.,19.75));
#1752=CARTESIAN_POINT('',(-18.55,0.,19.75));
#1753=CARTESIAN_POINT('',(18.55,0.,19.75));
#1754=CARTESIAN_POINT('',(-18.55,0.5,19.75));
#1755=CARTESIAN_POINT('',(18.55,0.5,19.75));
#1756=CARTESIAN_POINT('',(-18.55,0.,19.75));
#1757=CARTESIAN_POINT('Origin',(-18.55,0.,-19.75));
#1758=CARTESIAN_POINT('',(-18.55,0.,-19.75));
#1759=CARTESIAN_POINT('',(-18.55,0.,19.75));
#1760=CARTESIAN_POINT('',(-18.55,0.5,-19.75));
#1761=CARTESIAN_POINT('',(-18.55,0.5,19.75));
#1762=CARTESIAN_POINT('',(-18.55,0.,-19.75));
#1763=CARTESIAN_POINT('Origin',(18.55,0.,-19.75));
#1764=CARTESIAN_POINT('',(-18.55,0.,-19.75));
#1765=CARTESIAN_POINT('',(-18.55,0.5,-19.75));
#1766=CARTESIAN_POINT('Origin',(0.,0.5,0.));
#1767=CARTESIAN_POINT('',(15.05,0.5,16.25));
#1768=CARTESIAN_POINT('',(15.05,0.5,8.125));
#1769=CARTESIAN_POINT('',(-15.05,0.5,16.25));
#1770=CARTESIAN_POINT('',(-7.525,0.5,16.25));
#1771=CARTESIAN_POINT('',(-15.05,0.5,-8.125));
#1772=CARTESIAN_POINT('Origin',(-15.05,0.,16.25));
#1773=CARTESIAN_POINT('',(15.05,3.5,16.25));
#1774=CARTESIAN_POINT('',(15.05,0.,16.25));
#1775=CARTESIAN_POINT('',(-15.05,3.5,16.25));
#1776=CARTESIAN_POINT('',(15.05,3.5,16.25));
#1777=CARTESIAN_POINT('',(-15.05,0.,16.25));
#1778=CARTESIAN_POINT('Origin',(15.05,0.,16.25));
#1779=CARTESIAN_POINT('',(15.05,3.5,-16.25));
#1780=CARTESIAN_POINT('Origin',(14.55,0.,15.75));
#1781=CARTESIAN_POINT('',(14.55,0.,15.75));
#1782=CARTESIAN_POINT('',(14.55,3.5,15.75));
#1783=CARTESIAN_POINT('Origin',(-15.05,0.,-16.25));
#1784=CARTESIAN_POINT('',(-15.05,3.5,16.25));
#1785=CARTESIAN_POINT('Origin',(0.,3.5,0.));
#1786=CARTESIAN_POINT('Origin',(0.,0.,0.));
#1787=UNCERTAINTY_MEASURE_WITH_UNIT(LENGTH_MEASURE(0.01),#1791,
'DISTANCE_ACCURACY_VALUE',
'Maximum model space distance between geometric entities at asserted c
onnectivities');
#1788=UNCERTAINTY_MEASURE_WITH_UNIT(LENGTH_MEASURE(0.01),#1791,
'DISTANCE_ACCURACY_VALUE',
'Maximum model space distance between geometric entities at asserted c
onnectivities');
#1789=(
GEOMETRIC_REPRESENTATION_CONTEXT(3)
GLOBAL_UNCERTAINTY_ASSIGNED_CONTEXT((#1787))
GLOBAL_UNIT_ASSIGNED_CONTEXT((#1791,#1793,#1794))
REPRESENTATION_CONTEXT('','3D')
);
#1790=(
GEOMETRIC_REPRESENTATION_CONTEXT(3)
GLOBAL_UNCERTAINTY_ASSIGNED_CONTEXT((#1788))
GLOBAL_UNIT_ASSIGNED_CONTEXT((#1791,#1793,#1794))
REPRESENTATION_CONTEXT('','3D')
);
#1791=(
LENGTH_UNIT()
NAMED_UNIT(*)
SI_UNIT(.MILLI.,.METRE.)
);
#1792=(
LENGTH_UNIT()
NAMED_UNIT(*)
SI_UNIT($,.METRE.)
);
#1793=(
NAMED_UNIT(*)
PLANE_ANGLE_UNIT()
SI_UNIT($,.RADIAN.)
);
#1794=(
NAMED_UNIT(*)
SI_UNIT($,.STERADIAN.)
SOLID_ANGLE_UNIT()
);
#1795=SHAPE_DEFINITION_REPRESENTATION(#1796,#1797);
#1796=PRODUCT_DEFINITION_SHAPE('',$,#1799);
#1797=SHAPE_REPRESENTATION('',(#1155),#1789);
#1798=PRODUCT_DEFINITION_CONTEXT('part definition',#1803,'design');
#1799=PRODUCT_DEFINITION('2026-07-30-20-26-29-550','Vent Square',#1800,
#1798);
#1800=PRODUCT_DEFINITION_FORMATION('',$,#1805);
#1801=PRODUCT_RELATED_PRODUCT_CATEGORY('Vent Square','Vent Square',(#1805));
#1802=APPLICATION_PROTOCOL_DEFINITION('international standard',
'automotive_design',2009,#1803);
#1803=APPLICATION_CONTEXT(
'Core Data for Automotive Mechanical Design Process');
#1804=PRODUCT_CONTEXT('part definition',#1803,'mechanical');
#1805=PRODUCT('2026-07-30-20-26-29-550','Vent Square',$,(#1804));
#1806=PRESENTATION_STYLE_ASSIGNMENT((#1807));
#1807=SURFACE_STYLE_USAGE(.BOTH.,#1808);
#1808=SURFACE_SIDE_STYLE('',(#1809));
#1809=SURFACE_STYLE_FILL_AREA(#1810);
#1810=FILL_AREA_STYLE('Steel - Satin',(#1811));
#1811=FILL_AREA_STYLE_COLOUR('Steel - Satin',#1812);
#1812=COLOUR_RGB('Steel - Satin',0.627450980392157,0.627450980392157,0.627450980392157);
ENDSEC;
END-ISO-10303-21;
