ISO-10303-21;
HEADER;
/* Generated by software containing ST-Developer
 * from STEP Tools, Inc. (www.steptools.com) 
 */

FILE_DESCRIPTION(
/* description */ (''),
/* implementation_level */ '2;1');

FILE_NAME(
/* name */ 'Vent_Circle.step',
/* time_stamp */ '2026-07-30T20:37:22-07:00',
/* author */ (''),
/* organization */ (''),
/* preprocessor_version */ 'ST-DEVELOPER v20.1',
/* originating_system */ 'Autodesk Translation Framework v15.8.0.0',
/* authorisation */ '');

FILE_SCHEMA (('AUTOMOTIVE_DESIGN { 1 0 10303 214 3 1 1 }'));
ENDSEC;

DATA;
#10=MECHANICAL_DESIGN_GEOMETRIC_PRESENTATION_REPRESENTATION('',(#13),#1114);
#11=SHAPE_REPRESENTATION_RELATIONSHIP('SRR','None',#1121,#12);
#12=ADVANCED_BREP_SHAPE_REPRESENTATION('',(#14),#1113);
#13=STYLED_ITEM('',(#1130),#14);
#14=MANIFOLD_SOLID_BREP('Body1',#614);
#15=CYLINDRICAL_SURFACE('',#665,11.5);
#16=CYLINDRICAL_SURFACE('',#667,11.5);
#17=CYLINDRICAL_SURFACE('',#669,11.5);
#18=CYLINDRICAL_SURFACE('',#676,11.5);
#19=CYLINDRICAL_SURFACE('',#677,11.5);
#20=CYLINDRICAL_SURFACE('',#679,12.);
#21=CYLINDRICAL_SURFACE('',#687,13.5);
#22=CYLINDRICAL_SURFACE('',#689,11.5);
#23=CYLINDRICAL_SURFACE('',#691,11.5);
#24=CYLINDRICAL_SURFACE('',#693,11.5);
#25=CYLINDRICAL_SURFACE('',#698,11.5);
#26=CYLINDRICAL_SURFACE('',#700,11.5);
#27=CYLINDRICAL_SURFACE('',#705,11.5);
#28=CYLINDRICAL_SURFACE('',#711,11.5);
#29=CYLINDRICAL_SURFACE('',#713,11.5);
#30=CYLINDRICAL_SURFACE('',#718,11.5);
#31=ELLIPSE('',#660,23.,11.5);
#32=ELLIPSE('',#661,23.,11.5);
#33=ELLIPSE('',#663,23.,11.5);
#34=ELLIPSE('',#664,23.,11.5);
#35=ELLIPSE('',#666,23.,11.5);
#36=ELLIPSE('',#668,23.,11.5);
#37=ELLIPSE('',#670,23.,11.5);
#38=ELLIPSE('',#672,23.,11.5);
#39=ELLIPSE('',#674,23.,11.5);
#40=ELLIPSE('',#675,23.,11.5);
#41=ELLIPSE('',#678,23.,11.5);
#42=ELLIPSE('',#682,23.,11.5);
#43=ELLIPSE('',#683,23.,11.5);
#44=ELLIPSE('',#685,23.,11.5);
#45=ELLIPSE('',#686,23.,11.5);
#46=ELLIPSE('',#690,23.,11.5);
#47=ELLIPSE('',#692,23.,11.5);
#48=ELLIPSE('',#695,23.,11.5);
#49=ELLIPSE('',#696,23.,11.5);
#50=ELLIPSE('',#699,23.,11.5);
#51=ELLIPSE('',#701,23.,11.5);
#52=ELLIPSE('',#703,23.,11.5);
#53=ELLIPSE('',#708,23.,11.5);
#54=ELLIPSE('',#709,23.,11.5);
#55=ELLIPSE('',#712,23.,11.5);
#56=ELLIPSE('',#714,23.,11.5);
#57=ELLIPSE('',#717,23.,11.5);
#58=FACE_BOUND('',#166,.T.);
#59=FACE_BOUND('',#167,.T.);
#60=FACE_BOUND('',#168,.T.);
#61=FACE_BOUND('',#169,.T.);
#62=FACE_BOUND('',#170,.T.);
#63=FACE_BOUND('',#171,.T.);
#64=FACE_BOUND('',#172,.T.);
#65=FACE_BOUND('',#174,.T.);
#66=FACE_BOUND('',#175,.T.);
#67=FACE_BOUND('',#176,.T.);
#68=FACE_BOUND('',#177,.T.);
#69=FACE_BOUND('',#178,.T.);
#70=FACE_BOUND('',#179,.T.);
#71=FACE_BOUND('',#180,.T.);
#72=FACE_BOUND('',#181,.T.);
#73=FACE_BOUND('',#208,.T.);
#74=LINE('',#940,#103);
#75=LINE('',#943,#104);
#76=LINE('',#946,#105);
#77=LINE('',#950,#106);
#78=LINE('',#954,#107);
#79=LINE('',#958,#108);
#80=LINE('',#962,#109);
#81=LINE('',#966,#110);
#82=LINE('',#971,#111);
#83=LINE('',#976,#112);
#84=LINE('',#979,#113);
#85=LINE('',#982,#114);
#86=LINE('',#986,#115);
#87=LINE('',#993,#116);
#88=LINE('',#999,#117);
#89=LINE('',#1002,#118);
#90=LINE('',#1005,#119);
#91=LINE('',#1009,#120);
#92=LINE('',#1013,#121);
#93=LINE('',#1019,#122);
#94=LINE('',#1022,#123);
#95=LINE('',#1027,#124);
#96=LINE('',#1030,#125);
#97=LINE('',#1033,#126);
#98=LINE('',#1037,#127);
#99=LINE('',#1043,#128);
#100=LINE('',#1046,#129);
#101=LINE('',#1069,#130);
#102=LINE('',#1080,#131);
#103=VECTOR('',#727,10.);
#104=VECTOR('',#730,10.);
#105=VECTOR('',#731,10.);
#106=VECTOR('',#734,10.);
#107=VECTOR('',#737,10.);
#108=VECTOR('',#740,10.);
#109=VECTOR('',#743,10.);
#110=VECTOR('',#746,10.);
#111=VECTOR('',#751,10.);
#112=VECTOR('',#754,10.);
#113=VECTOR('',#757,10.);
#114=VECTOR('',#758,10.);
#115=VECTOR('',#761,10.);
#116=VECTOR('',#768,10.);
#117=VECTOR('',#773,10.);
#118=VECTOR('',#776,10.);
#119=VECTOR('',#777,10.);
#120=VECTOR('',#780,10.);
#121=VECTOR('',#783,10.);
#122=VECTOR('',#788,10.);
#123=VECTOR('',#791,10.);
#124=VECTOR('',#794,10.);
#125=VECTOR('',#797,10.);
#126=VECTOR('',#798,10.);
#127=VECTOR('',#801,10.);
#128=VECTOR('',#806,10.);
#129=VECTOR('',#809,10.);
#130=VECTOR('',#852,12.);
#131=VECTOR('',#871,13.5);
#132=FACE_OUTER_BOUND('',#165,.T.);
#133=FACE_OUTER_BOUND('',#173,.T.);
#134=FACE_OUTER_BOUND('',#182,.T.);
#135=FACE_OUTER_BOUND('',#183,.T.);
#136=FACE_OUTER_BOUND('',#184,.T.);
#137=FACE_OUTER_BOUND('',#185,.T.);
#138=FACE_OUTER_BOUND('',#186,.T.);
#139=FACE_OUTER_BOUND('',#187,.T.);
#140=FACE_OUTER_BOUND('',#188,.T.);
#141=FACE_OUTER_BOUND('',#189,.T.);
#142=FACE_OUTER_BOUND('',#190,.T.);
#143=FACE_OUTER_BOUND('',#191,.T.);
#144=FACE_OUTER_BOUND('',#192,.T.);
#145=FACE_OUTER_BOUND('',#193,.T.);
#146=FACE_OUTER_BOUND('',#194,.T.);
#147=FACE_OUTER_BOUND('',#195,.T.);
#148=FACE_OUTER_BOUND('',#196,.T.);
#149=FACE_OUTER_BOUND('',#197,.T.);
#150=FACE_OUTER_BOUND('',#198,.T.);
#151=FACE_OUTER_BOUND('',#199,.T.);
#152=FACE_OUTER_BOUND('',#200,.T.);
#153=FACE_OUTER_BOUND('',#201,.T.);
#154=FACE_OUTER_BOUND('',#202,.T.);
#155=FACE_OUTER_BOUND('',#203,.T.);
#156=FACE_OUTER_BOUND('',#204,.T.);
#157=FACE_OUTER_BOUND('',#205,.T.);
#158=FACE_OUTER_BOUND('',#206,.T.);
#159=FACE_OUTER_BOUND('',#207,.T.);
#160=FACE_OUTER_BOUND('',#209,.T.);
#161=FACE_OUTER_BOUND('',#210,.T.);
#162=FACE_OUTER_BOUND('',#211,.T.);
#163=FACE_OUTER_BOUND('',#212,.T.);
#164=FACE_OUTER_BOUND('',#213,.T.);
#165=EDGE_LOOP('',(#390));
#166=EDGE_LOOP('',(#391,#392,#393,#394));
#167=EDGE_LOOP('',(#395,#396,#397,#398));
#168=EDGE_LOOP('',(#399,#400,#401,#402));
#169=EDGE_LOOP('',(#403,#404,#405,#406));
#170=EDGE_LOOP('',(#407,#408));
#171=EDGE_LOOP('',(#409,#410,#411,#412));
#172=EDGE_LOOP('',(#413,#414,#415,#416));
#173=EDGE_LOOP('',(#417));
#174=EDGE_LOOP('',(#418,#419));
#175=EDGE_LOOP('',(#420,#421,#422,#423));
#176=EDGE_LOOP('',(#424,#425));
#177=EDGE_LOOP('',(#426,#427,#428,#429));
#178=EDGE_LOOP('',(#430,#431,#432,#433));
#179=EDGE_LOOP('',(#434,#435,#436,#437));
#180=EDGE_LOOP('',(#438,#439,#440,#441));
#181=EDGE_LOOP('',(#442,#443,#444,#445));
#182=EDGE_LOOP('',(#446,#447,#448,#449));
#183=EDGE_LOOP('',(#450,#451,#452,#453));
#184=EDGE_LOOP('',(#454,#455,#456,#457));
#185=EDGE_LOOP('',(#458,#459,#460,#461));
#186=EDGE_LOOP('',(#462,#463,#464,#465));
#187=EDGE_LOOP('',(#466,#467,#468,#469));
#188=EDGE_LOOP('',(#470,#471,#472,#473));
#189=EDGE_LOOP('',(#474,#475,#476,#477));
#190=EDGE_LOOP('',(#478,#479,#480,#481));
#191=EDGE_LOOP('',(#482,#483,#484,#485));
#192=EDGE_LOOP('',(#486,#487,#488,#489));
#193=EDGE_LOOP('',(#490,#491,#492,#493));
#194=EDGE_LOOP('',(#494,#495,#496,#497));
#195=EDGE_LOOP('',(#498,#499,#500,#501));
#196=EDGE_LOOP('',(#502,#503,#504,#505));
#197=EDGE_LOOP('',(#506,#507,#508,#509));
#198=EDGE_LOOP('',(#510,#511,#512,#513));
#199=EDGE_LOOP('',(#514,#515,#516,#517));
#200=EDGE_LOOP('',(#518,#519,#520,#521));
#201=EDGE_LOOP('',(#522,#523,#524,#525));
#202=EDGE_LOOP('',(#526,#527,#528,#529));
#203=EDGE_LOOP('',(#530,#531,#532,#533));
#204=EDGE_LOOP('',(#534,#535,#536,#537));
#205=EDGE_LOOP('',(#538,#539,#540,#541));
#206=EDGE_LOOP('',(#542,#543,#544,#545));
#207=EDGE_LOOP('',(#546));
#208=EDGE_LOOP('',(#547));
#209=EDGE_LOOP('',(#548,#549,#550,#551));
#210=EDGE_LOOP('',(#552,#553,#554,#555));
#211=EDGE_LOOP('',(#556,#557,#558,#559));
#212=EDGE_LOOP('',(#560,#561));
#213=EDGE_LOOP('',(#562,#563));
#214=CIRCLE('',#629,12.);
#215=CIRCLE('',#630,11.5);
#216=CIRCLE('',#631,11.5);
#217=CIRCLE('',#632,11.5);
#218=CIRCLE('',#633,11.5);
#219=CIRCLE('',#634,11.5);
#220=CIRCLE('',#635,11.5);
#221=CIRCLE('',#636,11.5);
#222=CIRCLE('',#637,11.5);
#223=CIRCLE('',#638,11.5);
#224=CIRCLE('',#639,11.5);
#225=CIRCLE('',#640,11.5);
#226=CIRCLE('',#641,11.5);
#227=CIRCLE('',#642,11.5);
#228=CIRCLE('',#644,13.5);
#229=CIRCLE('',#645,11.5);
#230=CIRCLE('',#646,11.5);
#231=CIRCLE('',#647,11.5);
#232=CIRCLE('',#648,11.5);
#233=CIRCLE('',#649,11.5);
#234=CIRCLE('',#650,11.5);
#235=CIRCLE('',#651,11.5);
#236=CIRCLE('',#652,11.5);
#237=CIRCLE('',#653,11.5);
#238=CIRCLE('',#654,11.5);
#239=CIRCLE('',#655,11.5);
#240=CIRCLE('',#656,11.5);
#241=CIRCLE('',#657,11.5);
#242=CIRCLE('',#658,11.5);
#243=CIRCLE('',#680,12.);
#244=CIRCLE('',#688,13.5);
#245=VERTEX_POINT('',#934);
#246=VERTEX_POINT('',#936);
#247=VERTEX_POINT('',#937);
#248=VERTEX_POINT('',#939);
#249=VERTEX_POINT('',#941);
#250=VERTEX_POINT('',#944);
#251=VERTEX_POINT('',#945);
#252=VERTEX_POINT('',#947);
#253=VERTEX_POINT('',#949);
#254=VERTEX_POINT('',#952);
#255=VERTEX_POINT('',#953);
#256=VERTEX_POINT('',#955);
#257=VERTEX_POINT('',#957);
#258=VERTEX_POINT('',#960);
#259=VERTEX_POINT('',#961);
#260=VERTEX_POINT('',#963);
#261=VERTEX_POINT('',#965);
#262=VERTEX_POINT('',#968);
#263=VERTEX_POINT('',#969);
#264=VERTEX_POINT('',#972);
#265=VERTEX_POINT('',#973);
#266=VERTEX_POINT('',#975);
#267=VERTEX_POINT('',#977);
#268=VERTEX_POINT('',#980);
#269=VERTEX_POINT('',#981);
#270=VERTEX_POINT('',#983);
#271=VERTEX_POINT('',#985);
#272=VERTEX_POINT('',#989);
#273=VERTEX_POINT('',#991);
#274=VERTEX_POINT('',#992);
#275=VERTEX_POINT('',#995);
#276=VERTEX_POINT('',#996);
#277=VERTEX_POINT('',#998);
#278=VERTEX_POINT('',#1000);
#279=VERTEX_POINT('',#1003);
#280=VERTEX_POINT('',#1004);
#281=VERTEX_POINT('',#1007);
#282=VERTEX_POINT('',#1008);
#283=VERTEX_POINT('',#1010);
#284=VERTEX_POINT('',#1012);
#285=VERTEX_POINT('',#1015);
#286=VERTEX_POINT('',#1016);
#287=VERTEX_POINT('',#1018);
#288=VERTEX_POINT('',#1020);
#289=VERTEX_POINT('',#1023);
#290=VERTEX_POINT('',#1024);
#291=VERTEX_POINT('',#1026);
#292=VERTEX_POINT('',#1028);
#293=VERTEX_POINT('',#1031);
#294=VERTEX_POINT('',#1032);
#295=VERTEX_POINT('',#1034);
#296=VERTEX_POINT('',#1036);
#297=VERTEX_POINT('',#1039);
#298=VERTEX_POINT('',#1040);
#299=VERTEX_POINT('',#1042);
#300=VERTEX_POINT('',#1044);
#301=VERTEX_POINT('',#1068);
#302=VERTEX_POINT('',#1078);
#303=EDGE_CURVE('',#245,#245,#214,.T.);
#304=EDGE_CURVE('',#246,#247,#215,.T.);
#305=EDGE_CURVE('',#247,#248,#74,.T.);
#306=EDGE_CURVE('',#248,#249,#216,.T.);
#307=EDGE_CURVE('',#246,#249,#75,.T.);
#308=EDGE_CURVE('',#250,#251,#76,.T.);
#309=EDGE_CURVE('',#251,#252,#217,.T.);
#310=EDGE_CURVE('',#253,#252,#77,.T.);
#311=EDGE_CURVE('',#253,#250,#218,.T.);
#312=EDGE_CURVE('',#254,#255,#78,.T.);
#313=EDGE_CURVE('',#255,#256,#219,.T.);
#314=EDGE_CURVE('',#257,#256,#79,.T.);
#315=EDGE_CURVE('',#257,#254,#220,.T.);
#316=EDGE_CURVE('',#258,#259,#80,.T.);
#317=EDGE_CURVE('',#258,#260,#221,.T.);
#318=EDGE_CURVE('',#260,#261,#81,.T.);
#319=EDGE_CURVE('',#261,#259,#222,.T.);
#320=EDGE_CURVE('',#262,#263,#223,.T.);
#321=EDGE_CURVE('',#263,#262,#82,.T.);
#322=EDGE_CURVE('',#264,#265,#224,.T.);
#323=EDGE_CURVE('',#265,#266,#83,.T.);
#324=EDGE_CURVE('',#266,#267,#225,.T.);
#325=EDGE_CURVE('',#264,#267,#84,.T.);
#326=EDGE_CURVE('',#268,#269,#85,.T.);
#327=EDGE_CURVE('',#268,#270,#226,.T.);
#328=EDGE_CURVE('',#270,#271,#86,.T.);
#329=EDGE_CURVE('',#271,#269,#227,.T.);
#330=EDGE_CURVE('',#272,#272,#228,.T.);
#331=EDGE_CURVE('',#273,#274,#87,.T.);
#332=EDGE_CURVE('',#273,#274,#229,.T.);
#333=EDGE_CURVE('',#275,#276,#230,.T.);
#334=EDGE_CURVE('',#275,#277,#88,.T.);
#335=EDGE_CURVE('',#278,#277,#231,.T.);
#336=EDGE_CURVE('',#278,#276,#89,.T.);
#337=EDGE_CURVE('',#279,#280,#90,.T.);
#338=EDGE_CURVE('',#279,#280,#232,.T.);
#339=EDGE_CURVE('',#281,#282,#91,.T.);
#340=EDGE_CURVE('',#283,#282,#233,.T.);
#341=EDGE_CURVE('',#283,#284,#92,.T.);
#342=EDGE_CURVE('',#281,#284,#234,.T.);
#343=EDGE_CURVE('',#285,#286,#235,.T.);
#344=EDGE_CURVE('',#285,#287,#93,.T.);
#345=EDGE_CURVE('',#288,#287,#236,.T.);
#346=EDGE_CURVE('',#288,#286,#94,.T.);
#347=EDGE_CURVE('',#289,#290,#237,.T.);
#348=EDGE_CURVE('',#289,#291,#95,.T.);
#349=EDGE_CURVE('',#292,#291,#238,.T.);
#350=EDGE_CURVE('',#292,#290,#96,.T.);
#351=EDGE_CURVE('',#293,#294,#97,.T.);
#352=EDGE_CURVE('',#295,#293,#239,.T.);
#353=EDGE_CURVE('',#295,#296,#98,.T.);
#354=EDGE_CURVE('',#294,#296,#240,.T.);
#355=EDGE_CURVE('',#297,#298,#241,.T.);
#356=EDGE_CURVE('',#297,#299,#99,.T.);
#357=EDGE_CURVE('',#300,#299,#242,.T.);
#358=EDGE_CURVE('',#298,#300,#100,.T.);
#359=EDGE_CURVE('',#246,#294,#31,.T.);
#360=EDGE_CURVE('',#293,#249,#32,.T.);
#361=EDGE_CURVE('',#298,#250,#33,.T.);
#362=EDGE_CURVE('',#251,#300,#34,.T.);
#363=EDGE_CURVE('',#253,#297,#35,.T.);
#364=EDGE_CURVE('',#299,#252,#36,.T.);
#365=EDGE_CURVE('',#248,#295,#37,.T.);
#366=EDGE_CURVE('',#296,#247,#38,.T.);
#367=EDGE_CURVE('',#264,#281,#39,.T.);
#368=EDGE_CURVE('',#282,#267,#40,.T.);
#369=EDGE_CURVE('',#266,#283,#41,.T.);
#370=EDGE_CURVE('',#245,#301,#101,.T.);
#371=EDGE_CURVE('',#301,#301,#243,.T.);
#372=EDGE_CURVE('',#262,#273,#42,.T.);
#373=EDGE_CURVE('',#274,#263,#43,.T.);
#374=EDGE_CURVE('',#290,#259,#44,.T.);
#375=EDGE_CURVE('',#258,#292,#45,.T.);
#376=EDGE_CURVE('',#302,#302,#244,.T.);
#377=EDGE_CURVE('',#302,#272,#102,.T.);
#378=EDGE_CURVE('',#291,#260,#46,.T.);
#379=EDGE_CURVE('',#261,#289,#47,.T.);
#380=EDGE_CURVE('',#286,#254,#48,.T.);
#381=EDGE_CURVE('',#255,#288,#49,.T.);
#382=EDGE_CURVE('',#284,#265,#50,.T.);
#383=EDGE_CURVE('',#287,#256,#51,.T.);
#384=EDGE_CURVE('',#257,#285,#52,.T.);
#385=EDGE_CURVE('',#276,#269,#53,.T.);
#386=EDGE_CURVE('',#268,#278,#54,.T.);
#387=EDGE_CURVE('',#277,#270,#55,.T.);
#388=EDGE_CURVE('',#271,#275,#56,.T.);
#389=EDGE_CURVE('',#280,#279,#57,.T.);
#390=ORIENTED_EDGE('',*,*,#303,.T.);
#391=ORIENTED_EDGE('',*,*,#304,.T.);
#392=ORIENTED_EDGE('',*,*,#305,.T.);
#393=ORIENTED_EDGE('',*,*,#306,.T.);
#394=ORIENTED_EDGE('',*,*,#307,.F.);
#395=ORIENTED_EDGE('',*,*,#308,.T.);
#396=ORIENTED_EDGE('',*,*,#309,.T.);
#397=ORIENTED_EDGE('',*,*,#310,.F.);
#398=ORIENTED_EDGE('',*,*,#311,.T.);
#399=ORIENTED_EDGE('',*,*,#312,.T.);
#400=ORIENTED_EDGE('',*,*,#313,.T.);
#401=ORIENTED_EDGE('',*,*,#314,.F.);
#402=ORIENTED_EDGE('',*,*,#315,.T.);
#403=ORIENTED_EDGE('',*,*,#316,.F.);
#404=ORIENTED_EDGE('',*,*,#317,.T.);
#405=ORIENTED_EDGE('',*,*,#318,.T.);
#406=ORIENTED_EDGE('',*,*,#319,.T.);
#407=ORIENTED_EDGE('',*,*,#320,.T.);
#408=ORIENTED_EDGE('',*,*,#321,.T.);
#409=ORIENTED_EDGE('',*,*,#322,.T.);
#410=ORIENTED_EDGE('',*,*,#323,.T.);
#411=ORIENTED_EDGE('',*,*,#324,.T.);
#412=ORIENTED_EDGE('',*,*,#325,.F.);
#413=ORIENTED_EDGE('',*,*,#326,.F.);
#414=ORIENTED_EDGE('',*,*,#327,.T.);
#415=ORIENTED_EDGE('',*,*,#328,.T.);
#416=ORIENTED_EDGE('',*,*,#329,.T.);
#417=ORIENTED_EDGE('',*,*,#330,.F.);
#418=ORIENTED_EDGE('',*,*,#331,.T.);
#419=ORIENTED_EDGE('',*,*,#332,.F.);
#420=ORIENTED_EDGE('',*,*,#333,.F.);
#421=ORIENTED_EDGE('',*,*,#334,.T.);
#422=ORIENTED_EDGE('',*,*,#335,.F.);
#423=ORIENTED_EDGE('',*,*,#336,.T.);
#424=ORIENTED_EDGE('',*,*,#337,.T.);
#425=ORIENTED_EDGE('',*,*,#338,.F.);
#426=ORIENTED_EDGE('',*,*,#339,.T.);
#427=ORIENTED_EDGE('',*,*,#340,.F.);
#428=ORIENTED_EDGE('',*,*,#341,.T.);
#429=ORIENTED_EDGE('',*,*,#342,.F.);
#430=ORIENTED_EDGE('',*,*,#343,.F.);
#431=ORIENTED_EDGE('',*,*,#344,.T.);
#432=ORIENTED_EDGE('',*,*,#345,.F.);
#433=ORIENTED_EDGE('',*,*,#346,.T.);
#434=ORIENTED_EDGE('',*,*,#347,.F.);
#435=ORIENTED_EDGE('',*,*,#348,.T.);
#436=ORIENTED_EDGE('',*,*,#349,.F.);
#437=ORIENTED_EDGE('',*,*,#350,.T.);
#438=ORIENTED_EDGE('',*,*,#351,.F.);
#439=ORIENTED_EDGE('',*,*,#352,.F.);
#440=ORIENTED_EDGE('',*,*,#353,.T.);
#441=ORIENTED_EDGE('',*,*,#354,.F.);
#442=ORIENTED_EDGE('',*,*,#355,.F.);
#443=ORIENTED_EDGE('',*,*,#356,.T.);
#444=ORIENTED_EDGE('',*,*,#357,.F.);
#445=ORIENTED_EDGE('',*,*,#358,.F.);
#446=ORIENTED_EDGE('',*,*,#359,.F.);
#447=ORIENTED_EDGE('',*,*,#307,.T.);
#448=ORIENTED_EDGE('',*,*,#360,.F.);
#449=ORIENTED_EDGE('',*,*,#351,.T.);
#450=ORIENTED_EDGE('',*,*,#361,.F.);
#451=ORIENTED_EDGE('',*,*,#358,.T.);
#452=ORIENTED_EDGE('',*,*,#362,.F.);
#453=ORIENTED_EDGE('',*,*,#308,.F.);
#454=ORIENTED_EDGE('',*,*,#361,.T.);
#455=ORIENTED_EDGE('',*,*,#311,.F.);
#456=ORIENTED_EDGE('',*,*,#363,.T.);
#457=ORIENTED_EDGE('',*,*,#355,.T.);
#458=ORIENTED_EDGE('',*,*,#362,.T.);
#459=ORIENTED_EDGE('',*,*,#357,.T.);
#460=ORIENTED_EDGE('',*,*,#364,.T.);
#461=ORIENTED_EDGE('',*,*,#309,.F.);
#462=ORIENTED_EDGE('',*,*,#360,.T.);
#463=ORIENTED_EDGE('',*,*,#306,.F.);
#464=ORIENTED_EDGE('',*,*,#365,.T.);
#465=ORIENTED_EDGE('',*,*,#352,.T.);
#466=ORIENTED_EDGE('',*,*,#366,.F.);
#467=ORIENTED_EDGE('',*,*,#353,.F.);
#468=ORIENTED_EDGE('',*,*,#365,.F.);
#469=ORIENTED_EDGE('',*,*,#305,.F.);
#470=ORIENTED_EDGE('',*,*,#367,.F.);
#471=ORIENTED_EDGE('',*,*,#325,.T.);
#472=ORIENTED_EDGE('',*,*,#368,.F.);
#473=ORIENTED_EDGE('',*,*,#339,.F.);
#474=ORIENTED_EDGE('',*,*,#359,.T.);
#475=ORIENTED_EDGE('',*,*,#354,.T.);
#476=ORIENTED_EDGE('',*,*,#366,.T.);
#477=ORIENTED_EDGE('',*,*,#304,.F.);
#478=ORIENTED_EDGE('',*,*,#368,.T.);
#479=ORIENTED_EDGE('',*,*,#324,.F.);
#480=ORIENTED_EDGE('',*,*,#369,.T.);
#481=ORIENTED_EDGE('',*,*,#340,.T.);
#482=ORIENTED_EDGE('',*,*,#303,.F.);
#483=ORIENTED_EDGE('',*,*,#370,.T.);
#484=ORIENTED_EDGE('',*,*,#371,.F.);
#485=ORIENTED_EDGE('',*,*,#370,.F.);
#486=ORIENTED_EDGE('',*,*,#372,.F.);
#487=ORIENTED_EDGE('',*,*,#321,.F.);
#488=ORIENTED_EDGE('',*,*,#373,.F.);
#489=ORIENTED_EDGE('',*,*,#331,.F.);
#490=ORIENTED_EDGE('',*,*,#374,.F.);
#491=ORIENTED_EDGE('',*,*,#350,.F.);
#492=ORIENTED_EDGE('',*,*,#375,.F.);
#493=ORIENTED_EDGE('',*,*,#316,.T.);
#494=ORIENTED_EDGE('',*,*,#376,.F.);
#495=ORIENTED_EDGE('',*,*,#377,.T.);
#496=ORIENTED_EDGE('',*,*,#330,.T.);
#497=ORIENTED_EDGE('',*,*,#377,.F.);
#498=ORIENTED_EDGE('',*,*,#375,.T.);
#499=ORIENTED_EDGE('',*,*,#349,.T.);
#500=ORIENTED_EDGE('',*,*,#378,.T.);
#501=ORIENTED_EDGE('',*,*,#317,.F.);
#502=ORIENTED_EDGE('',*,*,#374,.T.);
#503=ORIENTED_EDGE('',*,*,#319,.F.);
#504=ORIENTED_EDGE('',*,*,#379,.T.);
#505=ORIENTED_EDGE('',*,*,#347,.T.);
#506=ORIENTED_EDGE('',*,*,#372,.T.);
#507=ORIENTED_EDGE('',*,*,#332,.T.);
#508=ORIENTED_EDGE('',*,*,#373,.T.);
#509=ORIENTED_EDGE('',*,*,#320,.F.);
#510=ORIENTED_EDGE('',*,*,#380,.F.);
#511=ORIENTED_EDGE('',*,*,#346,.F.);
#512=ORIENTED_EDGE('',*,*,#381,.F.);
#513=ORIENTED_EDGE('',*,*,#312,.F.);
#514=ORIENTED_EDGE('',*,*,#363,.F.);
#515=ORIENTED_EDGE('',*,*,#310,.T.);
#516=ORIENTED_EDGE('',*,*,#364,.F.);
#517=ORIENTED_EDGE('',*,*,#356,.F.);
#518=ORIENTED_EDGE('',*,*,#367,.T.);
#519=ORIENTED_EDGE('',*,*,#342,.T.);
#520=ORIENTED_EDGE('',*,*,#382,.T.);
#521=ORIENTED_EDGE('',*,*,#322,.F.);
#522=ORIENTED_EDGE('',*,*,#381,.T.);
#523=ORIENTED_EDGE('',*,*,#345,.T.);
#524=ORIENTED_EDGE('',*,*,#383,.T.);
#525=ORIENTED_EDGE('',*,*,#313,.F.);
#526=ORIENTED_EDGE('',*,*,#383,.F.);
#527=ORIENTED_EDGE('',*,*,#344,.F.);
#528=ORIENTED_EDGE('',*,*,#384,.F.);
#529=ORIENTED_EDGE('',*,*,#314,.T.);
#530=ORIENTED_EDGE('',*,*,#379,.F.);
#531=ORIENTED_EDGE('',*,*,#318,.F.);
#532=ORIENTED_EDGE('',*,*,#378,.F.);
#533=ORIENTED_EDGE('',*,*,#348,.F.);
#534=ORIENTED_EDGE('',*,*,#380,.T.);
#535=ORIENTED_EDGE('',*,*,#315,.F.);
#536=ORIENTED_EDGE('',*,*,#384,.T.);
#537=ORIENTED_EDGE('',*,*,#343,.T.);
#538=ORIENTED_EDGE('',*,*,#369,.F.);
#539=ORIENTED_EDGE('',*,*,#323,.F.);
#540=ORIENTED_EDGE('',*,*,#382,.F.);
#541=ORIENTED_EDGE('',*,*,#341,.F.);
#542=ORIENTED_EDGE('',*,*,#385,.F.);
#543=ORIENTED_EDGE('',*,*,#336,.F.);
#544=ORIENTED_EDGE('',*,*,#386,.F.);
#545=ORIENTED_EDGE('',*,*,#326,.T.);
#546=ORIENTED_EDGE('',*,*,#376,.T.);
#547=ORIENTED_EDGE('',*,*,#371,.T.);
#548=ORIENTED_EDGE('',*,*,#386,.T.);
#549=ORIENTED_EDGE('',*,*,#335,.T.);
#550=ORIENTED_EDGE('',*,*,#387,.T.);
#551=ORIENTED_EDGE('',*,*,#327,.F.);
#552=ORIENTED_EDGE('',*,*,#385,.T.);
#553=ORIENTED_EDGE('',*,*,#329,.F.);
#554=ORIENTED_EDGE('',*,*,#388,.T.);
#555=ORIENTED_EDGE('',*,*,#333,.T.);
#556=ORIENTED_EDGE('',*,*,#387,.F.);
#557=ORIENTED_EDGE('',*,*,#334,.F.);
#558=ORIENTED_EDGE('',*,*,#388,.F.);
#559=ORIENTED_EDGE('',*,*,#328,.F.);
#560=ORIENTED_EDGE('',*,*,#389,.F.);
#561=ORIENTED_EDGE('',*,*,#337,.F.);
#562=ORIENTED_EDGE('',*,*,#389,.T.);
#563=ORIENTED_EDGE('',*,*,#338,.T.);
#564=PLANE('',#628);
#565=PLANE('',#643);
#566=PLANE('',#659);
#567=PLANE('',#662);
#568=PLANE('',#671);
#569=PLANE('',#673);
#570=PLANE('',#681);
#571=PLANE('',#684);
#572=PLANE('',#694);
#573=PLANE('',#697);
#574=PLANE('',#702);
#575=PLANE('',#704);
#576=PLANE('',#706);
#577=PLANE('',#707);
#578=PLANE('',#710);
#579=PLANE('',#715);
#580=PLANE('',#716);
#581=ADVANCED_FACE('',(#132,#58,#59,#60,#61,#62,#63,#64),#564,.T.);
#582=ADVANCED_FACE('',(#133,#65,#66,#67,#68,#69,#70,#71,#72),#565,.F.);
#583=ADVANCED_FACE('',(#134),#566,.T.);
#584=ADVANCED_FACE('',(#135),#567,.T.);
#585=ADVANCED_FACE('',(#136),#15,.F.);
#586=ADVANCED_FACE('',(#137),#16,.F.);
#587=ADVANCED_FACE('',(#138),#17,.F.);
#588=ADVANCED_FACE('',(#139),#568,.T.);
#589=ADVANCED_FACE('',(#140),#569,.T.);
#590=ADVANCED_FACE('',(#141),#18,.F.);
#591=ADVANCED_FACE('',(#142),#19,.F.);
#592=ADVANCED_FACE('',(#143),#20,.T.);
#593=ADVANCED_FACE('',(#144),#570,.T.);
#594=ADVANCED_FACE('',(#145),#571,.T.);
#595=ADVANCED_FACE('',(#146),#21,.T.);
#596=ADVANCED_FACE('',(#147),#22,.F.);
#597=ADVANCED_FACE('',(#148),#23,.F.);
#598=ADVANCED_FACE('',(#149),#24,.F.);
#599=ADVANCED_FACE('',(#150),#572,.T.);
#600=ADVANCED_FACE('',(#151),#573,.T.);
#601=ADVANCED_FACE('',(#152),#25,.F.);
#602=ADVANCED_FACE('',(#153),#26,.F.);
#603=ADVANCED_FACE('',(#154),#574,.T.);
#604=ADVANCED_FACE('',(#155),#575,.T.);
#605=ADVANCED_FACE('',(#156),#27,.F.);
#606=ADVANCED_FACE('',(#157),#576,.T.);
#607=ADVANCED_FACE('',(#158),#577,.T.);
#608=ADVANCED_FACE('',(#159,#73),#578,.T.);
#609=ADVANCED_FACE('',(#160),#28,.F.);
#610=ADVANCED_FACE('',(#161),#29,.F.);
#611=ADVANCED_FACE('',(#162),#579,.T.);
#612=ADVANCED_FACE('',(#163),#580,.T.);
#613=ADVANCED_FACE('',(#164),#30,.F.);
#614=CLOSED_SHELL('',(#581,#582,#583,#584,#585,#586,#587,#588,#589,#590,
#591,#592,#593,#594,#595,#596,#597,#598,#599,#600,#601,#602,#603,#604,#605,
#606,#607,#608,#609,#610,#611,#612,#613));
#615=DERIVED_UNIT_ELEMENT(#617,1.);
#616=DERIVED_UNIT_ELEMENT(#1116,-3.);
#617=(
MASS_UNIT()
NAMED_UNIT(*)
SI_UNIT(.KILO.,.GRAM.)
);
#618=DERIVED_UNIT((#615,#616));
#619=MEASURE_REPRESENTATION_ITEM('density measure',
POSITIVE_RATIO_MEASURE(7850.),#618);
#620=PROPERTY_DEFINITION_REPRESENTATION(#625,#622);
#621=PROPERTY_DEFINITION_REPRESENTATION(#626,#623);
#622=REPRESENTATION('material name',(#624),#1113);
#623=REPRESENTATION('density',(#619),#1113);
#624=DESCRIPTIVE_REPRESENTATION_ITEM('Steel','Steel');
#625=PROPERTY_DEFINITION('material property','material name',#1123);
#626=PROPERTY_DEFINITION('material property','density of part',#1123);
#627=AXIS2_PLACEMENT_3D('',#932,#719,#720);
#628=AXIS2_PLACEMENT_3D('',#933,#721,#722);
#629=AXIS2_PLACEMENT_3D('',#935,#723,#724);
#630=AXIS2_PLACEMENT_3D('',#938,#725,#726);
#631=AXIS2_PLACEMENT_3D('',#942,#728,#729);
#632=AXIS2_PLACEMENT_3D('',#948,#732,#733);
#633=AXIS2_PLACEMENT_3D('',#951,#735,#736);
#634=AXIS2_PLACEMENT_3D('',#956,#738,#739);
#635=AXIS2_PLACEMENT_3D('',#959,#741,#742);
#636=AXIS2_PLACEMENT_3D('',#964,#744,#745);
#637=AXIS2_PLACEMENT_3D('',#967,#747,#748);
#638=AXIS2_PLACEMENT_3D('',#970,#749,#750);
#639=AXIS2_PLACEMENT_3D('',#974,#752,#753);
#640=AXIS2_PLACEMENT_3D('',#978,#755,#756);
#641=AXIS2_PLACEMENT_3D('',#984,#759,#760);
#642=AXIS2_PLACEMENT_3D('',#987,#762,#763);
#643=AXIS2_PLACEMENT_3D('',#988,#764,#765);
#644=AXIS2_PLACEMENT_3D('',#990,#766,#767);
#645=AXIS2_PLACEMENT_3D('',#994,#769,#770);
#646=AXIS2_PLACEMENT_3D('',#997,#771,#772);
#647=AXIS2_PLACEMENT_3D('',#1001,#774,#775);
#648=AXIS2_PLACEMENT_3D('',#1006,#778,#779);
#649=AXIS2_PLACEMENT_3D('',#1011,#781,#782);
#650=AXIS2_PLACEMENT_3D('',#1014,#784,#785);
#651=AXIS2_PLACEMENT_3D('',#1017,#786,#787);
#652=AXIS2_PLACEMENT_3D('',#1021,#789,#790);
#653=AXIS2_PLACEMENT_3D('',#1025,#792,#793);
#654=AXIS2_PLACEMENT_3D('',#1029,#795,#796);
#655=AXIS2_PLACEMENT_3D('',#1035,#799,#800);
#656=AXIS2_PLACEMENT_3D('',#1038,#802,#803);
#657=AXIS2_PLACEMENT_3D('',#1041,#804,#805);
#658=AXIS2_PLACEMENT_3D('',#1045,#807,#808);
#659=AXIS2_PLACEMENT_3D('',#1047,#810,#811);
#660=AXIS2_PLACEMENT_3D('',#1048,#812,#813);
#661=AXIS2_PLACEMENT_3D('',#1049,#814,#815);
#662=AXIS2_PLACEMENT_3D('',#1050,#816,#817);
#663=AXIS2_PLACEMENT_3D('',#1051,#818,#819);
#664=AXIS2_PLACEMENT_3D('',#1052,#820,#821);
#665=AXIS2_PLACEMENT_3D('',#1053,#822,#823);
#666=AXIS2_PLACEMENT_3D('',#1054,#824,#825);
#667=AXIS2_PLACEMENT_3D('',#1055,#826,#827);
#668=AXIS2_PLACEMENT_3D('',#1056,#828,#829);
#669=AXIS2_PLACEMENT_3D('',#1057,#830,#831);
#670=AXIS2_PLACEMENT_3D('',#1058,#832,#833);
#671=AXIS2_PLACEMENT_3D('',#1059,#834,#835);
#672=AXIS2_PLACEMENT_3D('',#1060,#836,#837);
#673=AXIS2_PLACEMENT_3D('',#1061,#838,#839);
#674=AXIS2_PLACEMENT_3D('',#1062,#840,#841);
#675=AXIS2_PLACEMENT_3D('',#1063,#842,#843);
#676=AXIS2_PLACEMENT_3D('',#1064,#844,#845);
#677=AXIS2_PLACEMENT_3D('',#1065,#846,#847);
#678=AXIS2_PLACEMENT_3D('',#1066,#848,#849);
#679=AXIS2_PLACEMENT_3D('',#1067,#850,#851);
#680=AXIS2_PLACEMENT_3D('',#1070,#853,#854);
#681=AXIS2_PLACEMENT_3D('',#1071,#855,#856);
#682=AXIS2_PLACEMENT_3D('',#1072,#857,#858);
#683=AXIS2_PLACEMENT_3D('',#1073,#859,#860);
#684=AXIS2_PLACEMENT_3D('',#1074,#861,#862);
#685=AXIS2_PLACEMENT_3D('',#1075,#863,#864);
#686=AXIS2_PLACEMENT_3D('',#1076,#865,#866);
#687=AXIS2_PLACEMENT_3D('',#1077,#867,#868);
#688=AXIS2_PLACEMENT_3D('',#1079,#869,#870);
#689=AXIS2_PLACEMENT_3D('',#1081,#872,#873);
#690=AXIS2_PLACEMENT_3D('',#1082,#874,#875);
#691=AXIS2_PLACEMENT_3D('',#1083,#876,#877);
#692=AXIS2_PLACEMENT_3D('',#1084,#878,#879);
#693=AXIS2_PLACEMENT_3D('',#1085,#880,#881);
#694=AXIS2_PLACEMENT_3D('',#1086,#882,#883);
#695=AXIS2_PLACEMENT_3D('',#1087,#884,#885);
#696=AXIS2_PLACEMENT_3D('',#1088,#886,#887);
#697=AXIS2_PLACEMENT_3D('',#1089,#888,#889);
#698=AXIS2_PLACEMENT_3D('',#1090,#890,#891);
#699=AXIS2_PLACEMENT_3D('',#1091,#892,#893);
#700=AXIS2_PLACEMENT_3D('',#1092,#894,#895);
#701=AXIS2_PLACEMENT_3D('',#1093,#896,#897);
#702=AXIS2_PLACEMENT_3D('',#1094,#898,#899);
#703=AXIS2_PLACEMENT_3D('',#1095,#900,#901);
#704=AXIS2_PLACEMENT_3D('',#1096,#902,#903);
#705=AXIS2_PLACEMENT_3D('',#1097,#904,#905);
#706=AXIS2_PLACEMENT_3D('',#1098,#906,#907);
#707=AXIS2_PLACEMENT_3D('',#1099,#908,#909);
#708=AXIS2_PLACEMENT_3D('',#1100,#910,#911);
#709=AXIS2_PLACEMENT_3D('',#1101,#912,#913);
#710=AXIS2_PLACEMENT_3D('',#1102,#914,#915);
#711=AXIS2_PLACEMENT_3D('',#1103,#916,#917);
#712=AXIS2_PLACEMENT_3D('',#1104,#918,#919);
#713=AXIS2_PLACEMENT_3D('',#1105,#920,#921);
#714=AXIS2_PLACEMENT_3D('',#1106,#922,#923);
#715=AXIS2_PLACEMENT_3D('',#1107,#924,#925);
#716=AXIS2_PLACEMENT_3D('',#1108,#926,#927);
#717=AXIS2_PLACEMENT_3D('',#1109,#928,#929);
#718=AXIS2_PLACEMENT_3D('',#1110,#930,#931);
#719=DIRECTION('axis',(0.,0.,1.));
#720=DIRECTION('refdir',(1.,0.,0.));
#721=DIRECTION('center_axis',(0.,1.,0.));
#722=DIRECTION('ref_axis',(1.,0.,0.));
#723=DIRECTION('center_axis',(0.,1.,0.));
#724=DIRECTION('ref_axis',(-0.815765176701447,0.,0.578383243603458));
#725=DIRECTION('center_axis',(0.,-1.,0.));
#726=DIRECTION('ref_axis',(1.,0.,0.));
#727=DIRECTION('',(1.,0.,0.));
#728=DIRECTION('center_axis',(0.,-1.,0.));
#729=DIRECTION('ref_axis',(1.,0.,0.));
#730=DIRECTION('',(1.,0.,0.));
#731=DIRECTION('',(1.,0.,0.));
#732=DIRECTION('center_axis',(0.,-1.,0.));
#733=DIRECTION('ref_axis',(1.,0.,0.));
#734=DIRECTION('',(1.,0.,0.));
#735=DIRECTION('center_axis',(0.,-1.,0.));
#736=DIRECTION('ref_axis',(1.,0.,0.));
#737=DIRECTION('',(1.,0.,0.));
#738=DIRECTION('center_axis',(0.,-1.,0.));
#739=DIRECTION('ref_axis',(1.,0.,0.));
#740=DIRECTION('',(1.,0.,0.));
#741=DIRECTION('center_axis',(0.,-1.,0.));
#742=DIRECTION('ref_axis',(1.,0.,0.));
#743=DIRECTION('',(1.,0.,0.));
#744=DIRECTION('center_axis',(0.,-1.,0.));
#745=DIRECTION('ref_axis',(1.,0.,0.));
#746=DIRECTION('',(1.,0.,0.));
#747=DIRECTION('center_axis',(0.,-1.,0.));
#748=DIRECTION('ref_axis',(1.,0.,0.));
#749=DIRECTION('center_axis',(0.,-1.,0.));
#750=DIRECTION('ref_axis',(1.,0.,0.));
#751=DIRECTION('',(1.,0.,0.));
#752=DIRECTION('center_axis',(0.,-1.,0.));
#753=DIRECTION('ref_axis',(1.,0.,0.));
#754=DIRECTION('',(1.,0.,0.));
#755=DIRECTION('center_axis',(0.,-1.,0.));
#756=DIRECTION('ref_axis',(1.,0.,0.));
#757=DIRECTION('',(1.,0.,0.));
#758=DIRECTION('',(1.,0.,0.));
#759=DIRECTION('center_axis',(0.,-1.,0.));
#760=DIRECTION('ref_axis',(1.,0.,0.));
#761=DIRECTION('',(1.,0.,0.));
#762=DIRECTION('center_axis',(0.,-1.,0.));
#763=DIRECTION('ref_axis',(1.,0.,0.));
#764=DIRECTION('center_axis',(0.,1.,0.));
#765=DIRECTION('ref_axis',(1.,0.,0.));
#766=DIRECTION('center_axis',(0.,1.,0.));
#767=DIRECTION('ref_axis',(1.,0.,0.));
#768=DIRECTION('',(-1.,0.,0.));
#769=DIRECTION('center_axis',(0.,-1.,0.));
#770=DIRECTION('ref_axis',(1.,0.,0.));
#771=DIRECTION('center_axis',(0.,-1.,0.));
#772=DIRECTION('ref_axis',(1.,0.,0.));
#773=DIRECTION('',(-1.,0.,0.));
#774=DIRECTION('center_axis',(0.,-1.,0.));
#775=DIRECTION('ref_axis',(1.,0.,0.));
#776=DIRECTION('',(1.,0.,0.));
#777=DIRECTION('',(1.,0.,0.));
#778=DIRECTION('center_axis',(0.,-1.,0.));
#779=DIRECTION('ref_axis',(1.,0.,0.));
#780=DIRECTION('',(1.,0.,0.));
#781=DIRECTION('center_axis',(0.,-1.,0.));
#782=DIRECTION('ref_axis',(1.,0.,0.));
#783=DIRECTION('',(-1.,0.,0.));
#784=DIRECTION('center_axis',(0.,-1.,0.));
#785=DIRECTION('ref_axis',(1.,0.,0.));
#786=DIRECTION('center_axis',(0.,-1.,0.));
#787=DIRECTION('ref_axis',(1.,0.,0.));
#788=DIRECTION('',(1.,0.,0.));
#789=DIRECTION('center_axis',(0.,-1.,0.));
#790=DIRECTION('ref_axis',(1.,0.,0.));
#791=DIRECTION('',(-1.,0.,0.));
#792=DIRECTION('center_axis',(0.,-1.,0.));
#793=DIRECTION('ref_axis',(1.,0.,0.));
#794=DIRECTION('',(-1.,0.,0.));
#795=DIRECTION('center_axis',(0.,-1.,0.));
#796=DIRECTION('ref_axis',(1.,0.,0.));
#797=DIRECTION('',(1.,0.,0.));
#798=DIRECTION('',(-1.,0.,0.));
#799=DIRECTION('center_axis',(0.,-1.,0.));
#800=DIRECTION('ref_axis',(1.,0.,0.));
#801=DIRECTION('',(-1.,0.,0.));
#802=DIRECTION('center_axis',(0.,-1.,0.));
#803=DIRECTION('ref_axis',(1.,0.,0.));
#804=DIRECTION('center_axis',(0.,-1.,0.));
#805=DIRECTION('ref_axis',(1.,0.,0.));
#806=DIRECTION('',(1.,0.,0.));
#807=DIRECTION('center_axis',(0.,-1.,0.));
#808=DIRECTION('ref_axis',(1.,0.,0.));
#809=DIRECTION('',(1.,0.,0.));
#810=DIRECTION('center_axis',(0.,-0.5,-0.866025403784439));
#811=DIRECTION('ref_axis',(0.,0.866025403784439,-0.5));
#812=DIRECTION('center_axis',(0.,0.5,0.866025403784439));
#813=DIRECTION('ref_axis',(0.,0.866025403784439,-0.5));
#814=DIRECTION('center_axis',(0.,0.5,0.866025403784439));
#815=DIRECTION('ref_axis',(0.,0.866025403784439,-0.5));
#816=DIRECTION('center_axis',(0.,0.5,0.866025403784439));
#817=DIRECTION('ref_axis',(0.,-0.866025403784439,0.5));
#818=DIRECTION('center_axis',(0.,-0.5,-0.866025403784439));
#819=DIRECTION('ref_axis',(0.,0.866025403784438,-0.5));
#820=DIRECTION('center_axis',(0.,-0.5,-0.866025403784439));
#821=DIRECTION('ref_axis',(0.,0.866025403784438,-0.5));
#822=DIRECTION('center_axis',(0.,1.,0.));
#823=DIRECTION('ref_axis',(-0.999528475452765,0.,0.0307054841855915));
#824=DIRECTION('center_axis',(0.,0.5,0.866025403784439));
#825=DIRECTION('ref_axis',(0.,0.866025403784439,-0.5));
#826=DIRECTION('center_axis',(0.,1.,0.));
#827=DIRECTION('ref_axis',(1.,0.,0.));
#828=DIRECTION('center_axis',(0.,0.5,0.866025403784439));
#829=DIRECTION('ref_axis',(0.,0.866025403784439,-0.5));
#830=DIRECTION('center_axis',(0.,1.,0.));
#831=DIRECTION('ref_axis',(1.,0.,0.));
#832=DIRECTION('center_axis',(0.,-0.5,-0.866025403784439));
#833=DIRECTION('ref_axis',(0.,0.866025403784438,-0.5));
#834=DIRECTION('center_axis',(0.,0.5,0.866025403784439));
#835=DIRECTION('ref_axis',(0.,-0.866025403784439,0.5));
#836=DIRECTION('center_axis',(0.,-0.5,-0.866025403784439));
#837=DIRECTION('ref_axis',(0.,0.866025403784438,-0.5));
#838=DIRECTION('center_axis',(0.,-0.5,-0.866025403784439));
#839=DIRECTION('ref_axis',(0.,0.866025403784439,-0.5));
#840=DIRECTION('center_axis',(0.,0.5,0.866025403784439));
#841=DIRECTION('ref_axis',(0.,0.866025403784439,-0.5));
#842=DIRECTION('center_axis',(0.,0.5,0.866025403784439));
#843=DIRECTION('ref_axis',(0.,0.866025403784439,-0.5));
#844=DIRECTION('center_axis',(0.,1.,0.));
#845=DIRECTION('ref_axis',(1.,0.,0.));
#846=DIRECTION('center_axis',(0.,1.,0.));
#847=DIRECTION('ref_axis',(1.,0.,0.));
#848=DIRECTION('center_axis',(0.,-0.5,-0.866025403784439));
#849=DIRECTION('ref_axis',(0.,0.866025403784438,-0.5));
#850=DIRECTION('center_axis',(0.,1.,0.));
#851=DIRECTION('ref_axis',(1.,0.,0.));
#852=DIRECTION('',(0.,-1.,0.));
#853=DIRECTION('center_axis',(0.,-1.,0.));
#854=DIRECTION('ref_axis',(1.,0.,0.));
#855=DIRECTION('center_axis',(0.,0.5,0.866025403784439));
#856=DIRECTION('ref_axis',(0.,-0.866025403784439,0.5));
#857=DIRECTION('center_axis',(0.,-0.5,-0.866025403784439));
#858=DIRECTION('ref_axis',(0.,0.866025403784438,-0.5));
#859=DIRECTION('center_axis',(0.,-0.5,-0.866025403784439));
#860=DIRECTION('ref_axis',(0.,0.866025403784438,-0.5));
#861=DIRECTION('center_axis',(0.,-0.5,-0.866025403784439));
#862=DIRECTION('ref_axis',(0.,0.866025403784439,-0.5));
#863=DIRECTION('center_axis',(0.,0.5,0.866025403784439));
#864=DIRECTION('ref_axis',(0.,0.866025403784439,-0.5));
#865=DIRECTION('center_axis',(0.,0.5,0.866025403784439));
#866=DIRECTION('ref_axis',(0.,0.866025403784439,-0.5));
#867=DIRECTION('center_axis',(0.,1.,0.));
#868=DIRECTION('ref_axis',(1.,0.,0.));
#869=DIRECTION('center_axis',(0.,1.,0.));
#870=DIRECTION('ref_axis',(1.,0.,0.));
#871=DIRECTION('',(0.,-1.,0.));
#872=DIRECTION('center_axis',(0.,1.,0.));
#873=DIRECTION('ref_axis',(1.,0.,0.));
#874=DIRECTION('center_axis',(0.,-0.5,-0.866025403784439));
#875=DIRECTION('ref_axis',(0.,0.866025403784438,-0.5));
#876=DIRECTION('center_axis',(0.,1.,0.));
#877=DIRECTION('ref_axis',(1.,0.,0.));
#878=DIRECTION('center_axis',(0.,-0.5,-0.866025403784439));
#879=DIRECTION('ref_axis',(0.,0.866025403784438,-0.5));
#880=DIRECTION('center_axis',(0.,1.,0.));
#881=DIRECTION('ref_axis',(1.,0.,0.));
#882=DIRECTION('center_axis',(0.,0.5,0.866025403784439));
#883=DIRECTION('ref_axis',(0.,-0.866025403784439,0.5));
#884=DIRECTION('center_axis',(0.,-0.5,-0.866025403784439));
#885=DIRECTION('ref_axis',(0.,0.866025403784438,-0.5));
#886=DIRECTION('center_axis',(0.,-0.5,-0.866025403784439));
#887=DIRECTION('ref_axis',(0.,0.866025403784438,-0.5));
#888=DIRECTION('center_axis',(0.,-0.5,-0.866025403784439));
#889=DIRECTION('ref_axis',(0.,0.866025403784439,-0.5));
#890=DIRECTION('center_axis',(0.,1.,0.));
#891=DIRECTION('ref_axis',(1.,0.,0.));
#892=DIRECTION('center_axis',(0.,-0.5,-0.866025403784439));
#893=DIRECTION('ref_axis',(0.,0.866025403784438,-0.5));
#894=DIRECTION('center_axis',(0.,1.,0.));
#895=DIRECTION('ref_axis',(1.,0.,0.));
#896=DIRECTION('center_axis',(0.,0.5,0.866025403784439));
#897=DIRECTION('ref_axis',(0.,0.866025403784439,-0.5));
#898=DIRECTION('center_axis',(0.,-0.5,-0.866025403784439));
#899=DIRECTION('ref_axis',(0.,0.866025403784439,-0.5));
#900=DIRECTION('center_axis',(0.,0.5,0.866025403784439));
#901=DIRECTION('ref_axis',(0.,0.866025403784439,-0.5));
#902=DIRECTION('center_axis',(0.,0.5,0.866025403784439));
#903=DIRECTION('ref_axis',(0.,-0.866025403784439,0.5));
#904=DIRECTION('center_axis',(0.,1.,0.));
#905=DIRECTION('ref_axis',(1.,0.,0.));
#906=DIRECTION('center_axis',(0.,0.5,0.866025403784439));
#907=DIRECTION('ref_axis',(0.,-0.866025403784439,0.5));
#908=DIRECTION('center_axis',(0.,-0.5,-0.866025403784439));
#909=DIRECTION('ref_axis',(0.,0.866025403784439,-0.5));
#910=DIRECTION('center_axis',(0.,0.5,0.866025403784439));
#911=DIRECTION('ref_axis',(0.,0.866025403784439,-0.5));
#912=DIRECTION('center_axis',(0.,0.5,0.866025403784439));
#913=DIRECTION('ref_axis',(0.,0.866025403784439,-0.5));
#914=DIRECTION('center_axis',(0.,1.,0.));
#915=DIRECTION('ref_axis',(1.,0.,0.));
#916=DIRECTION('center_axis',(0.,1.,0.));
#917=DIRECTION('ref_axis',(1.,0.,0.));
#918=DIRECTION('center_axis',(0.,-0.5,-0.866025403784438));
#919=DIRECTION('ref_axis',(0.,0.866025403784438,-0.5));
#920=DIRECTION('center_axis',(0.,1.,0.));
#921=DIRECTION('ref_axis',(1.,0.,0.));
#922=DIRECTION('center_axis',(0.,-0.5,-0.866025403784438));
#923=DIRECTION('ref_axis',(0.,0.866025403784438,-0.5));
#924=DIRECTION('center_axis',(0.,0.5,0.866025403784438));
#925=DIRECTION('ref_axis',(0.,-0.866025403784438,0.5));
#926=DIRECTION('center_axis',(0.,-0.5,-0.866025403784439));
#927=DIRECTION('ref_axis',(0.,0.866025403784439,-0.5));
#928=DIRECTION('center_axis',(0.,0.5,0.866025403784439));
#929=DIRECTION('ref_axis',(0.,0.866025403784438,-0.5));
#930=DIRECTION('center_axis',(0.,1.,0.));
#931=DIRECTION('ref_axis',(1.,0.,0.));
#932=CARTESIAN_POINT('',(0.,0.,0.));
#933=CARTESIAN_POINT('Origin',(0.,4.,0.));
#934=CARTESIAN_POINT('',(-12.,4.,1.46957615897682E-15));
#935=CARTESIAN_POINT('Origin',(-8.72014077476934E-113,4.,1.89911354915196E-64));
#936=CARTESIAN_POINT('',(-11.2115773256169,4.,-2.5594010767585));
#937=CARTESIAN_POINT('',(-10.3272678257366,4.,-5.0594010767585));
#938=CARTESIAN_POINT('Origin',(0.,4.,0.));
#939=CARTESIAN_POINT('',(10.3272678257366,4.,-5.0594010767585));
#940=CARTESIAN_POINT('',(0.,4.,-5.0594010767585));
#941=CARTESIAN_POINT('',(11.2115773256169,4.,-2.5594010767585));
#942=CARTESIAN_POINT('Origin',(0.,4.,0.));
#943=CARTESIAN_POINT('',(0.,4.,-2.5594010767585));
#944=CARTESIAN_POINT('',(-11.3141003709993,4.,-2.0594010767585));
#945=CARTESIAN_POINT('',(11.3141003709993,4.,-2.0594010767585));
#946=CARTESIAN_POINT('',(0.,4.,-2.0594010767585));
#947=CARTESIAN_POINT('',(11.4915565781507,4.,0.440598923241496));
#948=CARTESIAN_POINT('Origin',(0.,4.,0.));
#949=CARTESIAN_POINT('',(-11.4915565781507,4.,0.440598923241496));
#950=CARTESIAN_POINT('',(0.,4.,0.440598923241496));
#951=CARTESIAN_POINT('Origin',(0.,4.,0.));
#952=CARTESIAN_POINT('',(-11.4614690884545,4.,0.940598923241497));
#953=CARTESIAN_POINT('',(11.4614690884545,4.,0.940598923241497));
#954=CARTESIAN_POINT('',(0.,4.,0.940598923241497));
#955=CARTESIAN_POINT('',(10.9732528928021,4.,3.4405989232415));
#956=CARTESIAN_POINT('Origin',(0.,4.,0.));
#957=CARTESIAN_POINT('',(-10.9732528928021,4.,3.4405989232415));
#958=CARTESIAN_POINT('',(0.,4.,3.4405989232415));
#959=CARTESIAN_POINT('Origin',(0.,4.,0.));
#960=CARTESIAN_POINT('',(-9.5272601260772,4.,6.4405989232415));
#961=CARTESIAN_POINT('',(9.5272601260772,4.,6.4405989232415));
#962=CARTESIAN_POINT('',(0.,4.,6.4405989232415));
#963=CARTESIAN_POINT('',(-10.8037808255327,4.,3.9405989232415));
#964=CARTESIAN_POINT('Origin',(0.,4.,0.));
#965=CARTESIAN_POINT('',(10.8037808255327,4.,3.9405989232415));
#966=CARTESIAN_POINT('',(0.,4.,3.9405989232415));
#967=CARTESIAN_POINT('Origin',(0.,4.,0.));
#968=CARTESIAN_POINT('',(9.16941037290288,4.,6.9405989232415));
#969=CARTESIAN_POINT('',(-9.16941037290288,4.,6.9405989232415));
#970=CARTESIAN_POINT('Origin',(0.,4.,0.));
#971=CARTESIAN_POINT('',(0.,4.,6.9405989232415));
#972=CARTESIAN_POINT('',(-10.066929008776,4.,-5.5594010767585));
#973=CARTESIAN_POINT('',(-8.20341723210175,4.,-8.0594010767585));
#974=CARTESIAN_POINT('Origin',(0.,4.,0.));
#975=CARTESIAN_POINT('',(8.20341723210175,4.,-8.0594010767585));
#976=CARTESIAN_POINT('',(0.,4.,-8.0594010767585));
#977=CARTESIAN_POINT('',(10.066929008776,4.,-5.5594010767585));
#978=CARTESIAN_POINT('Origin',(0.,4.,0.));
#979=CARTESIAN_POINT('',(0.,4.,-5.5594010767585));
#980=CARTESIAN_POINT('',(-7.68027689651782,4.,-8.5594010767585));
#981=CARTESIAN_POINT('',(7.68027689651782,4.,-8.5594010767585));
#982=CARTESIAN_POINT('',(0.,4.,-8.5594010767585));
#983=CARTESIAN_POINT('',(-3.15272070177376,4.,-11.0594010767585));
#984=CARTESIAN_POINT('Origin',(0.,4.,0.));
#985=CARTESIAN_POINT('',(3.15272070177376,4.,-11.0594010767585));
#986=CARTESIAN_POINT('',(0.,4.,-11.0594010767585));
#987=CARTESIAN_POINT('Origin',(0.,4.,0.));
#988=CARTESIAN_POINT('Origin',(0.,0.,0.));
#989=CARTESIAN_POINT('',(-13.5,0.,1.65327317884893E-15));
#990=CARTESIAN_POINT('Origin',(0.,0.,0.));
#991=CARTESIAN_POINT('',(6.83282518435823,0.,9.25));
#992=CARTESIAN_POINT('',(-6.83282518435823,0.,9.25));
#993=CARTESIAN_POINT('',(0.,0.,9.25));
#994=CARTESIAN_POINT('Origin',(0.,0.,0.));
#995=CARTESIAN_POINT('',(7.46240577829965,0.,-8.75));
#996=CARTESIAN_POINT('',(9.65336728815391,0.,-6.25));
#997=CARTESIAN_POINT('Origin',(0.,0.,0.));
#998=CARTESIAN_POINT('',(-7.46240577829965,0.,-8.75));
#999=CARTESIAN_POINT('',(0.,0.,-8.75));
#1000=CARTESIAN_POINT('',(-9.65336728815391,0.,-6.25));
#1001=CARTESIAN_POINT('Origin',(0.,0.,0.));
#1002=CARTESIAN_POINT('',(0.,0.,-6.25));
#1003=CARTESIAN_POINT('',(-6.83282518435822,0.,-9.25));
#1004=CARTESIAN_POINT('',(6.83282518435822,0.,-9.25));
#1005=CARTESIAN_POINT('',(0.,0.,-9.25));
#1006=CARTESIAN_POINT('Origin',(0.,0.,0.));
#1007=CARTESIAN_POINT('',(-11.0312057364551,0.,-3.25));
#1008=CARTESIAN_POINT('',(11.0312057364551,0.,-3.25));
#1009=CARTESIAN_POINT('',(0.,0.,-3.25));
#1010=CARTESIAN_POINT('',(9.95929214352105,0.,-5.75));
#1011=CARTESIAN_POINT('Origin',(0.,0.,0.));
#1012=CARTESIAN_POINT('',(-9.95929214352105,0.,-5.75));
#1013=CARTESIAN_POINT('',(0.,0.,-5.75));
#1014=CARTESIAN_POINT('Origin',(0.,0.,0.));
#1015=CARTESIAN_POINT('',(-9.95929214352105,0.,5.75));
#1016=CARTESIAN_POINT('',(-11.0312057364551,0.,3.25));
#1017=CARTESIAN_POINT('Origin',(0.,0.,0.));
#1018=CARTESIAN_POINT('',(9.95929214352105,0.,5.75));
#1019=CARTESIAN_POINT('',(0.,0.,5.75));
#1020=CARTESIAN_POINT('',(11.0312057364551,0.,3.25));
#1021=CARTESIAN_POINT('Origin',(0.,0.,0.));
#1022=CARTESIAN_POINT('',(0.,0.,3.25));
#1023=CARTESIAN_POINT('',(9.65336728815391,0.,6.25));
#1024=CARTESIAN_POINT('',(7.46240577829965,0.,8.75));
#1025=CARTESIAN_POINT('Origin',(0.,0.,0.));
#1026=CARTESIAN_POINT('',(-9.65336728815391,0.,6.25));
#1027=CARTESIAN_POINT('',(0.,0.,6.25));
#1028=CARTESIAN_POINT('',(-7.46240577829965,0.,8.75));
#1029=CARTESIAN_POINT('Origin',(0.,0.,0.));
#1030=CARTESIAN_POINT('',(0.,0.,8.75));
#1031=CARTESIAN_POINT('',(11.4972822875669,0.,-0.250000000000001));
#1032=CARTESIAN_POINT('',(-11.4972822875669,0.,-0.250000000000001));
#1033=CARTESIAN_POINT('',(0.,0.,-0.250000000000001));
#1034=CARTESIAN_POINT('',(11.1663557170636,0.,-2.75));
#1035=CARTESIAN_POINT('Origin',(0.,0.,0.));
#1036=CARTESIAN_POINT('',(-11.1663557170636,0.,-2.75));
#1037=CARTESIAN_POINT('',(0.,0.,-2.75));
#1038=CARTESIAN_POINT('Origin',(0.,0.,0.));
#1039=CARTESIAN_POINT('',(-11.1663557170636,0.,2.75));
#1040=CARTESIAN_POINT('',(-11.4972822875669,0.,0.25));
#1041=CARTESIAN_POINT('Origin',(0.,0.,0.));
#1042=CARTESIAN_POINT('',(11.1663557170636,0.,2.75));
#1043=CARTESIAN_POINT('',(0.,0.,2.75));
#1044=CARTESIAN_POINT('',(11.4972822875669,0.,0.25));
#1045=CARTESIAN_POINT('Origin',(0.,0.,0.));
#1046=CARTESIAN_POINT('',(0.,0.,0.25));
#1047=CARTESIAN_POINT('Origin',(0.,0.,-0.250000000000001));
#1048=CARTESIAN_POINT('Origin',(0.,-0.433012701892222,0.));
#1049=CARTESIAN_POINT('Origin',(0.,-0.433012701892222,0.));
#1050=CARTESIAN_POINT('Origin',(0.,4.,-2.0594010767585));
#1051=CARTESIAN_POINT('Origin',(0.,0.43301270189222,0.));
#1052=CARTESIAN_POINT('Origin',(0.,0.43301270189222,0.));
#1053=CARTESIAN_POINT('Origin',(0.,0.,0.));
#1054=CARTESIAN_POINT('Origin',(0.,4.76313972081441,0.));
#1055=CARTESIAN_POINT('Origin',(0.,0.,0.));
#1056=CARTESIAN_POINT('Origin',(0.,4.76313972081441,0.));
#1057=CARTESIAN_POINT('Origin',(0.,0.,0.));
#1058=CARTESIAN_POINT('Origin',(0.,-4.76313972081441,0.));
#1059=CARTESIAN_POINT('Origin',(0.,4.,-5.0594010767585));
#1060=CARTESIAN_POINT('Origin',(0.,-4.76313972081441,0.));
#1061=CARTESIAN_POINT('Origin',(0.,0.,-3.25));
#1062=CARTESIAN_POINT('Origin',(0.,-5.62916512459886,0.));
#1063=CARTESIAN_POINT('Origin',(0.,-5.62916512459886,0.));
#1064=CARTESIAN_POINT('Origin',(0.,0.,0.));
#1065=CARTESIAN_POINT('Origin',(0.,0.,0.));
#1066=CARTESIAN_POINT('Origin',(0.,-9.95929214352104,0.));
#1067=CARTESIAN_POINT('Origin',(0.,0.,0.));
#1068=CARTESIAN_POINT('',(-12.,0.5,1.46957615897682E-15));
#1069=CARTESIAN_POINT('',(-12.,0.,1.46957615897682E-15));
#1070=CARTESIAN_POINT('Origin',(0.,0.5,0.));
#1071=CARTESIAN_POINT('Origin',(0.,4.,6.9405989232415));
#1072=CARTESIAN_POINT('Origin',(0.,16.0214699700121,0.));
#1073=CARTESIAN_POINT('Origin',(0.,16.0214699700121,0.));
#1074=CARTESIAN_POINT('Origin',(0.,0.,8.75));
#1075=CARTESIAN_POINT('Origin',(0.,15.1554445662277,0.));
#1076=CARTESIAN_POINT('Origin',(0.,15.1554445662277,0.));
#1077=CARTESIAN_POINT('Origin',(0.,0.,0.));
#1078=CARTESIAN_POINT('',(-13.5,0.5,1.65327317884893E-15));
#1079=CARTESIAN_POINT('Origin',(0.,0.5,0.));
#1080=CARTESIAN_POINT('',(-13.5,0.,1.65327317884893E-15));
#1081=CARTESIAN_POINT('Origin',(0.,0.,0.));
#1082=CARTESIAN_POINT('Origin',(0.,10.8253175473055,0.));
#1083=CARTESIAN_POINT('Origin',(0.,0.,0.));
#1084=CARTESIAN_POINT('Origin',(0.,10.8253175473055,0.));
#1085=CARTESIAN_POINT('Origin',(0.,0.,0.));
#1086=CARTESIAN_POINT('Origin',(0.,4.,0.940598923241496));
#1087=CARTESIAN_POINT('Origin',(0.,5.62916512459885,0.));
#1088=CARTESIAN_POINT('Origin',(0.,5.62916512459885,0.));
#1089=CARTESIAN_POINT('Origin',(0.,0.,2.75));
#1090=CARTESIAN_POINT('Origin',(0.,0.,0.));
#1091=CARTESIAN_POINT('Origin',(0.,-9.95929214352104,0.));
#1092=CARTESIAN_POINT('Origin',(0.,0.,0.));
#1093=CARTESIAN_POINT('Origin',(0.,9.95929214352105,0.));
#1094=CARTESIAN_POINT('Origin',(0.,0.,5.75));
#1095=CARTESIAN_POINT('Origin',(0.,9.95929214352105,0.));
#1096=CARTESIAN_POINT('Origin',(0.,4.,3.9405989232415));
#1097=CARTESIAN_POINT('Origin',(0.,0.,0.));
#1098=CARTESIAN_POINT('Origin',(0.,4.,-8.0594010767585));
#1099=CARTESIAN_POINT('Origin',(0.,0.,-6.25));
#1100=CARTESIAN_POINT('Origin',(0.,-10.8253175473055,0.));
#1101=CARTESIAN_POINT('Origin',(0.,-10.8253175473055,0.));
#1102=CARTESIAN_POINT('Origin',(0.,0.5,0.));
#1103=CARTESIAN_POINT('Origin',(0.,0.,0.));
#1104=CARTESIAN_POINT('Origin',(0.,-15.1554445662277,0.));
#1105=CARTESIAN_POINT('Origin',(0.,0.,0.));
#1106=CARTESIAN_POINT('Origin',(0.,-15.1554445662277,0.));
#1107=CARTESIAN_POINT('Origin',(0.,4.,-11.0594010767585));
#1108=CARTESIAN_POINT('Origin',(0.,0.,-9.25));
#1109=CARTESIAN_POINT('Origin',(0.,-16.0214699700121,0.));
#1110=CARTESIAN_POINT('Origin',(0.,0.,0.));
#1111=UNCERTAINTY_MEASURE_WITH_UNIT(LENGTH_MEASURE(0.01),#1115,
'DISTANCE_ACCURACY_VALUE',
'Maximum model space distance between geometric entities at asserted c
onnectivities');
#1112=UNCERTAINTY_MEASURE_WITH_UNIT(LENGTH_MEASURE(0.01),#1115,
'DISTANCE_ACCURACY_VALUE',
'Maximum model space distance between geometric entities at asserted c
onnectivities');
#1113=(
GEOMETRIC_REPRESENTATION_CONTEXT(3)
GLOBAL_UNCERTAINTY_ASSIGNED_CONTEXT((#1111))
GLOBAL_UNIT_ASSIGNED_CONTEXT((#1115,#1117,#1118))
REPRESENTATION_CONTEXT('','3D')
);
#1114=(
GEOMETRIC_REPRESENTATION_CONTEXT(3)
GLOBAL_UNCERTAINTY_ASSIGNED_CONTEXT((#1112))
GLOBAL_UNIT_ASSIGNED_CONTEXT((#1115,#1117,#1118))
REPRESENTATION_CONTEXT('','3D')
);
#1115=(
LENGTH_UNIT()
NAMED_UNIT(*)
SI_UNIT(.MILLI.,.METRE.)
);
#1116=(
LENGTH_UNIT()
NAMED_UNIT(*)
SI_UNIT($,.METRE.)
);
#1117=(
NAMED_UNIT(*)
PLANE_ANGLE_UNIT()
SI_UNIT($,.RADIAN.)
);
#1118=(
NAMED_UNIT(*)
SI_UNIT($,.STERADIAN.)
SOLID_ANGLE_UNIT()
);
#1119=SHAPE_DEFINITION_REPRESENTATION(#1120,#1121);
#1120=PRODUCT_DEFINITION_SHAPE('',$,#1123);
#1121=SHAPE_REPRESENTATION('',(#627),#1113);
#1122=PRODUCT_DEFINITION_CONTEXT('part definition',#1127,'design');
#1123=PRODUCT_DEFINITION('2026-07-30-20-37-22-576','Vent_Circle',#1124,
#1122);
#1124=PRODUCT_DEFINITION_FORMATION('',$,#1129);
#1125=PRODUCT_RELATED_PRODUCT_CATEGORY('Vent_Circle','Vent_Circle',(#1129));
#1126=APPLICATION_PROTOCOL_DEFINITION('international standard',
'automotive_design',2009,#1127);
#1127=APPLICATION_CONTEXT(
'Core Data for Automotive Mechanical Design Process');
#1128=PRODUCT_CONTEXT('part definition',#1127,'mechanical');
#1129=PRODUCT('2026-07-30-20-37-22-576','Vent_Circle',$,(#1128));
#1130=PRESENTATION_STYLE_ASSIGNMENT((#1131));
#1131=SURFACE_STYLE_USAGE(.BOTH.,#1132);
#1132=SURFACE_SIDE_STYLE('',(#1133));
#1133=SURFACE_STYLE_FILL_AREA(#1134);
#1134=FILL_AREA_STYLE('Steel - Satin',(#1135));
#1135=FILL_AREA_STYLE_COLOUR('Steel - Satin',#1136);
#1136=COLOUR_RGB('Steel - Satin',0.627450980392157,0.627450980392157,0.627450980392157);
ENDSEC;
END-ISO-10303-21;
